# Blender 5.2.0 LTS
# www.blender.org
mtllib mag.mtl
o 138508670368785
v 0.038140 -0.371275 0.085868
v 0.071688 -0.385817 -0.053652
v 0.071688 -0.385817 0.053652
v 0.038140 -0.371275 -0.085868
v -0.273745 -0.236089 -0.085868
v -0.273745 -0.236089 0.085868
v -0.305289 -0.222418 0.053608
v -0.305289 -0.222418 -0.053608
v 0.003688 0.424427 0.039433
v 0.297850 0.318800 -0.039450
v 0.003688 0.424427 -0.039433
v -0.029391 0.415627 0.046478
v -0.029391 0.415627 -0.046478
v -0.034986 0.297318 0.046477
v -0.034986 0.297318 -0.046477
v -0.052822 0.183405 0.046471
v -0.052822 0.183405 -0.046471
v -0.092609 0.077374 0.046461
v -0.092609 0.077374 -0.046461
v -0.154341 -0.020777 0.046446
v -0.154341 -0.020777 -0.046446
v -0.225117 -0.106605 0.046425
v -0.225117 -0.106605 -0.046425
v -0.279308 -0.128116 0.057618
v -0.279308 -0.128116 -0.057618
v -0.306411 -0.187772 -0.057622
v -0.306411 -0.187772 0.057622
v -0.305289 -0.222418 -0.053608
v -0.305289 -0.222418 0.053608
v 0.192382 -0.145275 -0.046481
v 0.192382 -0.145275 0.046481
v 0.115212 -0.246958 -0.046469
v 0.115212 -0.246958 0.046469
v 0.254114 -0.047125 0.046489
v 0.125896 -0.303749 -0.057667
v 0.254114 -0.047125 -0.046489
v 0.125896 -0.303749 0.057667
v 0.293898 0.058907 0.046495
v 0.098794 -0.363406 0.057669
v 0.293898 0.058907 -0.046495
v 0.098794 -0.363406 -0.057669
v 0.071688 -0.385817 0.053652
v 0.071688 -0.385817 -0.053652
v 0.311735 0.172819 -0.046498
v 0.311735 0.172819 0.046498
v 0.317331 0.291127 0.046499
v 0.317331 0.291127 -0.046499
v 0.297850 0.318800 0.039450
v 0.155542 -0.132048 0.076914
v 0.078976 -0.232014 0.076914
v 0.115212 -0.246958 0.046469
v 0.192382 -0.145275 0.046481
v 0.089820 -0.288112 0.092297
v 0.125896 -0.303749 0.057667
v 0.098794 -0.363406 0.057669
v 0.217156 -0.033855 0.076914
v 0.254114 -0.047125 0.046489
v 0.293898 0.058907 0.046495
v 0.209179 -0.030990 0.076914
v 0.256703 0.072262 0.076914
v 0.311735 0.172819 0.046498
v 0.147194 -0.129050 0.076914
v 0.087198 -0.203093 0.076914
v 0.248963 0.075041 0.076914
v 0.274313 0.186257 0.076914
v 0.266548 0.189046 0.076914
v 0.317331 0.291127 0.046499
v 0.269768 0.283474 0.076914
v 0.279815 0.304598 0.076914
v 0.317331 0.291127 -0.046499
v 0.274313 0.186257 -0.076914
v 0.279815 0.304598 -0.076914
v 0.311735 0.172819 -0.046498
v 0.297850 0.318800 -0.039450
v 0.256703 0.072262 -0.076914
v 0.293898 0.058907 -0.046495
v 0.269768 0.283474 -0.076914
v 0.266335 0.182737 -0.076914
v 0.248963 0.075041 -0.076914
v 0.210261 -0.029252 -0.076914
v 0.217156 -0.033855 -0.076914
v 0.254114 -0.047125 -0.046489
v 0.151203 -0.124105 -0.076914
v 0.192382 -0.145275 -0.046481
v 0.155542 -0.132048 -0.076914
v 0.087198 -0.203093 -0.076914
v 0.115212 -0.246958 -0.046469
v 0.078976 -0.232014 -0.076914
v 0.297850 0.318800 0.039450
v 0.238922 0.294549 0.076914
v 0.266020 0.330229 0.065255
v 0.003688 0.424427 0.039433
v 0.034631 0.413315 0.065255
v 0.007082 0.402529 0.076914
v -0.029391 0.415627 0.046478
v 0.156384 0.324186 0.076914
v 0.153166 0.229757 0.076914
v 0.235704 0.200120 0.076914
v 0.125539 0.335264 0.076914
v 0.135581 0.115755 0.076914
v 0.218119 0.086117 0.076914
v 0.095797 0.009723 0.076914
v 0.178334 -0.019914 0.076914
v 0.116350 -0.117975 0.076914
v 0.033813 -0.088338 0.076914
v 0.056355 -0.192018 0.076914
v -0.026183 -0.162379 0.076914
v -0.057029 -0.151304 0.076914
v -0.190954 -0.120693 0.076914
v -0.139566 -0.121668 0.076914
v -0.079571 -0.047624 0.076914
v 0.002967 -0.077261 0.076914
v -0.017586 0.050435 0.076914
v 0.064950 0.020798 0.076914
v 0.104736 0.126830 0.076914
v 0.022198 0.156467 0.076914
v 0.122320 0.240833 0.076914
v 0.039783 0.270470 0.076914
v 0.043001 0.364900 0.076914
v 0.012157 0.375975 0.076914
v 0.001352 0.284270 0.076914
v 0.008937 0.281546 0.076914
v -0.034986 0.297318 0.046477
v -0.052822 0.183405 0.046471
v -0.016838 0.170485 0.076914
v -0.008647 0.167543 0.076914
v -0.048433 0.061511 0.076914
v -0.057064 0.064611 0.076914
v -0.092609 0.077374 0.046461
v -0.110416 -0.036549 0.076914
v -0.119207 -0.033393 0.076914
v -0.154341 -0.020777 0.046446
v -0.170412 -0.110590 0.076914
v -0.225117 -0.106605 0.046425
v -0.245475 -0.142780 0.092297
v -0.279308 -0.128116 0.057618
v -0.306411 -0.187772 0.057622
v -0.272506 -0.202468 0.092297
v -0.305289 -0.222418 0.053608
v -0.273745 -0.236089 0.085868
v 0.062733 -0.347773 0.092297
v 0.038140 -0.371275 0.085868
v 0.071688 -0.385817 0.053652
v 0.056355 -0.192018 -0.076914
v -0.026183 -0.162379 -0.076914
v 0.037819 -0.083391 -0.076914
v 0.120356 -0.113028 -0.076914
v 0.096880 0.011462 -0.076914
v 0.179417 -0.018175 -0.076914
v 0.135257 0.113742 -0.076914
v 0.218119 0.086117 -0.076914
v 0.235488 0.193813 -0.076914
v 0.152950 0.223450 -0.076914
v 0.238922 0.294549 -0.076914
v 0.156384 0.324186 -0.076914
v 0.125539 0.335264 -0.076914
v 0.007082 0.402529 -0.076914
v 0.043001 0.364900 -0.076914
v 0.039568 0.264163 -0.076914
v 0.122107 0.234526 -0.076914
v 0.021874 0.154455 -0.076914
v 0.104412 0.124818 -0.076914
v 0.066034 0.022537 -0.076914
v -0.016504 0.052175 -0.076914
v 0.006973 -0.072317 -0.076914
v -0.075564 -0.042680 -0.076914
v -0.057029 -0.151304 -0.076914
v -0.139566 -0.121668 -0.076914
v 0.012157 0.375975 -0.076914
v -0.190954 -0.120693 -0.076914
v -0.170412 -0.110590 -0.076914
v 0.089820 -0.288112 -0.092297
v 0.125896 -0.303749 -0.057667
v 0.098794 -0.363406 -0.057669
v 0.062733 -0.347773 -0.092297
v 0.071688 -0.385817 -0.053652
v 0.038140 -0.371275 -0.085868
v -0.273745 -0.236089 -0.085868
v -0.272506 -0.202468 -0.092297
v -0.305289 -0.222418 -0.053608
v -0.306411 -0.187772 -0.057622
v -0.245475 -0.142780 -0.092297
v -0.279308 -0.128116 -0.057618
v -0.225117 -0.106605 -0.046425
v -0.154341 -0.020777 -0.046446
v -0.119207 -0.033393 -0.076914
v -0.092609 0.077374 -0.046461
v -0.106410 -0.031604 -0.076914
v -0.057064 0.064611 -0.076914
v -0.047349 0.063250 -0.076914
v -0.052822 0.183405 -0.046471
v -0.008972 0.165532 -0.076914
v -0.016838 0.170485 -0.076914
v 0.008724 0.275239 -0.076914
v 0.001352 0.284270 -0.076914
v -0.034986 0.297318 -0.046477
v -0.029391 0.415627 -0.046478
v 0.003688 0.424427 -0.039433
v 0.034631 0.413315 -0.065255
v 0.266020 0.330229 -0.065255
vn -0.3978 -0.9175 0.0005
vn -0.3977 -0.9175 -0.0000
vn -0.3978 -0.9175 0.0006
vn -0.3977 -0.9175 0.0003
vn 0.0163 0.9999 0.0005
vn 0.5390 0.8423 -0.0000
vn -0.6533 0.7571 0.0005
vn -0.6532 0.7572 0.0005
vn -0.9949 0.1011 -0.0000
vn -0.9667 0.2558 0.0005
vn -0.8942 0.4476 0.0005
vn -0.8096 0.5870 0.0005
vn -0.8096 0.5869 0.0005
vn -0.5187 0.8550 -0.0000
vn -0.5187 0.8550 0.0005
vn -0.6374 0.7705 0.0005
vn -0.9776 0.2104 0.0005
vn -0.9995 -0.0323 0.0003
vn 0.8220 -0.5695 0.0003
vn 0.8218 -0.5697 0.0005
vn 0.9727 -0.2322 0.0005
vn 0.8943 -0.4475 0.0005
vn 0.9894 -0.1449 0.0005
vn 0.9667 -0.2558 0.0005
vn 0.7829 -0.6222 0.0005
vn 0.6372 -0.7707 -0.0000
vn 0.6374 -0.7705 0.0005
vn 0.9949 -0.1010 0.0003
vn 0.9949 -0.1011 -0.0000
vn 0.9578 0.2875 0.0005
vn 0.5390 0.8423 0.0005
vn 0.1919 -0.1312 0.9726
vn 0.2746 0.1085 0.9554
vn 0.6524 -0.0256 0.7575
vn 0.5116 -0.3610 0.7797
vn 0.2452 0.0623 0.9675
vn 0.6712 -0.0490 0.7397
vn 0.4753 -0.5025 0.7222
vn 0.2012 -0.0966 0.9748
vn 0.5461 -0.2845 0.7879
vn 0.5879 -0.1670 0.7915
vn 0.0001 0.0005 1.0000
vn 0.2101 -0.0509 0.9764
vn 0.6143 -0.0692 0.7860
vn 0.2134 -0.0190 0.9768
vn 0.6625 0.2475 0.7070
vn 0.2469 0.1936 0.9495
vn 0.6625 0.2475 -0.7070
vn 0.2134 -0.0190 -0.9768
vn 0.2469 0.1936 -0.9495
vn 0.6143 -0.0692 -0.7860
vn 0.5192 0.8066 -0.2826
vn 0.2101 -0.0510 -0.9763
vn 0.5879 -0.1669 -0.7916
vn 0.0001 0.0005 -1.0000
vn 0.2012 -0.0966 -0.9748
vn 0.5461 -0.2845 -0.7879
vn 0.5116 -0.3609 -0.7798
vn 0.1919 -0.1312 -0.9726
vn 0.6524 -0.0256 -0.7575
vn 0.2746 0.1085 -0.9554
vn 0.5192 0.8066 0.2826
vn 0.3496 0.7480 0.5641
vn 0.0882 0.9492 0.3021
vn 0.1231 0.8663 0.4841
vn -0.1085 0.4145 0.9036
vn -0.2762 0.7180 0.6389
vn -0.0000 -0.0000 1.0000
vn -0.0966 0.3887 0.9163
vn -0.2099 0.0238 0.9774
vn -0.6288 0.0581 0.7754
vn -0.6067 0.1491 0.7809
vn -0.2027 0.0585 0.9775
vn -0.1939 0.1021 0.9757
vn -0.5672 0.2728 0.7771
vn -0.1874 0.1389 0.9724
vn -0.5254 0.3740 0.7643
vn -0.3647 0.6319 0.6839
vn -0.1240 0.3747 0.9188
vn -0.3210 0.7046 0.6328
vn -0.6799 0.1339 0.7210
vn -0.2387 -0.0095 0.9710
vn -0.7323 -0.1017 0.6734
vn -0.2213 -0.1755 0.9593
vn 0.1544 -0.2479 0.9564
vn 0.1988 -0.4462 0.8726
vn 0.3987 -0.6057 0.6886
vn -0.0000 -0.0000 -1.0000
vn -0.1085 0.4145 -0.9036
vn -0.0966 0.3887 -0.9163
vn 0.2452 0.0623 -0.9675
vn 0.6712 -0.0490 -0.7397
vn 0.4753 -0.5025 -0.7222
vn 0.1544 -0.2479 -0.9564
vn 0.3987 -0.6057 -0.6886
vn 0.1988 -0.4462 -0.8726
vn -0.2213 -0.1755 -0.9593
vn -0.2387 -0.0095 -0.9710
vn -0.7325 -0.1017 -0.6731
vn -0.6796 0.1338 -0.7213
vn -0.1240 0.3748 -0.9188
vn -0.3209 0.7047 -0.6328
vn -0.3647 0.6319 -0.6839
vn -0.5254 0.3740 -0.7643
vn -0.1874 0.1389 -0.9724
vn -0.5672 0.2728 -0.7771
vn -0.1939 0.1021 -0.9757
vn -0.6067 0.1491 -0.7809
vn -0.2026 0.0585 -0.9775
vn -0.2099 0.0237 -0.9774
vn -0.6288 0.0581 -0.7754
vn -0.2762 0.7180 -0.6389
vn 0.0882 0.9492 -0.3021
vn 0.1231 0.8663 -0.4840
vn 0.3496 0.7480 -0.5641
vt 0.000000 0.000000
s 1
f 1/1/1 2/1/2 3/1/2
f 2/1/2 1/1/1 4/1/2
f 1/1/1 5/1/2 4/1/2
f 6/1/3 5/1/2 1/1/1
f 5/1/2 6/1/3 7/1/4
f 5/1/2 7/1/4 8/1/1
f 9/1/5 10/1/6 11/1/5
f 11/1/5 12/1/7 9/1/5
f 12/1/7 11/1/5 13/1/8
f 13/1/8 14/1/9 12/1/7
f 13/1/8 15/1/9 14/1/9
f 15/1/9 16/1/10 14/1/9
f 15/1/9 17/1/10 16/1/10
f 17/1/10 18/1/11 16/1/10
f 17/1/10 19/1/11 18/1/11
f 19/1/11 20/1/12 18/1/11
f 19/1/11 21/1/13 20/1/12
f 21/1/13 22/1/14 20/1/12
f 21/1/13 23/1/15 22/1/14
f 23/1/15 24/1/16 22/1/14
f 24/1/16 23/1/15 25/1/16
f 26/1/17 24/1/16 25/1/16
f 24/1/16 26/1/17 27/1/17
f 28/1/18 27/1/17 26/1/17
f 27/1/17 28/1/18 29/1/18
f 30/1/19 31/1/20 32/1/21
f 32/1/21 31/1/20 33/1/21
f 30/1/19 34/1/22 31/1/20
f 33/1/21 35/1/23 32/1/21
f 36/1/22 34/1/22 30/1/19
f 35/1/23 33/1/21 37/1/23
f 36/1/22 38/1/24 34/1/22
f 35/1/23 37/1/23 39/1/25
f 40/1/24 38/1/24 36/1/22
f 39/1/25 41/1/25 35/1/23
f 41/1/25 39/1/25 42/1/26
f 42/1/26 43/1/27 41/1/25
f 44/1/28 38/1/24 40/1/24
f 38/1/24 44/1/28 45/1/29
f 44/1/28 46/1/30 45/1/29
f 47/1/30 46/1/30 44/1/28
f 10/1/6 46/1/30 47/1/30
f 46/1/30 10/1/6 48/1/31
f 10/1/6 9/1/5 48/1/31
f 49/1/32 50/1/33 51/1/34
f 49/1/32 51/1/34 52/1/35
f 53/1/36 51/1/34 50/1/33
f 51/1/34 53/1/36 54/1/37
f 53/1/36 55/1/38 54/1/37
f 52/1/35 56/1/39 49/1/32
f 56/1/39 52/1/35 57/1/40
f 58/1/41 56/1/39 57/1/40
f 59/1/42 49/1/32 56/1/39
f 56/1/39 58/1/41 60/1/43
f 56/1/39 60/1/43 59/1/42
f 61/1/44 60/1/43 58/1/41
f 49/1/32 59/1/42 62/1/42
f 62/1/42 63/1/42 49/1/32
f 50/1/33 49/1/32 63/1/42
f 64/1/42 59/1/42 60/1/43
f 60/1/43 61/1/44 65/1/45
f 60/1/43 65/1/45 64/1/42
f 66/1/42 64/1/42 65/1/45
f 67/1/46 65/1/45 61/1/44
f 65/1/45 68/1/42 66/1/42
f 65/1/45 67/1/46 69/1/47
f 65/1/45 69/1/47 68/1/42
f 70/1/48 71/1/49 72/1/50
f 71/1/49 70/1/48 73/1/51
f 72/1/50 74/1/52 70/1/48
f 73/1/51 75/1/53 71/1/49
f 75/1/53 73/1/51 76/1/54
f 72/1/50 71/1/49 77/1/55
f 78/1/55 77/1/55 71/1/49
f 75/1/53 78/1/55 71/1/49
f 78/1/55 75/1/53 79/1/55
f 75/1/53 80/1/55 79/1/55
f 76/1/54 81/1/56 75/1/53
f 80/1/55 75/1/53 81/1/56
f 81/1/56 76/1/54 82/1/57
f 81/1/56 83/1/55 80/1/55
f 84/1/58 81/1/56 82/1/57
f 81/1/56 85/1/59 83/1/55
f 81/1/56 84/1/58 85/1/59
f 86/1/55 83/1/55 85/1/59
f 87/1/60 85/1/59 84/1/58
f 85/1/59 88/1/61 86/1/55
f 85/1/59 87/1/60 88/1/61
f 69/1/47 67/1/46 89/1/62
f 69/1/47 90/1/42 68/1/42
f 69/1/47 89/1/62 91/1/63
f 89/1/62 92/1/64 91/1/63
f 91/1/63 92/1/64 93/1/65
f 93/1/65 69/1/47 91/1/63
f 92/1/64 94/1/66 93/1/65
f 69/1/47 93/1/65 94/1/66
f 94/1/66 92/1/64 95/1/67
f 90/1/42 69/1/47 96/1/42
f 96/1/42 97/1/42 90/1/42
f 98/1/42 90/1/42 97/1/42
f 96/1/42 69/1/47 99/1/68
f 100/1/42 98/1/42 97/1/42
f 69/1/47 94/1/66 99/1/68
f 101/1/42 98/1/42 100/1/42
f 102/1/42 101/1/42 100/1/42
f 103/1/42 101/1/42 102/1/42
f 102/1/42 104/1/42 103/1/42
f 104/1/42 102/1/42 105/1/42
f 105/1/42 106/1/42 104/1/42
f 106/1/42 105/1/42 107/1/42
f 107/1/42 50/1/33 106/1/42
f 106/1/42 50/1/33 63/1/42
f 50/1/33 107/1/42 108/1/68
f 109/1/69 50/1/33 108/1/68
f 109/1/69 53/1/36 50/1/33
f 109/1/69 108/1/68 110/1/42
f 108/1/68 111/1/42 110/1/42
f 111/1/42 108/1/68 112/1/42
f 112/1/42 113/1/42 111/1/42
f 113/1/42 112/1/42 114/1/42
f 114/1/42 115/1/42 113/1/42
f 113/1/42 115/1/42 116/1/42
f 115/1/42 117/1/42 116/1/42
f 116/1/42 117/1/42 118/1/42
f 117/1/42 99/1/68 118/1/42
f 119/1/42 118/1/42 99/1/68
f 99/1/68 94/1/66 119/1/42
f 94/1/66 120/1/42 119/1/42
f 121/1/70 120/1/42 94/1/66
f 122/1/42 120/1/42 121/1/70
f 94/1/66 123/1/71 121/1/70
f 123/1/71 94/1/66 95/1/67
f 124/1/72 121/1/70 123/1/71
f 125/1/73 122/1/42 121/1/70
f 121/1/70 124/1/72 125/1/73
f 122/1/42 125/1/73 126/1/42
f 125/1/73 127/1/42 126/1/42
f 124/1/72 128/1/74 125/1/73
f 127/1/42 125/1/73 128/1/74
f 128/1/74 124/1/72 129/1/75
f 128/1/74 130/1/42 127/1/42
f 129/1/75 131/1/76 128/1/74
f 130/1/42 128/1/74 131/1/76
f 131/1/76 129/1/75 132/1/77
f 133/1/42 130/1/42 131/1/76
f 132/1/77 109/1/69 131/1/76
f 131/1/76 109/1/69 133/1/42
f 109/1/69 110/1/42 133/1/42
f 132/1/77 134/1/78 109/1/69
f 135/1/79 109/1/69 134/1/78
f 136/1/80 135/1/79 134/1/78
f 53/1/36 109/1/69 135/1/79
f 137/1/81 135/1/79 136/1/80
f 135/1/79 137/1/81 138/1/82
f 138/1/82 53/1/36 135/1/79
f 139/1/83 138/1/82 137/1/81
f 138/1/82 139/1/83 140/1/84
f 53/1/36 138/1/82 141/1/85
f 140/1/84 141/1/85 138/1/82
f 55/1/38 53/1/36 141/1/85
f 141/1/85 140/1/84 142/1/86
f 141/1/85 143/1/87 55/1/38
f 143/1/87 141/1/85 142/1/86
f 88/1/61 144/1/55 86/1/55
f 88/1/61 145/1/55 144/1/55
f 145/1/55 146/1/55 144/1/55
f 147/1/55 144/1/55 146/1/55
f 147/1/55 146/1/55 148/1/55
f 149/1/55 147/1/55 148/1/55
f 150/1/55 149/1/55 148/1/55
f 149/1/55 150/1/55 151/1/55
f 150/1/55 152/1/55 151/1/55
f 152/1/55 150/1/55 153/1/55
f 153/1/55 154/1/55 152/1/55
f 154/1/55 153/1/55 155/1/55
f 155/1/55 72/1/50 154/1/55
f 154/1/55 72/1/50 77/1/55
f 156/1/88 72/1/50 155/1/55
f 72/1/50 156/1/88 157/1/89
f 157/1/89 156/1/88 158/1/55
f 156/1/88 159/1/55 158/1/55
f 159/1/55 156/1/88 160/1/55
f 160/1/55 161/1/55 159/1/55
f 161/1/55 160/1/55 162/1/55
f 163/1/55 161/1/55 162/1/55
f 161/1/55 163/1/55 164/1/55
f 165/1/55 164/1/55 163/1/55
f 164/1/55 165/1/55 166/1/55
f 165/1/55 167/1/88 166/1/55
f 166/1/55 167/1/88 168/1/55
f 157/1/89 158/1/55 169/1/55
f 170/1/90 168/1/55 167/1/88
f 170/1/90 171/1/55 168/1/55
f 88/1/61 167/1/88 145/1/55
f 167/1/88 88/1/61 170/1/90
f 172/1/91 170/1/90 88/1/61
f 87/1/60 172/1/91 88/1/61
f 172/1/91 87/1/60 173/1/92
f 174/1/93 172/1/91 173/1/92
f 172/1/91 174/1/93 175/1/94
f 176/1/95 175/1/94 174/1/93
f 175/1/94 176/1/95 177/1/96
f 178/1/97 175/1/94 177/1/96
f 175/1/94 178/1/97 179/1/98
f 179/1/98 172/1/91 175/1/94
f 180/1/99 179/1/98 178/1/97
f 179/1/98 180/1/99 181/1/100
f 172/1/91 179/1/98 182/1/101
f 182/1/101 179/1/98 181/1/100
f 172/1/91 182/1/101 170/1/90
f 182/1/101 181/1/100 183/1/102
f 184/1/103 182/1/101 183/1/102
f 182/1/101 184/1/103 170/1/90
f 185/1/104 170/1/90 184/1/103
f 170/1/90 185/1/104 186/1/105
f 170/1/90 186/1/105 171/1/55
f 187/1/106 186/1/105 185/1/104
f 188/1/55 171/1/55 186/1/105
f 186/1/105 187/1/106 189/1/107
f 186/1/105 189/1/107 188/1/55
f 190/1/55 188/1/55 189/1/107
f 191/1/108 189/1/107 187/1/106
f 189/1/107 192/1/55 190/1/55
f 192/1/55 189/1/107 193/1/109
f 189/1/107 191/1/108 193/1/109
f 193/1/109 194/1/55 192/1/55
f 195/1/110 193/1/109 191/1/108
f 194/1/55 193/1/109 195/1/110
f 169/1/55 194/1/55 195/1/110
f 191/1/108 196/1/111 195/1/110
f 195/1/110 157/1/89 169/1/55
f 157/1/89 195/1/110 196/1/111
f 196/1/111 197/1/112 157/1/89
f 157/1/89 197/1/112 198/1/113
f 198/1/113 199/1/114 157/1/89
f 72/1/50 157/1/89 199/1/114
f 198/1/113 200/1/115 199/1/114
f 72/1/50 199/1/114 200/1/115
f 200/1/115 198/1/113 74/1/52
f 74/1/52 72/1/50 200/1/115
o RenderMesh_12613284768
v -0.040507 -0.190717 -0.069936
v -0.040507 -0.190717 0.069936
v -0.071499 -0.178368 -0.069936
v -0.071499 -0.178368 0.069936
v 0.129308 0.332382 -0.069936
v 0.129308 0.332382 0.069936
v 0.160301 0.320032 -0.069936
v 0.160301 0.320032 0.069936
v 0.073420 -0.236112 -0.069936
v 0.073420 -0.236112 0.069936
v 0.042426 -0.223762 -0.069936
v 0.042426 -0.223762 0.069936
v 0.243234 0.286986 -0.069936
v 0.243234 0.286986 0.069936
v 0.274226 0.274637 -0.069936
v 0.274226 0.274637 0.069936
v -0.154432 -0.145321 -0.069936
v -0.154432 -0.145321 0.069936
v -0.185424 -0.132971 -0.069936
v -0.185424 -0.132971 0.069936
v 0.015382 0.377777 -0.069936
v 0.015382 0.377777 0.069936
v 0.046374 0.365428 -0.069936
v 0.046374 0.365428 0.069936
v 0.274226 0.274637 -0.069936
v 0.274226 0.274637 0.069936
v 0.267569 0.168183 -0.069936
v 0.267569 0.168183 0.069936
v 0.246140 0.052538 -0.069936
v 0.246140 0.052538 0.069936
v 0.203928 -0.054826 -0.069936
v 0.203928 -0.054826 0.069936
v 0.140935 -0.153909 -0.069936
v 0.140935 -0.153909 0.069936
v 0.073420 -0.236112 -0.069936
v 0.073420 -0.236112 0.069936
v 0.008726 0.271323 -0.069936
v 0.008726 0.271323 0.069936
v 0.015382 0.377777 -0.069936
v 0.015382 0.377777 0.069936
v -0.012705 0.155679 0.069936
v -0.012705 0.155679 -0.069936
v -0.054915 0.048315 0.069936
v -0.054915 0.048315 -0.069936
v -0.117909 -0.050768 0.069936
v -0.117909 -0.050768 -0.069936
v -0.185424 -0.132971 0.069936
v -0.185424 -0.132971 -0.069936
v 0.122651 0.225928 0.069936
v 0.160301 0.320032 0.069936
v 0.129308 0.332382 0.069936
v 0.153644 0.213578 0.069936
v 0.101222 0.110283 0.069936
v 0.132214 0.097934 0.069936
v 0.090003 -0.009430 0.069936
v 0.059010 0.002919 0.069936
v 0.027010 -0.108513 0.069936
v -0.003983 -0.096164 0.069936
v -0.040507 -0.190717 0.069936
v -0.071499 -0.178368 0.069936
v 0.160301 0.320032 -0.069936
v 0.122651 0.225928 -0.069936
v 0.129308 0.332382 -0.069936
v 0.153644 0.213578 -0.069936
v 0.101222 0.110283 -0.069936
v 0.132214 0.097934 -0.069936
v 0.090003 -0.009430 -0.069936
v 0.059010 0.002919 -0.069936
v 0.027010 -0.108513 -0.069936
v -0.003983 -0.096164 -0.069936
v -0.040507 -0.190717 -0.069936
v -0.071499 -0.178368 -0.069936
v 0.236577 0.180532 0.069936
v 0.274226 0.274637 0.069936
v 0.243234 0.286986 0.069936
v 0.267569 0.168183 0.069936
v 0.215147 0.064887 0.069936
v 0.246140 0.052538 0.069936
v 0.203928 -0.054826 0.069936
v 0.172935 -0.042476 0.069936
v 0.140935 -0.153909 0.069936
v 0.109943 -0.141561 0.069936
v 0.073420 -0.236112 0.069936
v 0.042426 -0.223762 0.069936
v 0.274226 0.274637 -0.069936
v 0.236577 0.180532 -0.069936
v 0.243234 0.286986 -0.069936
v 0.267569 0.168183 -0.069936
v 0.215147 0.064887 -0.069936
v 0.246140 0.052538 -0.069936
v 0.203928 -0.054826 -0.069936
v 0.172935 -0.042476 -0.069936
v 0.140935 -0.153909 -0.069936
v 0.109943 -0.141561 -0.069936
v 0.073420 -0.236112 -0.069936
v 0.042426 -0.223762 -0.069936
v 0.008726 0.271323 0.069936
v 0.046374 0.365428 0.069936
v 0.015382 0.377777 0.069936
v 0.039718 0.258974 0.069936
v -0.012705 0.155679 0.069936
v 0.018289 0.143329 0.069936
v -0.023923 0.035965 0.069936
v -0.054915 0.048315 0.069936
v -0.086916 -0.063118 0.069936
v -0.117909 -0.050768 0.069936
v -0.154432 -0.145321 0.069936
v -0.185424 -0.132971 0.069936
v 0.046374 0.365428 -0.069936
v 0.008726 0.271323 -0.069936
v 0.015382 0.377777 -0.069936
v 0.039718 0.258974 -0.069936
v -0.012705 0.155679 -0.069936
v 0.018289 0.143329 -0.069936
v -0.023923 0.035965 -0.069936
v -0.054915 0.048315 -0.069936
v -0.086916 -0.063118 -0.069936
v -0.117909 -0.050768 -0.069936
v -0.154432 -0.145321 -0.069936
v -0.185424 -0.132971 -0.069936
v 0.160301 0.320032 -0.069936
v 0.160301 0.320032 0.069936
v 0.153644 0.213578 -0.069936
v 0.153644 0.213578 0.069936
v 0.132214 0.097934 -0.069936
v 0.132214 0.097934 0.069936
v 0.090003 -0.009430 -0.069936
v 0.090003 -0.009430 0.069936
v 0.027010 -0.108513 -0.069936
v 0.027010 -0.108513 0.069936
v -0.040507 -0.190717 -0.069936
v -0.040507 -0.190717 0.069936
v 0.122651 0.225928 -0.069936
v 0.122651 0.225928 0.069936
v 0.129308 0.332382 -0.069936
v 0.129308 0.332382 0.069936
v 0.101222 0.110283 0.069936
v 0.101222 0.110283 -0.069936
v 0.059010 0.002919 0.069936
v 0.059010 0.002919 -0.069936
v -0.003983 -0.096164 0.069936
v -0.003983 -0.096164 -0.069936
v -0.071499 -0.178368 0.069936
v -0.071499 -0.178368 -0.069936
v 0.046374 0.365428 0.069936
v 0.039718 0.258974 -0.069936
v 0.046374 0.365428 -0.069936
v 0.039718 0.258974 0.069936
v 0.018289 0.143329 -0.069936
v 0.018289 0.143329 0.069936
v -0.023923 0.035965 -0.069936
v -0.023923 0.035965 0.069936
v -0.086916 -0.063118 -0.069936
v -0.086916 -0.063118 0.069936
v -0.154432 -0.145321 -0.069936
v -0.154432 -0.145321 0.069936
v 0.236577 0.180532 -0.069936
v 0.236577 0.180532 0.069936
v 0.243234 0.286986 -0.069936
v 0.243234 0.286986 0.069936
v 0.215147 0.064887 0.069936
v 0.215147 0.064887 -0.069936
v 0.172935 -0.042476 0.069936
v 0.172935 -0.042476 -0.069936
v 0.109943 -0.141561 0.069936
v 0.109943 -0.141561 -0.069936
v 0.042426 -0.223762 0.069936
v 0.042426 -0.223762 -0.069936
vn -0.3702 -0.9290 -0.0000
vn 0.3702 0.9290 -0.0000
vn 0.9981 -0.0624 -0.0000
vn 0.9925 -0.1225 -0.0000
vn 0.9614 -0.2753 -0.0000
vn 0.8914 -0.4533 -0.0000
vn 0.8098 -0.5867 -0.0000
vn 0.7728 -0.6347 -0.0000
vn -0.9925 0.1225 -0.0000
vn -0.9981 0.0624 -0.0000
vn -0.9614 0.2753 -0.0000
vn -0.8914 0.4533 -0.0000
vn -0.8098 0.5867 -0.0000
vn -0.7728 0.6347 -0.0000
vn -0.0000 -0.0000 1.0000
vn -0.0000 -0.0000 -1.0000
vt 0.000000 0.000000
s 1
f 201/2/116 202/2/116 203/2/116
f 203/2/116 202/2/116 204/2/116
f 205/2/117 206/2/117 207/2/117
f 207/2/117 206/2/117 208/2/117
f 209/2/116 210/2/116 211/2/116
f 211/2/116 210/2/116 212/2/116
f 213/2/117 214/2/117 215/2/117
f 215/2/117 214/2/117 216/2/117
f 217/2/116 218/2/116 219/2/116
f 219/2/116 218/2/116 220/2/116
f 221/2/117 222/2/117 223/2/117
f 223/2/117 222/2/117 224/2/117
f 225/2/118 226/2/118 227/2/119
f 227/2/119 226/2/118 228/2/119
f 227/2/119 228/2/119 229/2/120
f 229/2/120 228/2/119 230/2/120
f 229/2/120 230/2/120 231/2/121
f 231/2/121 230/2/120 232/2/121
f 231/2/121 232/2/121 233/2/122
f 233/2/122 232/2/121 234/2/122
f 233/2/122 234/2/122 235/2/123
f 235/2/123 234/2/122 236/2/123
f 237/2/124 238/2/124 239/2/125
f 239/2/125 238/2/124 240/2/125
f 237/2/124 241/2/126 238/2/124
f 242/2/126 241/2/126 237/2/124
f 242/2/126 243/2/127 241/2/126
f 244/2/127 243/2/127 242/2/126
f 244/2/127 245/2/128 243/2/127
f 246/2/128 245/2/128 244/2/127
f 246/2/128 247/2/129 245/2/128
f 248/2/129 247/2/129 246/2/128
f 249/2/130 250/2/130 251/2/130
f 250/2/130 249/2/130 252/2/130
f 253/2/130 252/2/130 249/2/130
f 252/2/130 253/2/130 254/2/130
f 255/2/130 254/2/130 253/2/130
f 253/2/130 256/2/130 255/2/130
f 257/2/130 255/2/130 256/2/130
f 256/2/130 258/2/130 257/2/130
f 259/2/130 257/2/130 258/2/130
f 258/2/130 260/2/130 259/2/130
f 261/2/131 262/2/131 263/2/131
f 262/2/131 261/2/131 264/2/131
f 264/2/131 265/2/131 262/2/131
f 265/2/131 264/2/131 266/2/131
f 267/2/131 265/2/131 266/2/131
f 265/2/131 267/2/131 268/2/131
f 269/2/131 268/2/131 267/2/131
f 268/2/131 269/2/131 270/2/131
f 271/2/131 270/2/131 269/2/131
f 270/2/131 271/2/131 272/2/131
f 273/2/130 274/2/130 275/2/130
f 274/2/130 273/2/130 276/2/130
f 277/2/130 276/2/130 273/2/130
f 276/2/130 277/2/130 278/2/130
f 279/2/130 278/2/130 277/2/130
f 277/2/130 280/2/130 279/2/130
f 281/2/130 279/2/130 280/2/130
f 280/2/130 282/2/130 281/2/130
f 283/2/130 281/2/130 282/2/130
f 282/2/130 284/2/130 283/2/130
f 285/2/131 286/2/131 287/2/131
f 286/2/131 285/2/131 288/2/131
f 288/2/131 289/2/131 286/2/131
f 289/2/131 288/2/131 290/2/131
f 291/2/131 289/2/131 290/2/131
f 289/2/131 291/2/131 292/2/131
f 293/2/131 292/2/131 291/2/131
f 292/2/131 293/2/131 294/2/131
f 295/2/131 294/2/131 293/2/131
f 294/2/131 295/2/131 296/2/131
f 297/2/130 298/2/130 299/2/130
f 298/2/130 297/2/130 300/2/130
f 301/2/130 300/2/130 297/2/130
f 300/2/130 301/2/130 302/2/130
f 303/2/130 302/2/130 301/2/130
f 301/2/130 304/2/130 303/2/130
f 305/2/130 303/2/130 304/2/130
f 304/2/130 306/2/130 305/2/130
f 307/2/130 305/2/130 306/2/130
f 306/2/130 308/2/130 307/2/130
f 309/2/131 310/2/131 311/2/131
f 310/2/131 309/2/131 312/2/131
f 312/2/131 313/2/131 310/2/131
f 313/2/131 312/2/131 314/2/131
f 315/2/131 313/2/131 314/2/131
f 313/2/131 315/2/131 316/2/131
f 317/2/131 316/2/131 315/2/131
f 316/2/131 317/2/131 318/2/131
f 319/2/131 318/2/131 317/2/131
f 318/2/131 319/2/131 320/2/131
f 321/2/118 322/2/118 323/2/119
f 323/2/119 322/2/118 324/2/119
f 324/2/119 325/2/120 323/2/119
f 325/2/120 324/2/119 326/2/120
f 325/2/120 326/2/120 327/2/121
f 327/2/121 326/2/120 328/2/121
f 327/2/121 328/2/121 329/2/122
f 329/2/122 328/2/121 330/2/122
f 330/2/122 331/2/123 329/2/122
f 331/2/123 330/2/122 332/2/123
f 333/2/124 334/2/124 335/2/125
f 335/2/125 334/2/124 336/2/125
f 333/2/124 337/2/126 334/2/124
f 338/2/126 337/2/126 333/2/124
f 338/2/126 339/2/127 337/2/126
f 340/2/127 339/2/127 338/2/126
f 340/2/127 341/2/128 339/2/127
f 342/2/128 341/2/128 340/2/127
f 342/2/128 343/2/129 341/2/128
f 344/2/129 343/2/129 342/2/128
f 345/2/118 346/2/119 347/2/118
f 346/2/119 345/2/118 348/2/119
f 346/2/119 348/2/119 349/2/120
f 349/2/120 348/2/119 350/2/120
f 349/2/120 350/2/120 351/2/121
f 351/2/121 350/2/120 352/2/121
f 351/2/121 352/2/121 353/2/122
f 353/2/122 352/2/121 354/2/122
f 353/2/122 354/2/122 355/2/123
f 355/2/123 354/2/122 356/2/123
f 357/2/124 358/2/124 359/2/125
f 359/2/125 358/2/124 360/2/125
f 357/2/124 361/2/126 358/2/124
f 362/2/126 361/2/126 357/2/124
f 362/2/126 363/2/127 361/2/126
f 364/2/127 363/2/127 362/2/126
f 364/2/127 365/2/128 363/2/127
f 366/2/128 365/2/128 364/2/127
f 366/2/128 367/2/129 365/2/128
f 368/2/129 367/2/129 366/2/128
