# Blender 5.2.0 LTS
# www.blender.org
mtllib notnicewrapthing.mtl
o RenderMesh_95391976125402
v 1.304420 -0.306349 0.000000
v 1.290496 -0.271308 -0.122911
v 1.350135 -0.218966 -0.077195
v 1.350137 0.144374 -0.175587
v 1.383287 -0.236930 0.000000
v 1.402344 0.144374 -0.123418
v 1.350135 -0.218966 0.077195
v 1.290496 -0.271308 0.122911
v 1.439783 0.148847 -0.000000
v 1.350137 0.144374 0.175587
v 1.341273 0.297053 -0.076236
v 1.270103 0.344374 -0.113824
v 1.281006 0.380469 -0.000000
v 1.402344 0.144374 0.123418
v 1.370539 0.320828 -0.000000
v 1.341273 0.297053 0.076236
v 1.270103 0.344374 0.113824
v -1.643705 0.062405 0.034291
v -1.646571 0.064628 -0.000000
v -1.643705 0.048201 -0.000000
v -1.643705 0.062405 -0.034291
v -1.646571 0.074021 0.022676
v -1.646571 0.074021 -0.022676
v -1.625573 0.037581 -0.000000
v -1.625573 0.054895 0.041801
v -1.625573 0.054895 -0.041801
v -1.625573 0.096696 0.059115
v -1.625573 0.096696 -0.059115
v -1.643705 0.096696 -0.048495
v -1.646571 0.096696 -0.032068
v -1.646571 0.119371 -0.022676
v -1.643705 0.130986 -0.034291
v -1.625573 0.138497 -0.041801
v -1.646571 0.128764 -0.000000
v -1.625573 0.155811 -0.000000
v -1.643705 0.145191 -0.000000
v -1.643705 0.130986 0.034291
v -1.625573 0.138497 0.041801
v -1.646571 0.119371 0.022676
v -1.643705 0.096696 0.048495
v -1.646571 0.096696 0.032068
v -1.646571 0.128764 -0.000000
v -1.646571 0.119371 -0.022676
v -1.564069 0.096696 -0.000000
v -1.646571 0.096696 -0.032068
v -1.646571 0.119371 0.022676
v -1.646571 0.074021 -0.022676
v -1.646571 0.096696 0.032068
v -1.646571 0.064628 -0.000000
v -1.646571 0.074021 0.022676
v -0.945780 0.458078 -0.000000
v -0.945780 0.416973 0.035202
v -0.945780 0.465763 0.018554
v -0.945780 0.484316 0.035202
v -0.945780 0.484316 0.026240
v -0.945780 0.416973 -0.035202
v -0.945780 0.465763 -0.018554
v -0.945780 0.484316 -0.035202
v -0.945780 0.484316 -0.026240
v -0.939954 0.483898 -0.000579
v -0.939954 0.447451 -0.011454
v -0.939954 0.447451 0.011454
v -0.939954 0.483898 0.000579
v 0.050511 -0.581786 -0.089790
v 0.010008 -0.591041 0.054999
v 0.010008 -0.591041 -0.054439
v 0.050511 -0.581786 0.090350
v 0.286445 -0.523550 -0.089790
v 0.286445 -0.523550 0.090350
v 0.348948 -0.508932 0.037500
v 0.348948 -0.508932 -0.036940
v 0.372635 0.524391 -0.022308
v 0.372635 0.524391 0.022308
v 0.372635 0.515987 -0.000000
v 0.372635 0.508302 0.018554
v 0.372635 0.508302 -0.018554
v 0.372635 0.511736 0.034965
v 0.372635 0.511736 -0.034965
v 0.372635 0.489748 0.026240
v 0.372635 0.489748 -0.026240
v 0.372635 0.446266 0.034965
v 0.372635 0.446266 -0.034965
v 0.372635 0.471192 0.018554
v 0.372635 0.471192 -0.018554
v 0.372635 0.463507 -0.000000
v -0.031835 -0.498285 -0.060518
v -0.026416 -0.475137 0.058375
v -0.026416 -0.475137 -0.057815
v 0.013167 -0.488000 -0.099797
v 0.016343 -0.465381 -0.095058
v -0.031835 -0.498285 0.061079
v -0.015298 -0.566303 -0.060518
v 0.013167 -0.488000 0.100358
v 0.016343 -0.465381 0.095618
v 0.275317 -0.423294 -0.099797
v 0.264904 -0.404030 -0.095058
v 0.330848 -0.388625 -0.038932
v 0.344764 -0.407053 -0.041075
v 0.330848 -0.388625 0.039492
v 0.291854 -0.491314 -0.099797
v 0.029705 -0.556019 -0.099797
v 0.010008 -0.591041 -0.054439
v 0.050511 -0.581786 -0.089790
v 0.010008 -0.591041 0.054999
v 0.286445 -0.523550 -0.089790
v 0.348948 -0.508932 -0.036940
v 0.361301 -0.475071 -0.041075
v 0.348948 -0.508932 0.037500
v -0.015298 -0.566303 0.061079
v 0.029705 -0.556019 0.100358
v 0.050511 -0.581786 0.090350
v 0.291854 -0.491314 0.100358
v 0.286445 -0.523550 0.090350
v 0.275317 -0.423294 0.100358
v 0.264904 -0.404030 0.095618
v 0.344764 -0.407053 0.041636
v 0.361301 -0.475071 0.041636
v 0.352987 0.524391 -0.022308
v 0.352987 0.524391 0.022308
v 0.372635 0.524391 -0.022308
v 0.372635 0.524391 0.022308
v 0.372635 0.511736 -0.034965
v 0.352987 0.511736 0.034965
v 0.352987 0.511736 -0.034965
v 0.352987 0.446266 -0.034965
v 0.372635 0.446266 -0.034965
v 0.372635 0.511736 0.034965
v 0.372635 0.446266 0.034965
v 0.352987 0.446266 0.034965
v -0.945780 0.484316 -0.035202
v -0.926133 0.484316 -0.026240
v -0.926133 0.484316 -0.035202
v -0.945780 0.484316 -0.026240
v -0.945780 0.484316 0.035202
v -0.926133 0.484316 0.035202
v -0.945780 0.484316 0.026240
v -0.926133 0.484316 0.026240
v -0.933147 0.483898 -0.000579
v -0.939954 0.483898 -0.000579
v -0.939954 0.483898 0.000579
v -0.933147 0.483898 0.000579
v -0.926133 0.484316 0.026240
v -0.945780 0.465763 0.018554
v -0.945780 0.484316 0.026240
v -0.926133 0.465763 0.018554
v -0.945780 0.458078 -0.000000
v -0.926133 0.458078 -0.000000
v -0.945780 0.465763 -0.018554
v -0.926133 0.465763 -0.018554
v -0.926133 0.484316 -0.026240
v -0.945780 0.484316 -0.026240
v -1.039638 -0.156799 -0.112000
v -1.097656 -0.167833 -0.063173
v -1.097656 -0.120671 -0.112000
v -1.097656 -0.120671 0.112000
v -0.382784 -0.120671 -0.112000
v -1.097656 -0.167833 0.063173
v -1.059862 -0.205626 -0.063173
v -1.039638 -0.156799 0.112000
v -1.059862 -0.205626 0.063173
v -0.382784 -0.120671 0.112000
v -0.432605 -0.205626 0.063173
v -0.432605 -0.205626 -0.063173
v -0.402208 -0.156799 -0.112000
v -0.363639 -0.145202 -0.079865
v -0.347656 -0.120671 -0.079774
v -0.380576 -0.178298 -0.048248
v -0.347656 -0.120671 0.079774
v -0.380576 -0.178298 0.048248
v -0.363639 -0.145202 0.079865
v -0.402208 -0.156799 0.112000
v 0.151691 0.207667 0.050282
v -0.490932 0.193890 0.047651
v -0.497688 0.207588 0.050282
v -0.497688 0.207588 -0.050282
v 0.144938 0.193964 0.047651
v 0.151691 0.207667 -0.050282
v -0.490932 0.193890 -0.047651
v 0.144938 0.193964 -0.047651
v -0.939954 0.483898 0.000579
v -0.939954 0.447451 0.011454
v -0.933147 0.447451 0.011454
v -0.933147 0.483898 0.000579
v -0.933147 0.483898 -0.000579
v -0.939954 0.447451 -0.011454
v -0.939954 0.483898 -0.000579
v -0.933147 0.447451 -0.011454
v -0.587857 0.038532 -0.114683
v -0.455850 0.038532 -0.113457
v -0.587857 -0.064776 -0.101960
v -0.601817 0.043995 -0.141830
v -0.601817 -0.081159 -0.122468
v -0.576115 0.071877 -0.120523
v -0.587590 0.084392 -0.150718
v -0.556724 0.117136 -0.157697
v -0.455850 -0.064776 -0.101960
v -0.441892 -0.081159 -0.122468
v -0.441892 0.043995 -0.139965
v -0.467592 0.071877 -0.119515
v -0.456117 0.084392 -0.149185
v -0.486982 0.117136 -0.156883
v -0.493070 0.098906 -0.124574
v -0.521854 0.131493 -0.154033
v -0.550637 0.098906 -0.125108
v -0.521854 0.110756 -0.122701
v -0.917589 0.084392 -0.155420
v -0.906115 0.071877 -0.124066
v -0.931816 0.043995 -0.146533
v -0.886724 0.117136 -0.162399
v -0.917857 0.038532 -0.118226
v -0.917857 -0.064776 -0.102413
v -0.931816 -0.081159 -0.122468
v -0.785850 0.038532 -0.117000
v -0.785850 -0.064776 -0.102413
v -0.771891 -0.081159 -0.122468
v -0.771891 0.043995 -0.144667
v -0.797592 0.071877 -0.123058
v -0.786116 0.084392 -0.153887
v -0.816981 0.117136 -0.161586
v -0.823070 0.098906 -0.128117
v -0.851853 0.131493 -0.155174
v -0.851853 0.110756 -0.123904
v -0.880637 0.098906 -0.128651
v -0.550637 0.098906 0.105539
v -0.587590 0.084392 0.133117
v -0.576115 0.071877 0.104181
v -0.556724 0.117136 0.135184
v -0.521852 0.131491 0.136097
v -0.601817 0.043995 0.130575
v -0.521852 0.110756 0.106139
v -0.493070 0.098906 0.105554
v -0.486982 0.117136 0.135206
v -0.456117 0.084392 0.133160
v -0.467592 0.071877 0.104209
v -0.441892 0.043995 0.130627
v -0.587857 0.038532 0.102511
v -0.455850 0.038532 0.102545
v -0.455850 -0.064776 0.097184
v -0.441892 -0.081159 0.122468
v -0.587857 -0.064776 0.097184
v -0.601817 -0.081159 0.122468
v -0.797592 0.071877 0.104110
v -0.785850 0.038532 0.102445
v -0.771891 0.043995 0.130497
v -0.786116 0.084392 0.133029
v -0.785850 -0.064776 0.097170
v -0.771891 -0.081159 0.122468
v -0.917857 -0.064776 0.097170
v -0.931816 -0.081159 0.122468
v -0.931816 0.043995 0.130445
v -0.917857 0.038532 0.102411
v -0.906115 0.071877 0.104082
v -0.917589 0.084392 0.132987
v -0.823070 0.098906 0.105455
v -0.816983 0.117136 0.135076
v -0.851853 0.131491 0.135967
v -0.880637 0.098906 0.105440
v -0.886724 0.117136 0.135054
v -0.851853 0.110756 0.106040
v 0.066716 -0.263512 0.084979
v 0.104394 -0.268657 0.077710
v 0.096064 -0.238308 0.086225
v 0.134082 -0.245461 0.087319
v 0.092019 -0.282226 0.076588
v 0.046790 -0.308400 0.083771
v 0.121670 -0.274381 0.078696
v 0.173783 -0.274372 0.088318
v 0.152237 -0.455978 0.063420
v 0.077482 -0.315361 0.075499
v 0.150742 -0.295811 0.079595
v 0.171078 -0.330912 0.080007
v 0.201478 -0.322766 0.088775
v 0.230767 -0.432076 0.088757
v 0.200368 -0.440222 0.079991
v 0.076509 -0.353975 0.074934
v 0.105872 -0.462262 0.075189
v 0.046282 -0.361467 0.083141
v 0.075473 -0.470407 0.083426
v 0.171078 -0.330912 -0.079450
v 0.230767 -0.432076 -0.088196
v 0.200368 -0.440222 -0.079433
v 0.201478 -0.322766 -0.088214
v 0.173783 -0.274372 -0.087849
v 0.152237 -0.455978 -0.062907
v 0.150741 -0.295809 -0.079120
v 0.121672 -0.274382 -0.078218
v 0.134082 -0.245461 -0.086848
v 0.104393 -0.268658 -0.077181
v 0.096064 -0.238308 -0.085696
v 0.066716 -0.263512 -0.084519
v 0.092017 -0.282228 -0.076120
v 0.046790 -0.308400 -0.083325
v 0.077483 -0.315359 -0.075045
v 0.076508 -0.353969 -0.074391
v 0.105872 -0.462262 -0.074631
v 0.046282 -0.361466 -0.082580
v 0.075473 -0.470407 -0.082866
v -0.926133 0.416973 0.035202
v -0.945780 0.484316 0.035202
v -0.945780 0.416973 0.035202
v -0.926133 0.484316 0.035202
v -0.945780 0.416973 -0.035202
v -0.945780 0.484316 -0.035202
v -0.926133 0.484316 -0.035202
v -0.926133 0.416973 -0.035202
v 0.372635 0.489748 0.026240
v 0.352987 0.471192 0.018554
v 0.352987 0.489748 0.026240
v 0.372635 0.471192 0.018554
v 0.372635 0.508302 0.018554
v 0.352987 0.463507 -0.000000
v 0.352987 0.508302 0.018554
v 0.372635 0.463507 -0.000000
v 0.352987 0.515987 -0.000000
v 0.352987 0.471192 -0.018554
v 0.372635 0.515987 -0.000000
v 0.372635 0.471192 -0.018554
v 0.352987 0.508302 -0.018554
v 0.372635 0.489748 -0.026240
v 0.372635 0.508302 -0.018554
v 0.352987 0.489748 -0.026240
v -1.625573 0.138497 0.041801
v -1.028249 0.138497 0.041801
v -1.625573 0.155811 -0.000000
v -1.028249 0.155811 -0.000000
v -1.028249 0.096696 0.059115
v -1.625573 0.138497 -0.041801
v -1.625573 0.096696 0.059115
v -1.028249 0.138497 -0.041801
v -1.028249 0.054895 0.041801
v -1.625573 0.096696 -0.059115
v -1.625573 0.054895 0.041801
v -1.028249 0.096696 -0.059115
v -1.028249 0.037581 -0.000000
v -1.625573 0.054895 -0.041801
v -1.625573 0.037581 -0.000000
v -1.028249 0.054895 -0.041801
v -0.933147 0.447451 -0.011454
v -0.933147 0.447451 0.011454
v -0.939954 0.447451 -0.011454
v -0.939954 0.447451 0.011454
v 0.264904 -0.404030 -0.095058
v 0.264904 -0.404030 0.095618
v 0.330848 -0.388625 -0.038932
v 0.330848 -0.388625 0.039492
v 0.016343 -0.465381 -0.095058
v 0.016343 -0.465381 0.095618
v -0.026416 -0.475137 -0.057815
v -0.026416 -0.475137 0.058375
v 0.352987 0.463507 -0.000000
v 0.352987 0.446266 0.034965
v 0.352987 0.471192 0.018554
v 0.352987 0.489748 0.026240
v 0.352987 0.446266 -0.034965
v 0.352987 0.511736 0.034965
v 0.352987 0.471192 -0.018554
v 0.352987 0.508302 0.018554
v 0.352987 0.489748 -0.026240
v 0.352987 0.524391 0.022308
v 0.352987 0.511736 -0.034965
v 0.352987 0.515987 -0.000000
v 0.352987 0.508302 -0.018554
v 0.352987 0.524391 -0.022308
v -0.926133 0.484316 0.035202
v -0.926133 0.465763 0.018554
v -0.926133 0.484316 0.026240
v -0.926133 0.416973 0.035202
v -0.926133 0.458078 -0.000000
v -0.926133 0.416973 -0.035202
v -0.926133 0.465763 -0.018554
v -0.926133 0.484316 -0.035202
v -0.926133 0.484316 -0.026240
v -0.933147 0.483898 0.000579
v -0.933147 0.447451 -0.011454
v -0.933147 0.483898 -0.000579
v -0.933147 0.447451 0.011454
v 1.212587 -0.274123 -0.122911
v 1.234906 0.139885 -0.000000
v 1.272344 0.144374 -0.175587
v 1.192344 0.344374 -0.113824
v 1.184554 -0.299340 0.000000
v 1.161119 0.365513 -0.000000
v 1.212587 -0.274123 0.122911
v 1.192344 0.344374 0.113824
v 1.272344 0.144374 0.175587
v 1.212587 -0.274123 -0.122911
v 1.290496 -0.271308 -0.122911
v 1.304420 -0.306349 0.000000
v 1.184554 -0.299340 0.000000
v 1.272344 0.144374 -0.175587
v 1.212587 -0.274123 0.122911
v 1.350137 0.144374 -0.175587
v 1.290496 -0.271308 0.122911
v 1.270103 0.344374 -0.113824
v 1.272344 0.144374 0.175587
v 1.192344 0.344374 -0.113824
v 1.350137 0.144374 0.175587
v 1.281006 0.380469 -0.000000
v 1.270103 0.344374 0.113824
v 1.161119 0.365513 -0.000000
v 1.192344 0.344374 0.113824
vn 0.7235 -0.6903 0.0005
vn 0.7195 -0.4645 -0.5163
vn 0.7978 -0.3581 -0.4851
vn 0.6998 0.1421 -0.7001
vn 0.8941 -0.4478 0.0005
vn 0.8313 0.1236 -0.5420
vn 0.7978 -0.3581 0.4851
vn 0.7195 -0.4645 0.5163
vn 0.9914 0.1312 -0.0000
vn 0.6998 0.1421 0.7001
vn 0.7022 0.5419 -0.4618
vn 0.6110 0.6295 -0.4801
vn 0.6142 0.7891 0.0005
vn 0.8313 0.1236 0.5420
vn 0.7840 0.6208 0.0005
vn 0.7022 0.5419 0.4618
vn 0.6110 0.6295 0.4801
vn -0.7740 -0.4478 0.4478
vn -0.9850 -0.1723 0.0004
vn -0.7743 -0.6328 -0.0000
vn -0.7740 -0.4477 -0.4477
vn -0.9851 -0.1215 0.1215
vn -0.9851 -0.1215 -0.1215
vn -0.5054 -0.8629 -0.0000
vn -0.5058 -0.6100 0.6100
vn -0.5054 -0.6101 -0.6101
vn -0.5054 0.0005 0.8629
vn -0.5054 -0.0000 -0.8629
vn -0.7744 0.0004 -0.6327
vn -0.9850 0.0004 -0.1723
vn -0.9851 0.1215 -0.1215
vn -0.7740 0.4477 -0.4477
vn -0.5059 0.6099 -0.6100
vn -0.9850 0.1724 0.0005
vn -0.5054 0.8629 0.0003
vn -0.7744 0.6327 0.0003
vn -0.7740 0.4477 0.4477
vn -0.5054 0.6101 0.6101
vn -0.9851 0.1215 0.1215
vn -0.7744 0.0004 0.6327
vn -0.9850 0.0004 0.1723
vn -0.3622 -0.9321 0.0004
vn -0.3623 -0.6591 0.6591
vn -1.0000 0.0003 0.0003
vn -0.3622 0.0004 0.9321
vn -0.3623 -0.6591 -0.6591
vn -0.3623 0.6591 0.6591
vn -0.3622 0.0004 -0.9321
vn -0.3622 0.9321 0.0005
vn -0.3623 0.6591 -0.6591
vn -1.0000 0.0005 0.0005
vn 0.2359 -0.9718 0.0005
vn 0.2360 -0.9718 0.0005
vn 0.2360 -0.9717 0.0005
vn 1.0000 0.0005 0.0005
vn -0.9156 0.0072 -0.4019
vn -0.8820 0.2535 0.3972
vn -0.8820 0.2535 -0.3972
vn -0.3914 0.0747 -0.9172
vn -0.3338 0.2370 -0.9124
vn -0.9156 0.0073 0.4019
vn -0.7904 -0.4655 -0.3982
vn -0.3914 0.0747 0.9172
vn -0.3337 0.2371 0.9124
vn 0.3046 0.2232 -0.9260
vn 0.2145 0.3444 -0.9140
vn 0.7047 0.5758 -0.4146
vn 0.8211 0.3972 -0.4099
vn 0.7047 0.5758 0.4146
vn 0.3894 -0.1199 -0.9132
vn -0.2985 -0.2974 -0.9069
vn -0.6037 -0.7077 -0.3669
vn -0.1481 -0.4596 -0.8757
vn -0.6037 -0.7078 0.3669
vn 0.3415 -0.3307 -0.8798
vn 0.8474 -0.3571 -0.3929
vn 0.9144 -0.0563 -0.4010
vn 0.8474 -0.3571 0.3929
vn -0.7906 -0.4653 0.3979
vn -0.2984 -0.2974 0.9069
vn -0.1481 -0.4596 0.8757
vn 0.3894 -0.1199 0.9132
vn 0.3416 -0.3308 0.8797
vn 0.3046 0.2232 0.9260
vn 0.2145 0.3444 0.9140
vn 0.8211 0.3972 0.4099
vn 0.9144 -0.0562 0.4009
vn 0.0003 0.9239 -0.3826
vn 0.0005 0.9239 0.3826
vn -0.0000 0.9239 -0.3827
vn 0.0003 0.9239 0.3826
vn 0.0005 0.3826 -0.9239
vn 0.0005 0.3826 0.9239
vn 0.0005 0.0005 -1.0000
vn 0.0006 0.3825 0.9239
vn 0.0005 0.0005 1.0000
vn 0.0005 1.0000 0.0005
vn 0.0005 0.7071 -0.7071
vn 0.0004 0.7071 0.7071
vn 0.0005 0.7071 0.7071
vn -0.1373 -0.4128 -0.9004
vn -0.8522 -0.4488 -0.2691
vn -0.6505 -0.3485 -0.6749
vn -0.6505 -0.3485 0.6749
vn 0.4479 -0.2603 -0.8553
vn -0.8522 -0.4488 0.2691
vn -0.3395 -0.8710 -0.3552
vn -0.1373 -0.4129 0.9004
vn -0.3395 -0.8710 0.3551
vn 0.4479 -0.2603 0.8553
vn 0.2204 -0.9125 0.3446
vn 0.2204 -0.9125 -0.3446
vn 0.2956 -0.4657 -0.8341
vn 0.7507 -0.5475 -0.3697
vn 0.8244 -0.4784 -0.3025
vn 0.6708 -0.7265 -0.1490
vn 0.8244 -0.4784 0.3025
vn 0.6708 -0.7265 0.1490
vn 0.7507 -0.5475 0.3697
vn 0.2956 -0.4657 0.8341
vn -0.6739 0.4451 -0.5897
vn 0.4205 0.7331 -0.5346
vn 0.6738 0.4451 -0.5898
vn 0.6737 0.4452 0.5898
vn -0.4207 0.7329 -0.5346
vn -0.6740 0.4450 0.5896
vn 0.4205 0.7331 0.5346
vn -0.4207 0.7329 0.5346
vn 0.0003 0.2859 0.9583
vn 0.0003 0.2859 -0.9583
vn 0.5242 -0.1949 -0.8290
vn -0.5146 -0.1940 -0.8352
vn 0.4041 0.2849 -0.8692
vn 0.8371 -0.2507 -0.4862
vn 0.5565 0.4412 -0.7041
vn 0.4527 -0.3765 -0.8082
vn 0.6821 -0.5473 -0.4849
vn 0.4695 -0.7265 -0.5017
vn -0.3991 0.2867 -0.8709
vn -0.5495 0.4470 -0.7059
vn -0.8329 -0.2496 -0.4939
vn -0.4420 -0.3785 -0.8132
vn -0.6736 -0.5515 -0.4919
vn -0.4588 -0.7305 -0.5058
vn -0.3043 -0.5163 -0.8005
vn 0.0074 -0.8360 -0.5486
vn 0.3151 -0.5154 -0.7969
vn 0.0054 -0.5903 -0.8072
vn 0.6903 -0.5496 -0.4705
vn 0.4579 -0.3875 -0.8001
vn 0.8420 -0.2585 -0.4735
vn 0.4967 -0.7184 -0.4869
vn 0.5299 -0.2086 -0.8220
vn 0.4049 0.2721 -0.8729
vn 0.5682 0.4226 -0.7060
vn -0.5204 -0.2077 -0.8283
vn -0.3999 0.2740 -0.8746
vn -0.5623 0.4275 -0.7079
vn -0.8381 -0.2585 -0.4804
vn -0.4480 -0.3894 -0.8047
vn -0.6825 -0.5535 -0.4773
vn -0.4870 -0.7224 -0.4909
vn -0.3210 -0.5282 -0.7861
vn 0.0073 -0.8387 -0.5445
vn 0.0044 -0.5908 -0.8068
vn 0.3317 -0.5261 -0.7831
vn 0.3013 -0.4586 0.8360
vn 0.7176 -0.4890 0.4958
vn 0.4667 -0.3122 0.8274
vn 0.4497 -0.7163 0.5336
vn -0.0002 -0.8215 0.5702
vn 0.8624 -0.1891 0.4696
vn -0.0002 -0.5635 0.8261
vn -0.3017 -0.4586 0.8359
vn -0.4499 -0.7166 0.5330
vn -0.7177 -0.4890 0.4958
vn -0.4675 -0.3122 0.8270
vn -0.8627 -0.1889 0.4692
vn 0.5435 -0.1284 0.8296
vn -0.5439 -0.1285 0.8292
vn -0.4205 0.3580 0.8337
vn -0.5606 0.5245 0.6408
vn 0.4195 0.3590 0.8338
vn 0.5603 0.5252 0.6405
vn -0.4667 -0.3123 0.8274
vn -0.5435 -0.1284 0.8296
vn -0.8626 -0.1882 0.4696
vn -0.7176 -0.4890 0.4958
vn -0.4207 0.3591 0.8331
vn -0.5604 0.5252 0.6405
vn 0.4195 0.3590 0.8337
vn 0.5604 0.5252 0.6405
vn 0.8626 -0.1881 0.4696
vn 0.5434 -0.1284 0.8296
vn 0.4664 -0.3119 0.8277
vn 0.7176 -0.4890 0.4959
vn -0.3015 -0.4584 0.8360
vn -0.4499 -0.7158 0.5340
vn -0.0005 -0.8210 0.5709
vn 0.3012 -0.4585 0.8361
vn 0.4496 -0.7163 0.5336
vn -0.0002 -0.5633 0.8263
vn 0.1920 -0.1773 0.9652
vn 0.0044 -0.1987 0.9800
vn 0.0279 -0.2497 0.9679
vn -0.1383 -0.2389 0.9611
vn 0.1119 -0.1294 0.9853
vn 0.2448 -0.0737 0.9668
vn -0.1196 -0.1753 0.9772
vn -0.2106 -0.1686 0.9629
vn -0.0367 -0.0270 0.9990
vn 0.1676 -0.0631 0.9838
vn -0.1724 -0.1391 0.9752
vn -0.2320 -0.1001 0.9675
vn -0.2517 -0.0971 0.9629
vn -0.2594 -0.0698 0.9632
vn -0.2800 -0.0756 0.9570
vn 0.2027 0.0093 0.9792
vn 0.2407 0.0669 0.9683
vn 0.2527 0.0288 0.9671
vn 0.2449 0.0689 0.9671
vn -0.2301 -0.1002 -0.9680
vn -0.2594 -0.0698 -0.9632
vn -0.2799 -0.0752 -0.9571
vn -0.2515 -0.0981 -0.9629
vn -0.2096 -0.1696 -0.9630
vn -0.0367 -0.0269 -0.9990
vn -0.1714 -0.1392 -0.9753
vn -0.1207 -0.1764 -0.9769
vn -0.1392 -0.2389 -0.9610
vn 0.0044 -0.1978 -0.9802
vn 0.0278 -0.2497 -0.9679
vn 0.1930 -0.1774 -0.9650
vn 0.1138 -0.1294 -0.9850
vn 0.2447 -0.0747 -0.9667
vn 0.1676 -0.0630 -0.9838
vn 0.2021 0.0082 -0.9793
vn 0.2398 0.0667 -0.9685
vn 0.2527 0.0279 -0.9672
vn 0.2446 0.0679 -0.9672
vn -0.0000 0.7071 -0.7071
vn 0.0004 -0.7071 -0.7071
vn 0.0005 -0.7071 -0.7071
vn 0.0005 -1.0000 0.0005
vn -0.0000 -0.7071 0.7071
vn 0.0004 -0.7071 0.7071
vn -0.0000 0.7071 0.7071
vn -0.0000 -0.7071 -0.7071
vn -0.2359 0.9718 0.0004
vn -0.2360 0.9718 0.0005
vn -0.2359 0.9718 0.0005
vn -0.9729 0.1129 -0.2018
vn -0.9949 -0.1012 0.0008
vn -0.9744 -0.0865 -0.2076
vn -0.9300 -0.3064 -0.2028
vn -0.9934 0.1148 0.0005
vn -0.9498 -0.3130 0.0005
vn -0.9729 0.1129 0.2018
vn -0.9300 -0.3064 0.2028
vn -0.9744 -0.0865 0.2076
vn -0.0132 -0.7273 -0.6862
vn -0.0112 -0.6534 -0.7570
vn -0.0210 -0.9998 0.0005
vn 0.0015 0.1001 -0.9950
vn -0.0132 -0.7273 0.6862
vn 0.0015 0.0689 -0.9976
vn -0.0112 -0.6534 0.7570
vn -0.0386 0.6923 -0.7206
vn 0.0014 0.1001 0.9950
vn -0.0503 0.7967 -0.6023
vn 0.0015 0.0689 0.9976
vn -0.0757 0.9971 0.0005
vn -0.0386 0.6923 0.7206
vn -0.0503 0.7967 0.6023
vt 0.000000 0.000000
s 1
f 1/1/1 2/1/2 3/1/3
f 4/1/4 3/1/3 2/1/2
f 1/1/1 3/1/3 5/1/5
f 3/1/3 4/1/4 6/1/6
f 7/1/7 1/1/1 5/1/5
f 1/1/1 7/1/7 8/1/8
f 3/1/3 9/1/9 5/1/5
f 3/1/3 6/1/6 9/1/9
f 9/1/9 7/1/7 5/1/5
f 10/1/10 8/1/8 7/1/7
f 4/1/4 11/1/11 6/1/6
f 11/1/11 9/1/9 6/1/6
f 11/1/11 4/1/4 12/1/12
f 13/1/13 11/1/11 12/1/12
f 7/1/7 14/1/14 10/1/10
f 7/1/7 9/1/9 14/1/14
f 11/1/11 13/1/13 15/1/15
f 9/1/9 11/1/11 15/1/15
f 15/1/15 13/1/13 16/1/16
f 16/1/16 9/1/9 15/1/15
f 9/1/9 16/1/16 14/1/14
f 16/1/16 10/1/10 14/1/14
f 13/1/13 17/1/17 16/1/16
f 10/1/10 16/1/16 17/1/17
f 18/1/18 19/1/19 20/1/20
f 21/1/21 20/1/20 19/1/19
f 19/1/19 18/1/18 22/1/22
f 21/1/21 19/1/19 23/1/23
f 18/1/18 20/1/20 24/1/24
f 21/1/21 24/1/24 20/1/20
f 24/1/24 25/1/25 18/1/18
f 24/1/24 21/1/21 26/1/26
f 27/1/27 18/1/18 25/1/25
f 21/1/21 28/1/28 26/1/26
f 23/1/23 29/1/29 21/1/21
f 28/1/28 21/1/21 29/1/29
f 29/1/29 23/1/23 30/1/30
f 31/1/31 29/1/29 30/1/30
f 32/1/32 28/1/28 29/1/29
f 29/1/29 31/1/31 32/1/32
f 33/1/33 28/1/28 32/1/32
f 34/1/34 32/1/32 31/1/31
f 32/1/32 35/1/35 33/1/33
f 32/1/32 34/1/34 36/1/36
f 35/1/35 32/1/32 36/1/36
f 34/1/34 37/1/37 36/1/36
f 37/1/37 35/1/35 36/1/36
f 35/1/35 37/1/37 38/1/38
f 27/1/27 38/1/38 37/1/37
f 37/1/37 34/1/34 39/1/39
f 37/1/37 40/1/40 27/1/27
f 40/1/40 37/1/37 39/1/39
f 18/1/18 27/1/27 40/1/40
f 39/1/39 41/1/41 40/1/40
f 40/1/40 22/1/22 18/1/18
f 22/1/22 40/1/40 41/1/41
f 42/1/42 43/1/43 44/1/44
f 43/1/43 45/1/45 44/1/44
f 46/1/46 42/1/42 44/1/44
f 45/1/45 47/1/47 44/1/44
f 48/1/48 46/1/46 44/1/44
f 47/1/47 49/1/49 44/1/44
f 50/1/50 48/1/48 44/1/44
f 49/1/49 50/1/50 44/1/44
f 51/1/51 52/1/51 53/1/51
f 54/1/51 53/1/51 52/1/51
f 53/1/51 54/1/51 55/1/51
f 52/1/51 51/1/51 56/1/51
f 56/1/51 51/1/51 57/1/51
f 58/1/51 56/1/51 57/1/51
f 58/1/51 57/1/51 59/1/51
f 60/1/51 61/1/51 62/1/51
f 60/1/51 62/1/51 63/1/51
f 64/1/52 65/1/53 66/1/53
f 65/1/53 64/1/52 67/1/52
f 68/1/53 67/1/52 64/1/52
f 68/1/53 69/1/54 67/1/52
f 69/1/54 68/1/53 70/1/53
f 70/1/53 68/1/53 71/1/53
f 72/1/55 73/1/55 74/1/55
f 75/1/55 74/1/55 73/1/55
f 76/1/55 72/1/55 74/1/55
f 77/1/55 75/1/55 73/1/55
f 76/1/55 78/1/55 72/1/55
f 79/1/55 75/1/55 77/1/55
f 78/1/55 76/1/55 80/1/55
f 77/1/55 81/1/55 79/1/55
f 82/1/55 78/1/55 80/1/55
f 81/1/55 83/1/55 79/1/55
f 82/1/55 80/1/55 84/1/55
f 81/1/55 85/1/55 83/1/55
f 82/1/55 84/1/55 85/1/55
f 85/1/55 81/1/55 82/1/55
f 86/1/56 87/1/57 88/1/58
f 88/1/58 89/1/59 86/1/56
f 89/1/59 88/1/58 90/1/60
f 87/1/57 86/1/56 91/1/61
f 92/1/62 91/1/61 86/1/56
f 89/1/59 92/1/62 86/1/56
f 93/1/63 87/1/57 91/1/61
f 87/1/57 93/1/63 94/1/64
f 90/1/60 95/1/65 89/1/59
f 95/1/65 90/1/60 96/1/66
f 96/1/66 97/1/67 95/1/65
f 97/1/67 98/1/68 95/1/65
f 97/1/67 99/1/69 98/1/68
f 89/1/59 95/1/65 100/1/70
f 98/1/68 100/1/70 95/1/65
f 89/1/59 100/1/70 101/1/71
f 92/1/62 89/1/59 101/1/71
f 101/1/71 102/1/72 92/1/62
f 102/1/72 101/1/71 103/1/73
f 100/1/70 103/1/73 101/1/71
f 104/1/74 92/1/62 102/1/72
f 103/1/73 100/1/70 105/1/75
f 100/1/70 106/1/76 105/1/75
f 100/1/70 107/1/77 106/1/76
f 100/1/70 98/1/68 107/1/77
f 108/1/78 106/1/76 107/1/77
f 92/1/62 104/1/74 109/1/79
f 91/1/61 92/1/62 109/1/79
f 93/1/63 91/1/61 109/1/79
f 110/1/80 109/1/79 104/1/74
f 110/1/80 93/1/63 109/1/79
f 111/1/81 110/1/80 104/1/74
f 112/1/82 110/1/80 111/1/81
f 112/1/82 93/1/63 110/1/80
f 111/1/81 113/1/83 112/1/82
f 108/1/78 112/1/82 113/1/83
f 93/1/63 112/1/82 114/1/84
f 114/1/84 94/1/64 93/1/63
f 115/1/85 94/1/64 114/1/84
f 114/1/84 99/1/69 115/1/85
f 99/1/69 114/1/84 116/1/86
f 116/1/86 114/1/84 112/1/82
f 98/1/68 99/1/69 116/1/86
f 112/1/82 108/1/78 117/1/87
f 112/1/82 117/1/87 116/1/86
f 98/1/68 116/1/86 117/1/87
f 107/1/77 117/1/87 108/1/78
f 107/1/77 98/1/68 117/1/87
f 118/1/88 119/1/89 120/1/90
f 120/1/90 119/1/89 121/1/91
f 122/1/92 118/1/88 120/1/90
f 119/1/89 123/1/93 121/1/91
f 122/1/92 124/1/92 118/1/88
f 122/1/92 125/1/94 124/1/92
f 125/1/94 122/1/92 126/1/94
f 121/1/91 123/1/93 127/1/95
f 128/1/96 127/1/95 123/1/93
f 123/1/93 129/1/96 128/1/96
f 130/1/97 131/1/97 132/1/97
f 131/1/97 130/1/97 133/1/97
f 134/1/97 135/1/97 136/1/97
f 137/1/97 136/1/97 135/1/97
f 138/1/97 139/1/97 140/1/97
f 138/1/97 140/1/97 141/1/97
f 142/1/92 143/1/98 144/1/92
f 143/1/98 142/1/92 145/1/98
f 146/1/97 143/1/98 145/1/98
f 147/1/97 146/1/97 145/1/98
f 148/1/99 146/1/97 147/1/97
f 149/1/100 148/1/99 147/1/97
f 148/1/99 149/1/100 150/1/93
f 148/1/99 150/1/93 151/1/93
f 152/1/101 153/1/102 154/1/103
f 153/1/102 155/1/104 154/1/103
f 154/1/103 156/1/105 152/1/101
f 155/1/104 153/1/102 157/1/106
f 153/1/102 152/1/101 158/1/107
f 157/1/106 153/1/102 158/1/107
f 157/1/106 159/1/108 155/1/104
f 158/1/107 160/1/109 157/1/106
f 159/1/108 157/1/106 160/1/109
f 159/1/108 161/1/110 155/1/104
f 158/1/107 162/1/111 160/1/109
f 162/1/111 159/1/108 160/1/109
f 152/1/101 163/1/112 158/1/107
f 158/1/107 163/1/112 162/1/111
f 152/1/101 164/1/113 163/1/112
f 152/1/101 156/1/105 164/1/113
f 156/1/105 165/1/114 164/1/113
f 165/1/114 156/1/105 166/1/115
f 164/1/113 167/1/116 163/1/112
f 167/1/116 164/1/113 165/1/114
f 162/1/111 163/1/112 167/1/116
f 166/1/115 167/1/116 165/1/114
f 168/1/117 167/1/116 166/1/115
f 167/1/116 169/1/118 162/1/111
f 167/1/116 168/1/117 169/1/118
f 169/1/118 168/1/117 170/1/119
f 161/1/110 170/1/119 168/1/117
f 171/1/120 162/1/111 169/1/118
f 171/1/120 169/1/118 170/1/119
f 171/1/120 170/1/119 161/1/110
f 159/1/108 162/1/111 171/1/120
f 161/1/110 159/1/108 171/1/120
f 172/1/121 173/1/122 174/1/123
f 175/1/124 174/1/123 173/1/122
f 173/1/122 172/1/121 176/1/125
f 177/1/126 176/1/125 172/1/121
f 173/1/122 178/1/127 175/1/124
f 177/1/126 175/1/124 178/1/127
f 173/1/122 176/1/125 178/1/127
f 176/1/125 177/1/126 179/1/128
f 177/1/126 178/1/127 179/1/128
f 179/1/128 178/1/127 176/1/125
f 180/1/129 181/1/129 182/1/129
f 182/1/129 183/1/129 180/1/129
f 184/1/130 185/1/130 186/1/130
f 185/1/130 184/1/130 187/1/130
f 188/1/131 189/1/132 190/1/133
f 190/1/133 191/1/134 188/1/131
f 191/1/134 190/1/133 192/1/135
f 191/1/134 193/1/136 188/1/131
f 193/1/136 189/1/132 188/1/131
f 194/1/137 193/1/136 191/1/134
f 195/1/138 193/1/136 194/1/137
f 196/1/139 192/1/135 190/1/133
f 190/1/133 189/1/132 196/1/139
f 192/1/135 196/1/139 197/1/140
f 196/1/139 198/1/141 197/1/140
f 198/1/141 196/1/139 189/1/132
f 199/1/142 198/1/141 189/1/132
f 189/1/132 193/1/136 199/1/142
f 198/1/141 199/1/142 200/1/143
f 199/1/142 201/1/144 200/1/143
f 201/1/144 199/1/142 202/1/145
f 199/1/142 193/1/136 202/1/145
f 201/1/144 202/1/145 203/1/146
f 193/1/136 195/1/138 204/1/147
f 202/1/145 193/1/136 204/1/147
f 203/1/146 204/1/147 195/1/138
f 202/1/145 204/1/147 205/1/148
f 204/1/147 203/1/146 205/1/148
f 203/1/146 202/1/145 205/1/148
f 206/1/149 207/1/150 208/1/151
f 209/1/152 207/1/150 206/1/149
f 208/1/151 207/1/150 210/1/153
f 211/1/154 208/1/151 210/1/153
f 208/1/151 211/1/154 212/1/155
f 210/1/153 213/1/156 211/1/154
f 213/1/156 210/1/153 207/1/150
f 214/1/157 212/1/155 211/1/154
f 211/1/154 213/1/156 214/1/157
f 212/1/155 214/1/157 215/1/158
f 214/1/157 216/1/159 215/1/158
f 216/1/159 214/1/157 213/1/156
f 217/1/160 216/1/159 213/1/156
f 207/1/150 217/1/160 213/1/156
f 216/1/159 217/1/160 218/1/161
f 217/1/160 219/1/162 218/1/161
f 219/1/162 217/1/160 220/1/163
f 217/1/160 207/1/150 220/1/163
f 219/1/162 220/1/163 221/1/164
f 221/1/164 220/1/163 222/1/165
f 220/1/163 207/1/150 223/1/166
f 220/1/163 223/1/166 222/1/165
f 223/1/166 221/1/164 222/1/165
f 207/1/150 209/1/152 223/1/166
f 221/1/164 223/1/166 209/1/152
f 224/1/167 225/1/168 226/1/169
f 225/1/168 224/1/167 227/1/170
f 228/1/171 227/1/170 224/1/167
f 229/1/172 226/1/169 225/1/168
f 224/1/167 230/1/173 228/1/171
f 231/1/174 228/1/171 230/1/173
f 224/1/167 231/1/174 230/1/173
f 226/1/169 231/1/174 224/1/167
f 228/1/171 231/1/174 232/1/175
f 233/1/176 232/1/175 231/1/174
f 234/1/177 233/1/176 231/1/174
f 231/1/174 226/1/169 234/1/177
f 235/1/178 233/1/176 234/1/177
f 226/1/169 229/1/172 236/1/179
f 236/1/179 234/1/177 226/1/169
f 234/1/177 237/1/180 235/1/178
f 234/1/177 236/1/179 237/1/180
f 238/1/181 235/1/178 237/1/180
f 235/1/178 238/1/181 239/1/182
f 237/1/180 236/1/179 240/1/183
f 240/1/183 236/1/179 229/1/172
f 237/1/180 240/1/183 238/1/181
f 240/1/183 239/1/182 238/1/181
f 229/1/172 241/1/184 240/1/183
f 239/1/182 240/1/183 241/1/184
f 242/1/185 243/1/186 244/1/187
f 244/1/187 245/1/188 242/1/185
f 246/1/189 244/1/187 243/1/186
f 244/1/187 246/1/189 247/1/190
f 248/1/191 247/1/190 246/1/189
f 243/1/186 248/1/191 246/1/189
f 247/1/190 248/1/191 249/1/192
f 250/1/193 249/1/192 248/1/191
f 243/1/186 251/1/194 248/1/191
f 248/1/191 251/1/194 250/1/193
f 251/1/194 243/1/186 252/1/195
f 252/1/195 250/1/193 251/1/194
f 242/1/185 252/1/195 243/1/186
f 250/1/193 252/1/195 253/1/196
f 242/1/185 245/1/188 254/1/197
f 254/1/197 252/1/195 242/1/185
f 245/1/188 255/1/198 254/1/197
f 256/1/199 254/1/197 255/1/198
f 257/1/200 253/1/196 252/1/195
f 252/1/195 254/1/197 257/1/200
f 253/1/196 257/1/200 258/1/201
f 256/1/199 258/1/201 257/1/200
f 257/1/200 254/1/197 259/1/202
f 254/1/197 256/1/199 259/1/202
f 257/1/200 259/1/202 256/1/199
f 260/1/203 261/1/204 262/1/205
f 263/1/206 262/1/205 261/1/204
f 261/1/204 260/1/203 264/1/207
f 265/1/208 264/1/207 260/1/203
f 263/1/206 261/1/204 266/1/209
f 266/1/209 267/1/210 263/1/206
f 261/1/204 264/1/207 268/1/211
f 266/1/209 261/1/204 268/1/211
f 264/1/207 265/1/208 269/1/212
f 264/1/207 269/1/212 268/1/211
f 267/1/210 266/1/209 270/1/213
f 270/1/213 266/1/209 268/1/211
f 271/1/214 267/1/210 270/1/213
f 271/1/214 270/1/213 268/1/211
f 267/1/210 271/1/214 272/1/215
f 273/1/216 272/1/215 271/1/214
f 273/1/216 271/1/214 274/1/217
f 274/1/217 271/1/214 268/1/211
f 269/1/212 275/1/218 268/1/211
f 265/1/208 275/1/218 269/1/212
f 275/1/218 276/1/219 268/1/211
f 275/1/218 265/1/208 277/1/220
f 275/1/218 278/1/221 276/1/219
f 278/1/221 275/1/218 277/1/220
f 279/1/222 280/1/223 281/1/224
f 280/1/223 279/1/222 282/1/225
f 283/1/226 282/1/225 279/1/222
f 279/1/222 281/1/224 284/1/227
f 283/1/226 279/1/222 285/1/228
f 285/1/228 279/1/222 284/1/227
f 286/1/229 283/1/226 285/1/228
f 286/1/229 285/1/228 284/1/227
f 283/1/226 286/1/229 287/1/230
f 288/1/231 287/1/230 286/1/229
f 288/1/231 286/1/229 284/1/227
f 287/1/230 288/1/231 289/1/232
f 290/1/233 289/1/232 288/1/231
f 291/1/234 290/1/233 288/1/231
f 291/1/234 288/1/231 284/1/227
f 291/1/234 292/1/235 290/1/233
f 293/1/236 291/1/234 284/1/227
f 292/1/235 291/1/234 293/1/236
f 294/1/237 293/1/236 284/1/227
f 294/1/237 292/1/235 293/1/236
f 295/1/238 294/1/237 284/1/227
f 292/1/235 294/1/237 296/1/239
f 297/1/240 294/1/237 295/1/238
f 294/1/237 297/1/240 296/1/239
f 298/1/96 299/1/96 300/1/96
f 299/1/96 298/1/96 301/1/96
f 302/1/94 303/1/94 304/1/94
f 304/1/94 305/1/94 302/1/94
f 306/1/94 307/1/241 308/1/94
f 307/1/241 306/1/94 309/1/241
f 308/1/94 310/1/242 306/1/94
f 311/1/97 307/1/241 309/1/241
f 310/1/242 308/1/94 312/1/243
f 313/1/97 311/1/97 309/1/241
f 314/1/244 310/1/242 312/1/243
f 315/1/100 311/1/97 313/1/97
f 314/1/244 316/1/244 310/1/242
f 317/1/100 315/1/100 313/1/97
f 318/1/245 316/1/244 314/1/244
f 315/1/100 317/1/100 319/1/96
f 318/1/245 320/1/246 316/1/244
f 315/1/100 319/1/96 321/1/96
f 321/1/96 320/1/246 318/1/245
f 321/1/96 319/1/96 320/1/246
f 322/1/247 323/1/247 324/1/97
f 325/1/97 324/1/97 323/1/247
f 322/1/247 326/1/96 323/1/247
f 324/1/97 325/1/97 327/1/241
f 326/1/96 322/1/247 328/1/96
f 329/1/241 327/1/241 325/1/97
f 328/1/96 330/1/245 326/1/96
f 329/1/241 331/1/94 327/1/241
f 330/1/245 328/1/96 332/1/245
f 331/1/94 329/1/241 333/1/94
f 332/1/245 334/1/244 330/1/245
f 333/1/94 335/1/248 331/1/94
f 334/1/244 332/1/245 336/1/244
f 335/1/248 333/1/94 337/1/248
f 336/1/244 337/1/248 334/1/244
f 337/1/248 336/1/244 335/1/248
f 338/1/244 339/1/244 340/1/244
f 340/1/244 339/1/244 341/1/244
f 342/1/249 343/1/250 344/1/250
f 344/1/250 343/1/250 345/1/250
f 343/1/250 342/1/249 346/1/250
f 346/1/250 347/1/251 343/1/250
f 348/1/250 347/1/251 346/1/250
f 347/1/251 348/1/250 349/1/250
f 350/1/51 351/1/51 352/1/51
f 351/1/51 353/1/51 352/1/51
f 351/1/51 350/1/51 354/1/51
f 351/1/51 355/1/51 353/1/51
f 354/1/51 350/1/51 356/1/51
f 355/1/51 357/1/51 353/1/51
f 358/1/51 354/1/51 356/1/51
f 359/1/51 357/1/51 355/1/51
f 360/1/51 354/1/51 358/1/51
f 357/1/51 359/1/51 361/1/51
f 362/1/51 360/1/51 358/1/51
f 359/1/51 363/1/51 361/1/51
f 360/1/51 362/1/51 363/1/51
f 362/1/51 361/1/51 363/1/51
f 364/1/55 365/1/55 366/1/55
f 365/1/55 364/1/55 367/1/55
f 367/1/55 368/1/55 365/1/55
f 369/1/55 368/1/55 367/1/55
f 368/1/55 369/1/55 370/1/55
f 369/1/55 371/1/55 370/1/55
f 372/1/55 370/1/55 371/1/55
f 373/1/55 374/1/55 375/1/55
f 374/1/55 373/1/55 376/1/55
f 377/1/252 378/1/253 379/1/254
f 378/1/253 380/1/255 379/1/254
f 378/1/253 377/1/252 381/1/256
f 380/1/255 378/1/253 382/1/257
f 378/1/253 381/1/256 383/1/258
f 382/1/257 378/1/253 384/1/259
f 378/1/253 383/1/258 385/1/260
f 385/1/260 384/1/259 378/1/253
f 386/1/261 387/1/262 388/1/263
f 388/1/263 389/1/263 386/1/261
f 390/1/264 387/1/262 386/1/261
f 388/1/263 391/1/265 389/1/263
f 387/1/262 390/1/264 392/1/266
f 391/1/265 388/1/263 393/1/267
f 390/1/264 394/1/268 392/1/266
f 395/1/269 391/1/265 393/1/267
f 394/1/268 390/1/264 396/1/270
f 393/1/267 397/1/271 395/1/269
f 396/1/270 398/1/272 394/1/268
f 397/1/271 399/1/273 395/1/269
f 398/1/272 396/1/270 400/1/272
f 395/1/269 399/1/273 401/1/274
f 398/1/272 401/1/274 399/1/273
f 398/1/272 400/1/272 401/1/274
o RenderMesh_12613284768
v 0.645003 -0.597686 -0.069936
v 0.645003 -0.597686 0.069936
v 0.614011 -0.585336 -0.069936
v 0.614011 -0.585336 0.069936
v 0.814818 -0.074587 -0.069936
v 0.814818 -0.074587 0.069936
v 0.845811 -0.086937 -0.069936
v 0.845811 -0.086937 0.069936
v 0.758930 -0.643081 -0.069936
v 0.758930 -0.643081 0.069936
v 0.727936 -0.630731 -0.069936
v 0.727936 -0.630731 0.069936
v 0.928744 -0.119983 -0.069936
v 0.928744 -0.119983 0.069936
v 0.959736 -0.132332 -0.069936
v 0.959736 -0.132332 0.069936
v 0.531078 -0.552290 -0.069936
v 0.531078 -0.552290 0.069936
v 0.500086 -0.539940 -0.069936
v 0.500086 -0.539940 0.069936
v 0.700892 -0.029192 -0.069936
v 0.700892 -0.029192 0.069936
v 0.731884 -0.041541 -0.069936
v 0.731884 -0.041541 0.069936
v 0.959736 -0.132332 -0.069936
v 0.959736 -0.132332 0.069936
v 0.953079 -0.238786 -0.069936
v 0.953079 -0.238786 0.069936
v 0.931650 -0.354431 -0.069936
v 0.931650 -0.354431 0.069936
v 0.889438 -0.461795 -0.069936
v 0.889438 -0.461795 0.069936
v 0.826445 -0.560878 -0.069936
v 0.826445 -0.560878 0.069936
v 0.758930 -0.643081 -0.069936
v 0.758930 -0.643081 0.069936
v 0.694236 -0.135646 -0.069936
v 0.694236 -0.135646 0.069936
v 0.700892 -0.029192 -0.069936
v 0.700892 -0.029192 0.069936
v 0.672805 -0.251290 0.069936
v 0.672805 -0.251290 -0.069936
v 0.630595 -0.358654 0.069936
v 0.630595 -0.358654 -0.069936
v 0.567601 -0.457737 0.069936
v 0.567601 -0.457737 -0.069936
v 0.500086 -0.539940 0.069936
v 0.500086 -0.539940 -0.069936
v 0.808161 -0.181041 0.069936
v 0.845811 -0.086937 0.069936
v 0.814818 -0.074587 0.069936
v 0.839154 -0.193391 0.069936
v 0.786732 -0.296686 0.069936
v 0.817724 -0.309035 0.069936
v 0.775513 -0.416399 0.069936
v 0.744520 -0.404050 0.069936
v 0.712520 -0.515482 0.069936
v 0.681527 -0.503133 0.069936
v 0.645003 -0.597686 0.069936
v 0.614011 -0.585336 0.069936
v 0.845811 -0.086937 -0.069936
v 0.808161 -0.181041 -0.069936
v 0.814818 -0.074587 -0.069936
v 0.839154 -0.193391 -0.069936
v 0.786732 -0.296686 -0.069936
v 0.817724 -0.309035 -0.069936
v 0.775513 -0.416399 -0.069936
v 0.744520 -0.404050 -0.069936
v 0.712520 -0.515482 -0.069936
v 0.681527 -0.503133 -0.069936
v 0.645003 -0.597686 -0.069936
v 0.614011 -0.585336 -0.069936
v 0.922087 -0.226437 0.069936
v 0.959736 -0.132332 0.069936
v 0.928744 -0.119983 0.069936
v 0.953079 -0.238786 0.069936
v 0.900657 -0.342082 0.069936
v 0.931650 -0.354431 0.069936
v 0.889438 -0.461795 0.069936
v 0.858445 -0.449445 0.069936
v 0.826445 -0.560878 0.069936
v 0.795453 -0.548529 0.069936
v 0.758930 -0.643081 0.069936
v 0.727936 -0.630731 0.069936
v 0.959736 -0.132332 -0.069936
v 0.922087 -0.226437 -0.069936
v 0.928744 -0.119983 -0.069936
v 0.953079 -0.238786 -0.069936
v 0.900657 -0.342082 -0.069936
v 0.931650 -0.354431 -0.069936
v 0.889438 -0.461795 -0.069936
v 0.858445 -0.449445 -0.069936
v 0.826445 -0.560878 -0.069936
v 0.795453 -0.548529 -0.069936
v 0.758930 -0.643081 -0.069936
v 0.727936 -0.630731 -0.069936
v 0.694236 -0.135646 0.069936
v 0.731884 -0.041541 0.069936
v 0.700892 -0.029192 0.069936
v 0.725228 -0.147995 0.069936
v 0.672805 -0.251290 0.069936
v 0.703799 -0.263640 0.069936
v 0.661587 -0.371004 0.069936
v 0.630595 -0.358654 0.069936
v 0.598594 -0.470087 0.069936
v 0.567601 -0.457737 0.069936
v 0.531078 -0.552290 0.069936
v 0.500086 -0.539940 0.069936
v 0.731884 -0.041541 -0.069936
v 0.694236 -0.135646 -0.069936
v 0.700892 -0.029192 -0.069936
v 0.725228 -0.147995 -0.069936
v 0.672805 -0.251290 -0.069936
v 0.703799 -0.263640 -0.069936
v 0.661587 -0.371004 -0.069936
v 0.630595 -0.358654 -0.069936
v 0.598594 -0.470087 -0.069936
v 0.567601 -0.457737 -0.069936
v 0.531078 -0.552290 -0.069936
v 0.500086 -0.539940 -0.069936
v 0.845811 -0.086937 -0.069936
v 0.845811 -0.086937 0.069936
v 0.839154 -0.193391 -0.069936
v 0.839154 -0.193391 0.069936
v 0.817724 -0.309035 -0.069936
v 0.817724 -0.309035 0.069936
v 0.775513 -0.416399 -0.069936
v 0.775513 -0.416399 0.069936
v 0.712520 -0.515482 -0.069936
v 0.712520 -0.515482 0.069936
v 0.645003 -0.597686 -0.069936
v 0.645003 -0.597686 0.069936
v 0.808161 -0.181041 -0.069936
v 0.808161 -0.181041 0.069936
v 0.814818 -0.074587 -0.069936
v 0.814818 -0.074587 0.069936
v 0.786732 -0.296686 0.069936
v 0.786732 -0.296686 -0.069936
v 0.744520 -0.404050 0.069936
v 0.744520 -0.404050 -0.069936
v 0.681527 -0.503133 0.069936
v 0.681527 -0.503133 -0.069936
v 0.614011 -0.585336 0.069936
v 0.614011 -0.585336 -0.069936
v 0.731884 -0.041541 0.069936
v 0.725228 -0.147995 -0.069936
v 0.731884 -0.041541 -0.069936
v 0.725228 -0.147995 0.069936
v 0.703799 -0.263640 -0.069936
v 0.703799 -0.263640 0.069936
v 0.661587 -0.371004 -0.069936
v 0.661587 -0.371004 0.069936
v 0.598594 -0.470087 -0.069936
v 0.598594 -0.470087 0.069936
v 0.531078 -0.552290 -0.069936
v 0.531078 -0.552290 0.069936
v 0.922087 -0.226437 -0.069936
v 0.922087 -0.226437 0.069936
v 0.928744 -0.119983 -0.069936
v 0.928744 -0.119983 0.069936
v 0.900657 -0.342082 0.069936
v 0.900657 -0.342082 -0.069936
v 0.858445 -0.449445 0.069936
v 0.858445 -0.449445 -0.069936
v 0.795453 -0.548529 0.069936
v 0.795453 -0.548529 -0.069936
v 0.727936 -0.630731 0.069936
v 0.727936 -0.630731 -0.069936
vn -0.3702 -0.9290 -0.0000
vn 0.3702 0.9290 -0.0000
vn 0.9981 -0.0624 -0.0000
vn 0.9925 -0.1225 -0.0000
vn 0.9614 -0.2753 -0.0000
vn 0.8914 -0.4532 -0.0000
vn 0.8098 -0.5866 -0.0000
vn 0.7728 -0.6347 -0.0000
vn -0.9925 0.1225 -0.0000
vn -0.9981 0.0624 -0.0000
vn -0.9614 0.2753 -0.0000
vn -0.8914 0.4532 -0.0000
vn -0.8098 0.5867 -0.0000
vn -0.8098 0.5866 -0.0000
vn -0.7728 0.6347 -0.0000
vn -0.0000 -0.0000 1.0000
vn -0.0000 -0.0000 -1.0000
vn 0.8098 -0.5867 -0.0000
vt 0.000000 0.000000
s 1
f 402/2/275 403/2/275 404/2/275
f 404/2/275 403/2/275 405/2/275
f 406/2/276 407/2/276 408/2/276
f 408/2/276 407/2/276 409/2/276
f 410/2/275 411/2/275 412/2/275
f 412/2/275 411/2/275 413/2/275
f 414/2/276 415/2/276 416/2/276
f 416/2/276 415/2/276 417/2/276
f 418/2/275 419/2/275 420/2/275
f 420/2/275 419/2/275 421/2/275
f 422/2/276 423/2/276 424/2/276
f 424/2/276 423/2/276 425/2/276
f 426/2/277 427/2/277 428/2/278
f 428/2/278 427/2/277 429/2/278
f 428/2/278 429/2/278 430/2/279
f 430/2/279 429/2/278 431/2/279
f 430/2/279 431/2/279 432/2/280
f 432/2/280 431/2/279 433/2/280
f 432/2/280 433/2/280 434/2/281
f 434/2/281 433/2/280 435/2/281
f 434/2/281 435/2/281 436/2/282
f 436/2/282 435/2/281 437/2/282
f 438/2/283 439/2/283 440/2/284
f 440/2/284 439/2/283 441/2/284
f 438/2/283 442/2/285 439/2/283
f 443/2/285 442/2/285 438/2/283
f 443/2/285 444/2/286 442/2/285
f 445/2/286 444/2/286 443/2/285
f 445/2/286 446/2/287 444/2/286
f 447/2/288 446/2/287 445/2/286
f 447/2/288 448/2/289 446/2/287
f 449/2/289 448/2/289 447/2/288
f 450/2/290 451/2/290 452/2/290
f 451/2/290 450/2/290 453/2/290
f 454/2/290 453/2/290 450/2/290
f 453/2/290 454/2/290 455/2/290
f 456/2/290 455/2/290 454/2/290
f 454/2/290 457/2/290 456/2/290
f 458/2/290 456/2/290 457/2/290
f 457/2/290 459/2/290 458/2/290
f 460/2/290 458/2/290 459/2/290
f 459/2/290 461/2/290 460/2/290
f 462/2/291 463/2/291 464/2/291
f 463/2/291 462/2/291 465/2/291
f 465/2/291 466/2/291 463/2/291
f 466/2/291 465/2/291 467/2/291
f 468/2/291 466/2/291 467/2/291
f 466/2/291 468/2/291 469/2/291
f 470/2/291 469/2/291 468/2/291
f 469/2/291 470/2/291 471/2/291
f 472/2/291 471/2/291 470/2/291
f 471/2/291 472/2/291 473/2/291
f 474/2/290 475/2/290 476/2/290
f 475/2/290 474/2/290 477/2/290
f 478/2/290 477/2/290 474/2/290
f 477/2/290 478/2/290 479/2/290
f 480/2/290 479/2/290 478/2/290
f 478/2/290 481/2/290 480/2/290
f 482/2/290 480/2/290 481/2/290
f 481/2/290 483/2/290 482/2/290
f 484/2/290 482/2/290 483/2/290
f 483/2/290 485/2/290 484/2/290
f 486/2/291 487/2/291 488/2/291
f 487/2/291 486/2/291 489/2/291
f 489/2/291 490/2/291 487/2/291
f 490/2/291 489/2/291 491/2/291
f 492/2/291 490/2/291 491/2/291
f 490/2/291 492/2/291 493/2/291
f 494/2/291 493/2/291 492/2/291
f 493/2/291 494/2/291 495/2/291
f 496/2/291 495/2/291 494/2/291
f 495/2/291 496/2/291 497/2/291
f 498/2/290 499/2/290 500/2/290
f 499/2/290 498/2/290 501/2/290
f 502/2/290 501/2/290 498/2/290
f 501/2/290 502/2/290 503/2/290
f 504/2/290 503/2/290 502/2/290
f 502/2/290 505/2/290 504/2/290
f 506/2/290 504/2/290 505/2/290
f 505/2/290 507/2/290 506/2/290
f 508/2/290 506/2/290 507/2/290
f 507/2/290 509/2/290 508/2/290
f 510/2/291 511/2/291 512/2/291
f 511/2/291 510/2/291 513/2/291
f 513/2/291 514/2/291 511/2/291
f 514/2/291 513/2/291 515/2/291
f 516/2/291 514/2/291 515/2/291
f 514/2/291 516/2/291 517/2/291
f 518/2/291 517/2/291 516/2/291
f 517/2/291 518/2/291 519/2/291
f 520/2/291 519/2/291 518/2/291
f 519/2/291 520/2/291 521/2/291
f 522/2/277 523/2/277 524/2/278
f 524/2/278 523/2/277 525/2/278
f 525/2/278 526/2/279 524/2/278
f 526/2/279 525/2/278 527/2/279
f 526/2/279 527/2/279 528/2/280
f 528/2/280 527/2/279 529/2/280
f 528/2/280 529/2/280 530/2/281
f 530/2/281 529/2/280 531/2/281
f 531/2/281 532/2/282 530/2/281
f 532/2/282 531/2/281 533/2/282
f 534/2/283 535/2/283 536/2/284
f 536/2/284 535/2/283 537/2/284
f 534/2/283 538/2/285 535/2/283
f 539/2/285 538/2/285 534/2/283
f 539/2/285 540/2/286 538/2/285
f 541/2/286 540/2/286 539/2/285
f 541/2/286 542/2/287 540/2/286
f 543/2/288 542/2/287 541/2/286
f 543/2/288 544/2/289 542/2/287
f 545/2/289 544/2/289 543/2/288
f 546/2/277 547/2/278 548/2/277
f 547/2/278 546/2/277 549/2/278
f 547/2/278 549/2/278 550/2/279
f 550/2/279 549/2/278 551/2/279
f 550/2/279 551/2/279 552/2/280
f 552/2/280 551/2/279 553/2/280
f 552/2/280 553/2/280 554/2/292
f 554/2/292 553/2/280 555/2/281
f 554/2/292 555/2/281 556/2/282
f 556/2/282 555/2/281 557/2/282
f 558/2/283 559/2/283 560/2/284
f 560/2/284 559/2/283 561/2/284
f 558/2/283 562/2/285 559/2/283
f 563/2/285 562/2/285 558/2/283
f 563/2/285 564/2/286 562/2/285
f 565/2/286 564/2/286 563/2/285
f 565/2/286 566/2/287 564/2/286
f 567/2/288 566/2/287 565/2/286
f 567/2/288 568/2/289 566/2/287
f 569/2/289 568/2/289 567/2/288
