# Blender 5.2.0 LTS
# www.blender.org
mtllib secondarybody.mtl
o RenderMesh_95391976125402
v 1.486947 -0.443689 0.000000
v 1.473023 -0.408648 -0.122911
v 1.532662 -0.356306 -0.077195
v 1.532664 0.007034 -0.175587
v 1.565814 -0.374270 0.000000
v 1.584871 0.007034 -0.123418
v 1.532662 -0.356306 0.077195
v 1.473023 -0.408648 0.122911
v 1.622310 0.011507 -0.000000
v 1.532664 0.007034 0.175587
v 1.523800 0.159713 -0.076236
v 1.452630 0.207034 -0.113824
v 1.463533 0.243129 -0.000000
v 1.584871 0.007034 0.123418
v 1.553066 0.183488 -0.000000
v 1.523800 0.159713 0.076236
v 1.452630 0.207034 0.113824
v -1.461178 -0.074935 0.034291
v -1.464044 -0.072712 -0.000000
v -1.461178 -0.089139 -0.000000
v -1.461178 -0.074935 -0.034291
v -1.464044 -0.063319 0.022676
v -1.464044 -0.063319 -0.022676
v -1.443046 -0.099759 -0.000000
v -1.443046 -0.082445 0.041801
v -1.443046 -0.082445 -0.041801
v -1.443046 -0.040644 0.059115
v -1.443046 -0.040644 -0.059115
v -1.461178 -0.040644 -0.048495
v -1.464044 -0.040644 -0.032068
v -1.464044 -0.017969 -0.022676
v -1.461178 -0.006354 -0.034291
v -1.443046 0.001157 -0.041801
v -1.464044 -0.008576 -0.000000
v -1.443046 0.018471 -0.000000
v -1.461178 0.007851 -0.000000
v -1.461178 -0.006354 0.034291
v -1.443046 0.001157 0.041801
v -1.464044 -0.017969 0.022676
v -1.461178 -0.040644 0.048495
v -1.464044 -0.040644 0.032068
v -1.464044 -0.008576 -0.000000
v -1.464044 -0.017969 -0.022676
v -1.381542 -0.040644 -0.000000
v -1.464044 -0.040644 -0.032068
v -1.464044 -0.017969 0.022676
v -1.464044 -0.063319 -0.022676
v -1.464044 -0.040644 0.032068
v -1.464044 -0.072712 -0.000000
v -1.464044 -0.063319 0.022676
v -0.763253 0.320738 -0.000000
v -0.763253 0.279633 0.035202
v -0.763253 0.328423 0.018554
v -0.763253 0.346976 0.035202
v -0.763253 0.346976 0.026240
v -0.763253 0.279633 -0.035202
v -0.763253 0.328423 -0.018554
v -0.763253 0.346976 -0.035202
v -0.763253 0.346976 -0.026240
v -0.757427 0.346558 -0.000579
v -0.757427 0.310111 -0.011454
v -0.757427 0.310111 0.011454
v -0.757427 0.346558 0.000579
v 0.233038 -0.719126 -0.089790
v 0.192535 -0.728381 0.054999
v 0.192535 -0.728381 -0.054439
v 0.233038 -0.719126 0.090350
v 0.468972 -0.660890 -0.089790
v 0.468972 -0.660890 0.090350
v 0.531475 -0.646272 0.037500
v 0.531475 -0.646272 -0.036940
v 0.555162 0.387051 -0.022308
v 0.555162 0.387051 0.022308
v 0.555162 0.378647 -0.000000
v 0.555162 0.370962 0.018554
v 0.555162 0.370962 -0.018554
v 0.555162 0.374396 0.034965
v 0.555162 0.374396 -0.034965
v 0.555162 0.352408 0.026240
v 0.555162 0.352408 -0.026240
v 0.555162 0.308926 0.034965
v 0.555162 0.308926 -0.034965
v 0.555162 0.333852 0.018554
v 0.555162 0.333852 -0.018554
v 0.555162 0.326167 -0.000000
v 0.150692 -0.635625 -0.060518
v 0.156111 -0.612477 0.058375
v 0.156111 -0.612477 -0.057815
v 0.195694 -0.625340 -0.099797
v 0.198870 -0.602721 -0.095058
v 0.150692 -0.635625 0.061079
v 0.167229 -0.703643 -0.060518
v 0.195694 -0.625340 0.100358
v 0.198870 -0.602721 0.095618
v 0.457844 -0.560634 -0.099797
v 0.447431 -0.541370 -0.095058
v 0.513375 -0.525965 -0.038932
v 0.527291 -0.544393 -0.041075
v 0.513375 -0.525965 0.039492
v 0.474381 -0.628654 -0.099797
v 0.212232 -0.693359 -0.099797
v 0.192535 -0.728381 -0.054439
v 0.233038 -0.719126 -0.089790
v 0.192535 -0.728381 0.054999
v 0.468972 -0.660890 -0.089790
v 0.531475 -0.646272 -0.036940
v 0.543828 -0.612411 -0.041075
v 0.531475 -0.646272 0.037500
v 0.167229 -0.703643 0.061079
v 0.212232 -0.693359 0.100358
v 0.233038 -0.719126 0.090350
v 0.474381 -0.628654 0.100358
v 0.468972 -0.660890 0.090350
v 0.457844 -0.560634 0.100358
v 0.447431 -0.541370 0.095618
v 0.527291 -0.544393 0.041636
v 0.543828 -0.612411 0.041636
v 0.535514 0.387051 -0.022308
v 0.535514 0.387051 0.022308
v 0.555162 0.387051 -0.022308
v 0.555162 0.387051 0.022308
v 0.555162 0.374396 -0.034965
v 0.535514 0.374396 0.034965
v 0.535514 0.374396 -0.034965
v 0.535514 0.308926 -0.034965
v 0.555162 0.308926 -0.034965
v 0.555162 0.374396 0.034965
v 0.555162 0.308926 0.034965
v 0.535514 0.308926 0.034965
v -0.763253 0.346976 -0.035202
v -0.743606 0.346976 -0.026240
v -0.743606 0.346976 -0.035202
v -0.763253 0.346976 -0.026240
v -0.763253 0.346976 0.035202
v -0.743606 0.346976 0.035202
v -0.763253 0.346976 0.026240
v -0.743606 0.346976 0.026240
v -0.750620 0.346558 -0.000579
v -0.757427 0.346558 -0.000579
v -0.757427 0.346558 0.000579
v -0.750620 0.346558 0.000579
v -0.743606 0.346976 0.026240
v -0.763253 0.328423 0.018554
v -0.763253 0.346976 0.026240
v -0.743606 0.328423 0.018554
v -0.763253 0.320738 -0.000000
v -0.743606 0.320738 -0.000000
v -0.763253 0.328423 -0.018554
v -0.743606 0.328423 -0.018554
v -0.743606 0.346976 -0.026240
v -0.763253 0.346976 -0.026240
v -0.857111 -0.294139 -0.112000
v -0.915129 -0.305173 -0.063173
v -0.915129 -0.258011 -0.112000
v -0.915129 -0.258011 0.112000
v -0.200257 -0.258011 -0.112000
v -0.915129 -0.305173 0.063173
v -0.877335 -0.342966 -0.063173
v -0.857111 -0.294139 0.112000
v -0.877335 -0.342966 0.063173
v -0.200257 -0.258011 0.112000
v -0.250078 -0.342966 0.063173
v -0.250078 -0.342966 -0.063173
v -0.219681 -0.294139 -0.112000
v -0.181112 -0.282542 -0.079865
v -0.165129 -0.258011 -0.079774
v -0.198049 -0.315638 -0.048248
v -0.165129 -0.258011 0.079774
v -0.198049 -0.315638 0.048248
v -0.181112 -0.282542 0.079865
v -0.219681 -0.294139 0.112000
v 0.334218 0.070327 0.050282
v -0.308405 0.056550 0.047651
v -0.315161 0.070248 0.050282
v -0.315161 0.070248 -0.050282
v 0.327465 0.056624 0.047651
v 0.334218 0.070327 -0.050282
v -0.308405 0.056550 -0.047651
v 0.327465 0.056624 -0.047651
v -0.757427 0.346558 0.000579
v -0.757427 0.310111 0.011454
v -0.750620 0.310111 0.011454
v -0.750620 0.346558 0.000579
v -0.750620 0.346558 -0.000579
v -0.757427 0.310111 -0.011454
v -0.757427 0.346558 -0.000579
v -0.750620 0.310111 -0.011454
v -0.405330 -0.098808 -0.114683
v -0.273323 -0.098808 -0.113457
v -0.405330 -0.202116 -0.101960
v -0.419290 -0.093345 -0.141830
v -0.419290 -0.218499 -0.122468
v -0.393588 -0.065463 -0.120523
v -0.405063 -0.052948 -0.150718
v -0.374197 -0.020204 -0.157697
v -0.273323 -0.202116 -0.101960
v -0.259365 -0.218499 -0.122468
v -0.259365 -0.093345 -0.139965
v -0.285065 -0.065463 -0.119515
v -0.273590 -0.052948 -0.149185
v -0.304455 -0.020204 -0.156883
v -0.310543 -0.038434 -0.124574
v -0.339327 -0.005847 -0.154033
v -0.368110 -0.038434 -0.125108
v -0.339327 -0.026584 -0.122701
v -0.735062 -0.052948 -0.155420
v -0.723588 -0.065463 -0.124066
v -0.749289 -0.093345 -0.146533
v -0.704197 -0.020204 -0.162399
v -0.735330 -0.098808 -0.118226
v -0.735330 -0.202116 -0.102413
v -0.749289 -0.218499 -0.122468
v -0.603323 -0.098808 -0.117000
v -0.603323 -0.202116 -0.102413
v -0.589364 -0.218499 -0.122468
v -0.589364 -0.093345 -0.144667
v -0.615065 -0.065463 -0.123058
v -0.603589 -0.052948 -0.153887
v -0.634454 -0.020204 -0.161586
v -0.640543 -0.038434 -0.128117
v -0.669326 -0.005847 -0.155174
v -0.669326 -0.026584 -0.123904
v -0.698110 -0.038434 -0.128651
v -0.368110 -0.038434 0.105539
v -0.405063 -0.052948 0.133117
v -0.393588 -0.065463 0.104181
v -0.374197 -0.020204 0.135184
v -0.339325 -0.005849 0.136097
v -0.419290 -0.093345 0.130575
v -0.339325 -0.026584 0.106139
v -0.310543 -0.038434 0.105554
v -0.304455 -0.020204 0.135206
v -0.273590 -0.052948 0.133160
v -0.285065 -0.065463 0.104209
v -0.259365 -0.093345 0.130627
v -0.405330 -0.098808 0.102511
v -0.273323 -0.098808 0.102545
v -0.273323 -0.202116 0.097184
v -0.259365 -0.218499 0.122468
v -0.405330 -0.202116 0.097184
v -0.419290 -0.218499 0.122468
v -0.615065 -0.065463 0.104110
v -0.603323 -0.098808 0.102445
v -0.589364 -0.093345 0.130497
v -0.603589 -0.052948 0.133029
v -0.603323 -0.202116 0.097170
v -0.589364 -0.218499 0.122468
v -0.735330 -0.202116 0.097170
v -0.749289 -0.218499 0.122468
v -0.749289 -0.093345 0.130445
v -0.735330 -0.098808 0.102411
v -0.723588 -0.065463 0.104082
v -0.735062 -0.052948 0.132987
v -0.640543 -0.038434 0.105455
v -0.634456 -0.020204 0.135076
v -0.669326 -0.005849 0.135967
v -0.698110 -0.038434 0.105440
v -0.704197 -0.020204 0.135054
v -0.669326 -0.026584 0.106040
v 0.249243 -0.400852 0.084979
v 0.286921 -0.405997 0.077710
v 0.278591 -0.375648 0.086225
v 0.316609 -0.382801 0.087319
v 0.274546 -0.419566 0.076588
v 0.229317 -0.445740 0.083771
v 0.304197 -0.411721 0.078696
v 0.356310 -0.411712 0.088318
v 0.334764 -0.593318 0.063420
v 0.260009 -0.452701 0.075499
v 0.333269 -0.433151 0.079595
v 0.353605 -0.468252 0.080007
v 0.384005 -0.460106 0.088775
v 0.413294 -0.569416 0.088757
v 0.382895 -0.577562 0.079991
v 0.259036 -0.491315 0.074934
v 0.288399 -0.599602 0.075189
v 0.228809 -0.498807 0.083141
v 0.258000 -0.607747 0.083426
v 0.353605 -0.468252 -0.079450
v 0.413294 -0.569416 -0.088196
v 0.382895 -0.577562 -0.079433
v 0.384005 -0.460106 -0.088214
v 0.356310 -0.411712 -0.087849
v 0.334764 -0.593318 -0.062907
v 0.333268 -0.433149 -0.079120
v 0.304199 -0.411722 -0.078218
v 0.316609 -0.382801 -0.086848
v 0.286920 -0.405998 -0.077181
v 0.278591 -0.375648 -0.085696
v 0.249243 -0.400852 -0.084519
v 0.274544 -0.419568 -0.076120
v 0.229317 -0.445740 -0.083325
v 0.260010 -0.452699 -0.075045
v 0.259035 -0.491309 -0.074391
v 0.288399 -0.599602 -0.074631
v 0.228809 -0.498806 -0.082580
v 0.258000 -0.607747 -0.082866
v -0.743606 0.279633 0.035202
v -0.763253 0.346976 0.035202
v -0.763253 0.279633 0.035202
v -0.743606 0.346976 0.035202
v -0.763253 0.279633 -0.035202
v -0.763253 0.346976 -0.035202
v -0.743606 0.346976 -0.035202
v -0.743606 0.279633 -0.035202
v 0.555162 0.352408 0.026240
v 0.535514 0.333852 0.018554
v 0.535514 0.352408 0.026240
v 0.555162 0.333852 0.018554
v 0.555162 0.370962 0.018554
v 0.535514 0.326167 -0.000000
v 0.535514 0.370962 0.018554
v 0.555162 0.326167 -0.000000
v 0.535514 0.378647 -0.000000
v 0.535514 0.333852 -0.018554
v 0.555162 0.378647 -0.000000
v 0.555162 0.333852 -0.018554
v 0.535514 0.370962 -0.018554
v 0.555162 0.352408 -0.026240
v 0.555162 0.370962 -0.018554
v 0.535514 0.352408 -0.026240
v -1.443046 0.001157 0.041801
v -0.845722 0.001157 0.041801
v -1.443046 0.018471 -0.000000
v -0.845722 0.018471 -0.000000
v -0.845722 -0.040644 0.059115
v -1.443046 0.001157 -0.041801
v -1.443046 -0.040644 0.059115
v -0.845722 0.001157 -0.041801
v -0.845722 -0.082445 0.041801
v -1.443046 -0.040644 -0.059115
v -1.443046 -0.082445 0.041801
v -0.845722 -0.040644 -0.059115
v -0.845722 -0.099759 -0.000000
v -1.443046 -0.082445 -0.041801
v -1.443046 -0.099759 -0.000000
v -0.845722 -0.082445 -0.041801
v -0.750620 0.310111 -0.011454
v -0.750620 0.310111 0.011454
v -0.757427 0.310111 -0.011454
v -0.757427 0.310111 0.011454
v 0.447431 -0.541370 -0.095058
v 0.447431 -0.541370 0.095618
v 0.513375 -0.525965 -0.038932
v 0.513375 -0.525965 0.039492
v 0.198870 -0.602721 -0.095058
v 0.198870 -0.602721 0.095618
v 0.156111 -0.612477 -0.057815
v 0.156111 -0.612477 0.058375
v 0.535514 0.326167 -0.000000
v 0.535514 0.308926 0.034965
v 0.535514 0.333852 0.018554
v 0.535514 0.352408 0.026240
v 0.535514 0.308926 -0.034965
v 0.535514 0.374396 0.034965
v 0.535514 0.333852 -0.018554
v 0.535514 0.370962 0.018554
v 0.535514 0.352408 -0.026240
v 0.535514 0.387051 0.022308
v 0.535514 0.374396 -0.034965
v 0.535514 0.378647 -0.000000
v 0.535514 0.370962 -0.018554
v 0.535514 0.387051 -0.022308
v -0.743606 0.346976 0.035202
v -0.743606 0.328423 0.018554
v -0.743606 0.346976 0.026240
v -0.743606 0.279633 0.035202
v -0.743606 0.320738 -0.000000
v -0.743606 0.279633 -0.035202
v -0.743606 0.328423 -0.018554
v -0.743606 0.346976 -0.035202
v -0.743606 0.346976 -0.026240
v -0.750620 0.346558 0.000579
v -0.750620 0.310111 -0.011454
v -0.750620 0.346558 -0.000579
v -0.750620 0.310111 0.011454
v 1.395114 -0.411463 -0.122911
v 1.417433 0.002545 -0.000000
v 1.454871 0.007034 -0.175587
v 1.374871 0.207034 -0.113824
v 1.367081 -0.436680 0.000000
v 1.343646 0.228173 -0.000000
v 1.395114 -0.411463 0.122911
v 1.374871 0.207034 0.113824
v 1.454871 0.007034 0.175587
v 1.395114 -0.411463 -0.122911
v 1.473023 -0.408648 -0.122911
v 1.486947 -0.443689 0.000000
v 1.367081 -0.436680 0.000000
v 1.454871 0.007034 -0.175587
v 1.395114 -0.411463 0.122911
v 1.532664 0.007034 -0.175587
v 1.473023 -0.408648 0.122911
v 1.452630 0.207034 -0.113824
v 1.454871 0.007034 0.175587
v 1.374871 0.207034 -0.113824
v 1.532664 0.007034 0.175587
v 1.463533 0.243129 -0.000000
v 1.452630 0.207034 0.113824
v 1.343646 0.228173 -0.000000
v 1.374871 0.207034 0.113824
vn 0.7235 -0.6903 0.0005
vn 0.7195 -0.4645 -0.5163
vn 0.7978 -0.3581 -0.4851
vn 0.6998 0.1421 -0.7001
vn 0.8941 -0.4478 0.0005
vn 0.8313 0.1236 -0.5420
vn 0.7978 -0.3581 0.4851
vn 0.7195 -0.4645 0.5163
vn 0.9914 0.1312 -0.0000
vn 0.6998 0.1421 0.7001
vn 0.7022 0.5419 -0.4618
vn 0.6110 0.6295 -0.4801
vn 0.6142 0.7891 0.0005
vn 0.8313 0.1236 0.5420
vn 0.7840 0.6208 0.0005
vn 0.7022 0.5419 0.4618
vn 0.6110 0.6295 0.4801
vn -0.7739 -0.4478 0.4478
vn -0.9850 -0.1723 0.0004
vn -0.7743 -0.6328 -0.0000
vn -0.7743 -0.4474 -0.4474
vn -0.9851 -0.1215 0.1215
vn -0.9851 -0.1215 -0.1215
vn -0.5054 -0.8629 -0.0000
vn -0.5059 -0.6100 0.6100
vn -0.5054 -0.6101 -0.6101
vn -0.5054 -0.0000 0.8629
vn -0.5054 -0.0000 -0.8629
vn -0.7744 0.0003 -0.6327
vn -0.9850 0.0005 -0.1724
vn -0.9851 0.1215 -0.1215
vn -0.7744 0.4474 -0.4474
vn -0.5059 0.6099 -0.6100
vn -0.9850 0.1724 0.0005
vn -0.5054 0.8629 -0.0000
vn -0.7743 0.6328 -0.0000
vn -0.7744 0.4474 0.4474
vn -0.5055 0.6101 0.6101
vn -0.9851 0.1215 0.1215
vn -0.7744 0.0003 0.6327
vn -0.9850 0.0005 0.1724
vn -0.3623 -0.9321 -0.0000
vn -0.3623 -0.6591 0.6591
vn -1.0000 0.0002 0.0002
vn -0.3623 -0.0000 0.9321
vn -0.3623 -0.6591 -0.6591
vn -0.3623 0.6591 0.6591
vn -0.3623 -0.0000 -0.9321
vn -0.3622 0.9321 0.0005
vn -0.3623 0.6591 -0.6591
vn -1.0000 0.0005 0.0005
vn 0.2358 -0.9718 0.0005
vn 0.2360 -0.9718 0.0005
vn 0.2360 -0.9717 0.0005
vn 0.2361 -0.9717 0.0005
vn 1.0000 0.0005 0.0005
vn -0.9156 0.0071 -0.4020
vn -0.8819 0.2537 0.3972
vn -0.8820 0.2535 -0.3972
vn -0.3914 0.0747 -0.9172
vn -0.3337 0.2371 -0.9124
vn -0.9156 0.0073 0.4019
vn -0.7904 -0.4655 -0.3982
vn -0.3914 0.0747 0.9172
vn -0.3336 0.2372 0.9124
vn 0.3047 0.2231 -0.9260
vn 0.2145 0.3444 -0.9140
vn 0.7047 0.5758 -0.4146
vn 0.8211 0.3972 -0.4099
vn 0.7047 0.5758 0.4146
vn 0.3894 -0.1199 -0.9132
vn -0.2984 -0.2974 -0.9069
vn -0.6037 -0.7077 -0.3669
vn -0.1477 -0.4594 -0.8759
vn -0.6037 -0.7078 0.3669
vn 0.3415 -0.3307 -0.8798
vn 0.8474 -0.3571 -0.3929
vn 0.9144 -0.0562 -0.4009
vn 0.8474 -0.3571 0.3929
vn -0.7906 -0.4653 0.3979
vn -0.2985 -0.2974 0.9069
vn -0.1479 -0.4595 0.8758
vn 0.3895 -0.1199 0.9132
vn 0.3416 -0.3308 0.8797
vn 0.3047 0.2231 0.9260
vn 0.2145 0.3444 0.9140
vn 0.8211 0.3972 0.4099
vn 0.9144 -0.0562 0.4009
vn 0.0005 0.9239 -0.3826
vn 0.0006 0.9239 0.3826
vn -0.0000 0.9239 -0.3827
vn -0.0000 0.9239 0.3827
vn 0.0005 0.3826 -0.9239
vn 0.0005 0.3826 0.9239
vn 0.0005 0.0005 -1.0000
vn 0.0006 0.3825 0.9239
vn 0.0005 0.0005 1.0000
vn 0.0005 1.0000 0.0005
vn 0.0006 0.3826 -0.9239
vn 0.0005 0.7071 -0.7071
vn -0.0000 0.7071 -0.7071
vn 0.0005 0.7071 0.7071
vn 0.0004 0.7071 0.7071
vn 0.0006 0.3826 0.9239
vn -0.1373 -0.4128 -0.9004
vn -0.8522 -0.4488 -0.2691
vn -0.6505 -0.3485 -0.6749
vn -0.6505 -0.3485 0.6749
vn 0.4479 -0.2603 -0.8553
vn -0.8522 -0.4488 0.2691
vn -0.3395 -0.8710 -0.3552
vn -0.1373 -0.4129 0.9004
vn -0.3395 -0.8710 0.3551
vn 0.4479 -0.2603 0.8553
vn 0.2204 -0.9125 0.3446
vn 0.2204 -0.9125 -0.3446
vn 0.2956 -0.4657 -0.8341
vn 0.7507 -0.5475 -0.3697
vn 0.8244 -0.4784 -0.3025
vn 0.6708 -0.7265 -0.1490
vn 0.8244 -0.4784 0.3025
vn 0.6708 -0.7265 0.1490
vn 0.7507 -0.5475 0.3697
vn 0.2956 -0.4657 0.8341
vn -0.6737 0.4452 -0.5899
vn 0.4205 0.7331 -0.5346
vn 0.6735 0.4455 -0.5898
vn 0.6737 0.4452 0.5898
vn -0.4207 0.7329 -0.5346
vn -0.6740 0.4450 0.5896
vn 0.4205 0.7331 0.5346
vn -0.4207 0.7329 0.5346
vn 0.0005 0.2859 0.9583
vn 0.0003 0.2859 0.9583
vn -0.0000 0.2859 0.9583
vn 0.0005 0.2859 -0.9583
vn -0.0000 0.2859 -0.9583
vn 0.0003 0.2859 -0.9583
vn 0.5242 -0.1949 -0.8290
vn -0.5146 -0.1940 -0.8352
vn 0.4041 0.2849 -0.8692
vn 0.8371 -0.2507 -0.4862
vn 0.5565 0.4412 -0.7041
vn 0.4527 -0.3765 -0.8083
vn 0.6821 -0.5473 -0.4849
vn 0.4695 -0.7265 -0.5017
vn -0.3991 0.2867 -0.8709
vn -0.5495 0.4470 -0.7059
vn -0.8329 -0.2496 -0.4939
vn -0.4420 -0.3785 -0.8132
vn -0.6736 -0.5515 -0.4919
vn -0.4588 -0.7305 -0.5058
vn -0.3043 -0.5163 -0.8005
vn 0.0074 -0.8361 -0.5485
vn 0.3151 -0.5154 -0.7969
vn 0.0054 -0.5903 -0.8072
vn 0.6903 -0.5496 -0.4705
vn 0.4579 -0.3875 -0.8001
vn 0.8420 -0.2585 -0.4735
vn 0.4967 -0.7184 -0.4869
vn 0.5299 -0.2086 -0.8220
vn 0.4049 0.2721 -0.8729
vn 0.5682 0.4226 -0.7060
vn -0.5204 -0.2077 -0.8283
vn -0.3999 0.2740 -0.8746
vn -0.5623 0.4275 -0.7079
vn -0.8381 -0.2585 -0.4804
vn -0.4480 -0.3894 -0.8047
vn -0.6825 -0.5535 -0.4773
vn -0.4870 -0.7224 -0.4909
vn -0.3210 -0.5282 -0.7861
vn 0.0073 -0.8387 -0.5445
vn 0.0044 -0.5908 -0.8068
vn 0.3317 -0.5261 -0.7831
vn 0.3013 -0.4586 0.8360
vn 0.7177 -0.4891 0.4958
vn 0.4667 -0.3121 0.8275
vn 0.4497 -0.7163 0.5336
vn -0.0002 -0.8215 0.5702
vn 0.8624 -0.1891 0.4696
vn -0.0002 -0.5635 0.8261
vn -0.3017 -0.4586 0.8359
vn -0.4499 -0.7166 0.5330
vn -0.7177 -0.4890 0.4958
vn -0.4675 -0.3121 0.8271
vn -0.8627 -0.1889 0.4692
vn 0.5434 -0.1284 0.8296
vn -0.5440 -0.1285 0.8292
vn -0.4205 0.3580 0.8337
vn -0.5606 0.5245 0.6408
vn 0.4195 0.3590 0.8338
vn 0.5603 0.5252 0.6405
vn -0.4667 -0.3123 0.8274
vn -0.5435 -0.1284 0.8296
vn -0.8626 -0.1882 0.4696
vn -0.7176 -0.4890 0.4959
vn -0.4207 0.3591 0.8331
vn -0.5604 0.5252 0.6405
vn 0.4195 0.3590 0.8337
vn 0.5604 0.5252 0.6405
vn 0.8626 -0.1881 0.4696
vn 0.4665 -0.3117 0.8278
vn 0.7176 -0.4890 0.4959
vn -0.3015 -0.4584 0.8360
vn -0.4499 -0.7158 0.5340
vn -0.0005 -0.8210 0.5709
vn 0.3012 -0.4585 0.8361
vn 0.4496 -0.7163 0.5336
vn -0.0002 -0.5633 0.8263
vn 0.1920 -0.1773 0.9652
vn 0.0044 -0.1987 0.9801
vn 0.0279 -0.2497 0.9679
vn -0.1384 -0.2390 0.9611
vn 0.1119 -0.1293 0.9853
vn 0.2448 -0.0737 0.9668
vn -0.1196 -0.1753 0.9772
vn -0.2106 -0.1686 0.9629
vn -0.0367 -0.0270 0.9990
vn 0.1676 -0.0631 0.9838
vn -0.1724 -0.1391 0.9752
vn -0.2320 -0.1001 0.9675
vn -0.2517 -0.0971 0.9629
vn -0.2594 -0.0698 0.9632
vn -0.2801 -0.0755 0.9570
vn 0.2027 0.0093 0.9792
vn 0.2406 0.0670 0.9683
vn 0.2527 0.0288 0.9671
vn 0.2448 0.0688 0.9671
vn -0.2300 -0.1005 -0.9680
vn -0.2593 -0.0697 -0.9633
vn -0.2799 -0.0752 -0.9571
vn -0.2515 -0.0981 -0.9629
vn -0.2096 -0.1696 -0.9630
vn -0.0368 -0.0270 -0.9990
vn -0.1714 -0.1392 -0.9753
vn -0.1207 -0.1764 -0.9769
vn -0.1392 -0.2389 -0.9610
vn 0.0044 -0.1978 -0.9802
vn 0.0278 -0.2497 -0.9679
vn 0.1930 -0.1774 -0.9650
vn 0.1138 -0.1294 -0.9850
vn 0.2447 -0.0748 -0.9667
vn 0.1676 -0.0630 -0.9838
vn 0.2021 0.0082 -0.9793
vn 0.2398 0.0668 -0.9685
vn 0.2527 0.0279 -0.9671
vn 0.2444 0.0680 -0.9673
vn 0.0005 -0.7071 -0.7071
vn 0.0005 -1.0000 0.0005
vn -0.0000 -0.7071 0.7071
vn -0.0000 0.7071 0.7071
vn -0.0000 -0.7071 -0.7071
vn -0.2359 0.9718 0.0004
vn -0.2360 0.9718 0.0005
vn -0.2359 0.9718 0.0005
vn -0.9729 0.1129 -0.2018
vn -0.9949 -0.1012 0.0007
vn -0.9744 -0.0865 -0.2076
vn -0.9300 -0.3064 -0.2028
vn -0.9934 0.1148 0.0005
vn -0.9498 -0.3130 0.0005
vn -0.9729 0.1129 0.2018
vn -0.9301 -0.3064 0.2028
vn -0.9744 -0.0865 0.2076
vn -0.0132 -0.7273 -0.6862
vn -0.0112 -0.6534 -0.7570
vn -0.0210 -0.9998 0.0005
vn 0.0015 0.1001 -0.9950
vn -0.0132 -0.7273 0.6862
vn 0.0015 0.0689 -0.9976
vn -0.0112 -0.6534 0.7570
vn -0.0386 0.6923 -0.7206
vn 0.0014 0.1001 0.9950
vn -0.0503 0.7967 -0.6023
vn 0.0015 0.0689 0.9976
vn -0.0757 0.9971 0.0005
vn -0.0386 0.6923 0.7206
vn -0.0503 0.7967 0.6023
vt 0.000000 0.000000
s 1
f 1/1/1 2/1/2 3/1/3
f 4/1/4 3/1/3 2/1/2
f 1/1/1 3/1/3 5/1/5
f 3/1/3 4/1/4 6/1/6
f 7/1/7 1/1/1 5/1/5
f 1/1/1 7/1/7 8/1/8
f 3/1/3 9/1/9 5/1/5
f 3/1/3 6/1/6 9/1/9
f 9/1/9 7/1/7 5/1/5
f 10/1/10 8/1/8 7/1/7
f 4/1/4 11/1/11 6/1/6
f 11/1/11 9/1/9 6/1/6
f 11/1/11 4/1/4 12/1/12
f 13/1/13 11/1/11 12/1/12
f 7/1/7 14/1/14 10/1/10
f 7/1/7 9/1/9 14/1/14
f 11/1/11 13/1/13 15/1/15
f 9/1/9 11/1/11 15/1/15
f 15/1/15 13/1/13 16/1/16
f 16/1/16 9/1/9 15/1/15
f 9/1/9 16/1/16 14/1/14
f 16/1/16 10/1/10 14/1/14
f 13/1/13 17/1/17 16/1/16
f 10/1/10 16/1/16 17/1/17
f 18/1/18 19/1/19 20/1/20
f 21/1/21 20/1/20 19/1/19
f 19/1/19 18/1/18 22/1/22
f 21/1/21 19/1/19 23/1/23
f 18/1/18 20/1/20 24/1/24
f 21/1/21 24/1/24 20/1/20
f 24/1/24 25/1/25 18/1/18
f 24/1/24 21/1/21 26/1/26
f 27/1/27 18/1/18 25/1/25
f 21/1/21 28/1/28 26/1/26
f 23/1/23 29/1/29 21/1/21
f 28/1/28 21/1/21 29/1/29
f 29/1/29 23/1/23 30/1/30
f 31/1/31 29/1/29 30/1/30
f 32/1/32 28/1/28 29/1/29
f 29/1/29 31/1/31 32/1/32
f 33/1/33 28/1/28 32/1/32
f 34/1/34 32/1/32 31/1/31
f 32/1/32 35/1/35 33/1/33
f 32/1/32 34/1/34 36/1/36
f 35/1/35 32/1/32 36/1/36
f 34/1/34 37/1/37 36/1/36
f 37/1/37 35/1/35 36/1/36
f 35/1/35 37/1/37 38/1/38
f 27/1/27 38/1/38 37/1/37
f 37/1/37 34/1/34 39/1/39
f 37/1/37 40/1/40 27/1/27
f 40/1/40 37/1/37 39/1/39
f 18/1/18 27/1/27 40/1/40
f 39/1/39 41/1/41 40/1/40
f 40/1/40 22/1/22 18/1/18
f 22/1/22 40/1/40 41/1/41
f 42/1/42 43/1/43 44/1/44
f 43/1/43 45/1/45 44/1/44
f 46/1/46 42/1/42 44/1/44
f 45/1/45 47/1/47 44/1/44
f 48/1/48 46/1/46 44/1/44
f 47/1/47 49/1/49 44/1/44
f 50/1/50 48/1/48 44/1/44
f 49/1/49 50/1/50 44/1/44
f 51/1/51 52/1/51 53/1/51
f 54/1/51 53/1/51 52/1/51
f 53/1/51 54/1/51 55/1/51
f 52/1/51 51/1/51 56/1/51
f 56/1/51 51/1/51 57/1/51
f 58/1/51 56/1/51 57/1/51
f 58/1/51 57/1/51 59/1/51
f 60/1/51 61/1/51 62/1/51
f 60/1/51 62/1/51 63/1/51
f 64/1/52 65/1/53 66/1/53
f 65/1/53 64/1/52 67/1/52
f 68/1/54 67/1/52 64/1/52
f 68/1/54 69/1/55 67/1/52
f 69/1/55 68/1/54 70/1/53
f 70/1/53 68/1/54 71/1/53
f 72/1/56 73/1/56 74/1/56
f 75/1/56 74/1/56 73/1/56
f 76/1/56 72/1/56 74/1/56
f 77/1/56 75/1/56 73/1/56
f 76/1/56 78/1/56 72/1/56
f 79/1/56 75/1/56 77/1/56
f 78/1/56 76/1/56 80/1/56
f 77/1/56 81/1/56 79/1/56
f 82/1/56 78/1/56 80/1/56
f 81/1/56 83/1/56 79/1/56
f 82/1/56 80/1/56 84/1/56
f 81/1/56 85/1/56 83/1/56
f 82/1/56 84/1/56 85/1/56
f 85/1/56 81/1/56 82/1/56
f 86/1/57 87/1/58 88/1/59
f 88/1/59 89/1/60 86/1/57
f 89/1/60 88/1/59 90/1/61
f 87/1/58 86/1/57 91/1/62
f 92/1/63 91/1/62 86/1/57
f 89/1/60 92/1/63 86/1/57
f 93/1/64 87/1/58 91/1/62
f 87/1/58 93/1/64 94/1/65
f 90/1/61 95/1/66 89/1/60
f 95/1/66 90/1/61 96/1/67
f 96/1/67 97/1/68 95/1/66
f 97/1/68 98/1/69 95/1/66
f 97/1/68 99/1/70 98/1/69
f 89/1/60 95/1/66 100/1/71
f 98/1/69 100/1/71 95/1/66
f 89/1/60 100/1/71 101/1/72
f 92/1/63 89/1/60 101/1/72
f 101/1/72 102/1/73 92/1/63
f 102/1/73 101/1/72 103/1/74
f 100/1/71 103/1/74 101/1/72
f 104/1/75 92/1/63 102/1/73
f 103/1/74 100/1/71 105/1/76
f 100/1/71 106/1/77 105/1/76
f 100/1/71 107/1/78 106/1/77
f 100/1/71 98/1/69 107/1/78
f 108/1/79 106/1/77 107/1/78
f 92/1/63 104/1/75 109/1/80
f 91/1/62 92/1/63 109/1/80
f 93/1/64 91/1/62 109/1/80
f 110/1/81 109/1/80 104/1/75
f 110/1/81 93/1/64 109/1/80
f 111/1/82 110/1/81 104/1/75
f 112/1/83 110/1/81 111/1/82
f 112/1/83 93/1/64 110/1/81
f 111/1/82 113/1/84 112/1/83
f 108/1/79 112/1/83 113/1/84
f 93/1/64 112/1/83 114/1/85
f 114/1/85 94/1/65 93/1/64
f 115/1/86 94/1/65 114/1/85
f 114/1/85 99/1/70 115/1/86
f 99/1/70 114/1/85 116/1/87
f 116/1/87 114/1/85 112/1/83
f 98/1/69 99/1/70 116/1/87
f 112/1/83 108/1/79 117/1/88
f 112/1/83 117/1/88 116/1/87
f 98/1/69 116/1/87 117/1/88
f 107/1/78 117/1/88 108/1/79
f 107/1/78 98/1/69 117/1/88
f 118/1/89 119/1/90 120/1/91
f 120/1/91 119/1/90 121/1/92
f 122/1/93 118/1/89 120/1/91
f 119/1/90 123/1/94 121/1/92
f 122/1/93 124/1/93 118/1/89
f 122/1/93 125/1/95 124/1/93
f 125/1/95 122/1/93 126/1/95
f 121/1/92 123/1/94 127/1/96
f 128/1/97 127/1/96 123/1/94
f 123/1/94 129/1/97 128/1/97
f 130/1/98 131/1/98 132/1/98
f 131/1/98 130/1/98 133/1/98
f 134/1/98 135/1/98 136/1/98
f 137/1/98 136/1/98 135/1/98
f 138/1/98 139/1/98 140/1/98
f 138/1/98 140/1/98 141/1/98
f 142/1/99 143/1/100 144/1/93
f 143/1/100 142/1/99 145/1/101
f 146/1/98 143/1/100 145/1/101
f 147/1/98 146/1/98 145/1/101
f 148/1/102 146/1/98 147/1/98
f 149/1/103 148/1/102 147/1/98
f 148/1/102 149/1/103 150/1/104
f 148/1/102 150/1/104 151/1/94
f 152/1/105 153/1/106 154/1/107
f 153/1/106 155/1/108 154/1/107
f 154/1/107 156/1/109 152/1/105
f 155/1/108 153/1/106 157/1/110
f 153/1/106 152/1/105 158/1/111
f 157/1/110 153/1/106 158/1/111
f 157/1/110 159/1/112 155/1/108
f 158/1/111 160/1/113 157/1/110
f 159/1/112 157/1/110 160/1/113
f 159/1/112 161/1/114 155/1/108
f 158/1/111 162/1/115 160/1/113
f 162/1/115 159/1/112 160/1/113
f 152/1/105 163/1/116 158/1/111
f 158/1/111 163/1/116 162/1/115
f 152/1/105 164/1/117 163/1/116
f 152/1/105 156/1/109 164/1/117
f 156/1/109 165/1/118 164/1/117
f 165/1/118 156/1/109 166/1/119
f 164/1/117 167/1/120 163/1/116
f 167/1/120 164/1/117 165/1/118
f 162/1/115 163/1/116 167/1/120
f 166/1/119 167/1/120 165/1/118
f 168/1/121 167/1/120 166/1/119
f 167/1/120 169/1/122 162/1/115
f 167/1/120 168/1/121 169/1/122
f 169/1/122 168/1/121 170/1/123
f 161/1/114 170/1/123 168/1/121
f 171/1/124 162/1/115 169/1/122
f 171/1/124 169/1/122 170/1/123
f 171/1/124 170/1/123 161/1/114
f 159/1/112 162/1/115 171/1/124
f 161/1/114 159/1/112 171/1/124
f 172/1/125 173/1/126 174/1/127
f 175/1/128 174/1/127 173/1/126
f 173/1/126 172/1/125 176/1/129
f 177/1/130 176/1/129 172/1/125
f 173/1/126 178/1/131 175/1/128
f 177/1/130 175/1/128 178/1/131
f 173/1/126 176/1/129 178/1/131
f 176/1/129 177/1/130 179/1/132
f 177/1/130 178/1/131 179/1/132
f 179/1/132 178/1/131 176/1/129
f 180/1/133 181/1/134 182/1/135
f 182/1/135 183/1/133 180/1/133
f 184/1/136 185/1/137 186/1/136
f 185/1/137 184/1/136 187/1/138
f 188/1/139 189/1/140 190/1/141
f 190/1/141 191/1/142 188/1/139
f 191/1/142 190/1/141 192/1/143
f 191/1/142 193/1/144 188/1/139
f 193/1/144 189/1/140 188/1/139
f 194/1/145 193/1/144 191/1/142
f 195/1/146 193/1/144 194/1/145
f 196/1/147 192/1/143 190/1/141
f 190/1/141 189/1/140 196/1/147
f 192/1/143 196/1/147 197/1/148
f 196/1/147 198/1/149 197/1/148
f 198/1/149 196/1/147 189/1/140
f 199/1/150 198/1/149 189/1/140
f 189/1/140 193/1/144 199/1/150
f 198/1/149 199/1/150 200/1/151
f 199/1/150 201/1/152 200/1/151
f 201/1/152 199/1/150 202/1/153
f 199/1/150 193/1/144 202/1/153
f 201/1/152 202/1/153 203/1/154
f 193/1/144 195/1/146 204/1/155
f 202/1/153 193/1/144 204/1/155
f 203/1/154 204/1/155 195/1/146
f 202/1/153 204/1/155 205/1/156
f 204/1/155 203/1/154 205/1/156
f 203/1/154 202/1/153 205/1/156
f 206/1/157 207/1/158 208/1/159
f 209/1/160 207/1/158 206/1/157
f 208/1/159 207/1/158 210/1/161
f 211/1/162 208/1/159 210/1/161
f 208/1/159 211/1/162 212/1/163
f 210/1/161 213/1/164 211/1/162
f 213/1/164 210/1/161 207/1/158
f 214/1/165 212/1/163 211/1/162
f 211/1/162 213/1/164 214/1/165
f 212/1/163 214/1/165 215/1/166
f 214/1/165 216/1/167 215/1/166
f 216/1/167 214/1/165 213/1/164
f 217/1/168 216/1/167 213/1/164
f 207/1/158 217/1/168 213/1/164
f 216/1/167 217/1/168 218/1/169
f 217/1/168 219/1/170 218/1/169
f 219/1/170 217/1/168 220/1/171
f 217/1/168 207/1/158 220/1/171
f 219/1/170 220/1/171 221/1/172
f 221/1/172 220/1/171 222/1/173
f 220/1/171 207/1/158 223/1/174
f 220/1/171 223/1/174 222/1/173
f 223/1/174 221/1/172 222/1/173
f 207/1/158 209/1/160 223/1/174
f 221/1/172 223/1/174 209/1/160
f 224/1/175 225/1/176 226/1/177
f 225/1/176 224/1/175 227/1/178
f 228/1/179 227/1/178 224/1/175
f 229/1/180 226/1/177 225/1/176
f 224/1/175 230/1/181 228/1/179
f 231/1/182 228/1/179 230/1/181
f 224/1/175 231/1/182 230/1/181
f 226/1/177 231/1/182 224/1/175
f 228/1/179 231/1/182 232/1/183
f 233/1/184 232/1/183 231/1/182
f 234/1/185 233/1/184 231/1/182
f 231/1/182 226/1/177 234/1/185
f 235/1/186 233/1/184 234/1/185
f 226/1/177 229/1/180 236/1/187
f 236/1/187 234/1/185 226/1/177
f 234/1/185 237/1/188 235/1/186
f 234/1/185 236/1/187 237/1/188
f 238/1/189 235/1/186 237/1/188
f 235/1/186 238/1/189 239/1/190
f 237/1/188 236/1/187 240/1/191
f 240/1/191 236/1/187 229/1/180
f 237/1/188 240/1/191 238/1/189
f 240/1/191 239/1/190 238/1/189
f 229/1/180 241/1/192 240/1/191
f 239/1/190 240/1/191 241/1/192
f 242/1/193 243/1/194 244/1/195
f 244/1/195 245/1/196 242/1/193
f 246/1/197 244/1/195 243/1/194
f 244/1/195 246/1/197 247/1/198
f 248/1/199 247/1/198 246/1/197
f 243/1/194 248/1/199 246/1/197
f 247/1/198 248/1/199 249/1/200
f 250/1/201 249/1/200 248/1/199
f 243/1/194 251/1/187 248/1/199
f 248/1/199 251/1/187 250/1/201
f 251/1/187 243/1/194 252/1/202
f 252/1/202 250/1/201 251/1/187
f 242/1/193 252/1/202 243/1/194
f 250/1/201 252/1/202 253/1/203
f 242/1/193 245/1/196 254/1/204
f 254/1/204 252/1/202 242/1/193
f 245/1/196 255/1/205 254/1/204
f 256/1/206 254/1/204 255/1/205
f 257/1/207 253/1/203 252/1/202
f 252/1/202 254/1/204 257/1/207
f 253/1/203 257/1/207 258/1/208
f 256/1/206 258/1/208 257/1/207
f 257/1/207 254/1/204 259/1/209
f 254/1/204 256/1/206 259/1/209
f 257/1/207 259/1/209 256/1/206
f 260/1/210 261/1/211 262/1/212
f 263/1/213 262/1/212 261/1/211
f 261/1/211 260/1/210 264/1/214
f 265/1/215 264/1/214 260/1/210
f 263/1/213 261/1/211 266/1/216
f 266/1/216 267/1/217 263/1/213
f 261/1/211 264/1/214 268/1/218
f 266/1/216 261/1/211 268/1/218
f 264/1/214 265/1/215 269/1/219
f 264/1/214 269/1/219 268/1/218
f 267/1/217 266/1/216 270/1/220
f 270/1/220 266/1/216 268/1/218
f 271/1/221 267/1/217 270/1/220
f 271/1/221 270/1/220 268/1/218
f 267/1/217 271/1/221 272/1/222
f 273/1/223 272/1/222 271/1/221
f 273/1/223 271/1/221 274/1/224
f 274/1/224 271/1/221 268/1/218
f 269/1/219 275/1/225 268/1/218
f 265/1/215 275/1/225 269/1/219
f 275/1/225 276/1/226 268/1/218
f 275/1/225 265/1/215 277/1/227
f 275/1/225 278/1/228 276/1/226
f 278/1/228 275/1/225 277/1/227
f 279/1/229 280/1/230 281/1/231
f 280/1/230 279/1/229 282/1/232
f 283/1/233 282/1/232 279/1/229
f 279/1/229 281/1/231 284/1/234
f 283/1/233 279/1/229 285/1/235
f 285/1/235 279/1/229 284/1/234
f 286/1/236 283/1/233 285/1/235
f 286/1/236 285/1/235 284/1/234
f 283/1/233 286/1/236 287/1/237
f 288/1/238 287/1/237 286/1/236
f 288/1/238 286/1/236 284/1/234
f 287/1/237 288/1/238 289/1/239
f 290/1/240 289/1/239 288/1/238
f 291/1/241 290/1/240 288/1/238
f 291/1/241 288/1/238 284/1/234
f 291/1/241 292/1/242 290/1/240
f 293/1/243 291/1/241 284/1/234
f 292/1/242 291/1/241 293/1/243
f 294/1/244 293/1/243 284/1/234
f 294/1/244 292/1/242 293/1/243
f 295/1/245 294/1/244 284/1/234
f 292/1/242 294/1/244 296/1/246
f 297/1/247 294/1/244 295/1/245
f 294/1/244 297/1/247 296/1/246
f 298/1/97 299/1/97 300/1/97
f 299/1/97 298/1/97 301/1/97
f 302/1/95 303/1/95 304/1/95
f 304/1/95 305/1/95 302/1/95
f 306/1/95 307/1/101 308/1/95
f 307/1/101 306/1/95 309/1/101
f 308/1/95 310/1/248 306/1/95
f 311/1/98 307/1/101 309/1/101
f 310/1/248 308/1/95 312/1/248
f 313/1/98 311/1/98 309/1/101
f 314/1/249 310/1/248 312/1/248
f 315/1/102 311/1/98 313/1/98
f 314/1/249 316/1/249 310/1/248
f 317/1/102 315/1/102 313/1/98
f 318/1/250 316/1/249 314/1/249
f 315/1/102 317/1/102 319/1/97
f 318/1/250 320/1/250 316/1/249
f 315/1/102 319/1/97 321/1/97
f 321/1/97 320/1/250 318/1/250
f 321/1/97 319/1/97 320/1/250
f 322/1/251 323/1/251 324/1/98
f 325/1/98 324/1/98 323/1/251
f 322/1/251 326/1/97 323/1/251
f 324/1/98 325/1/98 327/1/101
f 326/1/97 322/1/251 328/1/97
f 329/1/101 327/1/101 325/1/98
f 328/1/97 330/1/250 326/1/97
f 329/1/101 331/1/95 327/1/101
f 330/1/250 328/1/97 332/1/250
f 331/1/95 329/1/101 333/1/95
f 332/1/250 334/1/249 330/1/250
f 333/1/95 335/1/252 331/1/95
f 334/1/249 332/1/250 336/1/249
f 335/1/252 333/1/95 337/1/252
f 336/1/249 337/1/252 334/1/249
f 337/1/252 336/1/249 335/1/252
f 338/1/249 339/1/249 340/1/249
f 340/1/249 339/1/249 341/1/249
f 342/1/253 343/1/254 344/1/254
f 344/1/254 343/1/254 345/1/254
f 343/1/254 342/1/253 346/1/255
f 346/1/255 347/1/255 343/1/254
f 348/1/254 347/1/255 346/1/255
f 347/1/255 348/1/254 349/1/254
f 350/1/51 351/1/51 352/1/51
f 351/1/51 353/1/51 352/1/51
f 351/1/51 350/1/51 354/1/51
f 351/1/51 355/1/51 353/1/51
f 354/1/51 350/1/51 356/1/51
f 355/1/51 357/1/51 353/1/51
f 358/1/51 354/1/51 356/1/51
f 359/1/51 357/1/51 355/1/51
f 360/1/51 354/1/51 358/1/51
f 357/1/51 359/1/51 361/1/51
f 362/1/51 360/1/51 358/1/51
f 359/1/51 363/1/51 361/1/51
f 360/1/51 362/1/51 363/1/51
f 362/1/51 361/1/51 363/1/51
f 364/1/56 365/1/56 366/1/56
f 365/1/56 364/1/56 367/1/56
f 367/1/56 368/1/56 365/1/56
f 369/1/56 368/1/56 367/1/56
f 368/1/56 369/1/56 370/1/56
f 369/1/56 371/1/56 370/1/56
f 372/1/56 370/1/56 371/1/56
f 373/1/56 374/1/56 375/1/56
f 374/1/56 373/1/56 376/1/56
f 377/1/256 378/1/257 379/1/258
f 378/1/257 380/1/259 379/1/258
f 378/1/257 377/1/256 381/1/260
f 380/1/259 378/1/257 382/1/261
f 378/1/257 381/1/260 383/1/262
f 382/1/261 378/1/257 384/1/263
f 378/1/257 383/1/262 385/1/264
f 385/1/264 384/1/263 378/1/257
f 386/1/265 387/1/266 388/1/267
f 388/1/267 389/1/267 386/1/265
f 390/1/268 387/1/266 386/1/265
f 388/1/267 391/1/269 389/1/267
f 387/1/266 390/1/268 392/1/270
f 391/1/269 388/1/267 393/1/271
f 390/1/268 394/1/272 392/1/270
f 395/1/273 391/1/269 393/1/271
f 394/1/272 390/1/268 396/1/274
f 393/1/271 397/1/275 395/1/273
f 396/1/274 398/1/276 394/1/272
f 397/1/275 399/1/277 395/1/273
f 398/1/276 396/1/274 400/1/276
f 395/1/273 399/1/277 401/1/278
f 398/1/276 401/1/278 399/1/277
f 398/1/276 400/1/276 401/1/278
o RenderMesh_100412040515495
v -0.313032 0.065106 -0.045904
v -0.313032 0.065106 0.034096
v -0.313032 0.086191 -0.045904
v -0.313032 0.086191 0.034096
v -0.195480 0.098631 -0.033904
v -0.195480 0.065106 0.034096
v -0.195480 0.065106 -0.045904
v -0.195480 0.098631 0.022096
v -0.201667 0.125450 0.010896
v -0.201667 0.125450 -0.022704
v -0.214041 0.158974 -0.022704
v -0.214041 0.158974 0.010896
v -0.235310 0.179472 -0.022704
v -0.235310 0.179472 0.010896
v -0.252592 0.181153 -0.022704
v -0.252592 0.181153 0.010896
v -0.252691 0.174637 -0.022704
v -0.252691 0.174637 0.010896
v -0.252592 0.181153 -0.022704
v -0.252592 0.181153 0.010896
v -0.286574 0.098631 -0.033904
v -0.313032 0.065106 -0.045904
v -0.313032 0.086191 -0.045904
v -0.242247 0.098631 -0.033904
v -0.195480 0.065106 -0.045904
v -0.195480 0.098631 -0.033904
v -0.223686 0.125450 -0.022704
v -0.201667 0.125450 -0.022704
v -0.223686 0.145564 -0.022704
v -0.214041 0.158974 -0.022704
v -0.238840 0.166284 -0.022704
v -0.235310 0.179472 -0.022704
v -0.252691 0.174637 -0.022704
v -0.252592 0.181153 -0.022704
v -0.195480 0.065106 0.034096
v -0.242247 0.098631 0.022096
v -0.313032 0.065106 0.034096
v -0.195480 0.098631 0.022096
v -0.286574 0.098631 0.022096
v -0.313032 0.086191 0.034096
v -0.223686 0.125450 0.010896
v -0.201667 0.125450 0.010896
v -0.223686 0.145564 0.010896
v -0.214041 0.158974 0.010896
v -0.238840 0.166284 0.010896
v -0.235310 0.179472 0.010896
v -0.252691 0.174637 0.010896
v -0.252592 0.181153 0.010896
v -0.242247 0.098631 -0.033904
v -0.286574 0.098631 -0.033904
v -0.286574 0.098631 0.022096
v -0.313032 0.086191 -0.045904
v -0.313032 0.086191 0.034096
v -0.242247 0.098631 0.022096
v -0.223686 0.125450 -0.022704
v -0.223686 0.125450 0.010896
v -0.223686 0.145564 0.010896
v -0.223686 0.145564 -0.022704
v -0.238840 0.166284 0.010896
v -0.238840 0.166284 -0.022704
v -0.252691 0.174637 0.010896
v -0.252691 0.174637 -0.022704
vn -1.0000 -0.0000 -0.0000
vn 0.9938 0.1108 -0.0000
vn 1.0000 -0.0000 -0.0000
vn 0.9582 0.2861 -0.0000
vn 0.8194 0.5733 -0.0000
vn 0.2564 0.9666 -0.0000
vn 0.0968 0.9953 -0.0000
vn -0.9999 0.0152 -0.0000
vn 0.0317 0.3145 -0.9487
vn 0.0318 0.3144 -0.9487
vn 0.0318 0.3144 -0.9488
vn 0.0217 0.3373 -0.9411
vn 0.0159 0.3501 -0.9366
vn -0.0000 0.2131 -0.9770
vn -0.0000 0.2124 -0.9772
vn -0.0000 -0.0000 -1.0000
vn 0.0317 0.3145 0.9487
vn 0.0217 0.3373 0.9411
vn 0.0318 0.3144 0.9487
vn 0.0159 0.3501 0.9366
vn 0.0318 0.3144 0.9488
vn -0.0000 0.2131 0.9770
vn -0.0000 0.2124 0.9772
vn -0.0000 -0.0000 1.0000
vn -0.1781 0.9840 -0.0000
vn -0.1443 0.9895 -0.0000
vn -0.4255 0.9050 -0.0000
vn -0.9438 0.3304 -0.0000
vn -0.9399 -0.3415 -0.0000
vn -0.6453 -0.7639 -0.0000
vn -0.5164 -0.8563 -0.0000
vt 0.000000 0.000000
s 1
f 402/2/279 403/2/279 404/2/279
f 404/2/279 403/2/279 405/2/279
f 406/2/280 407/2/281 408/2/281
f 407/2/281 406/2/280 409/2/280
f 406/2/280 410/2/282 409/2/280
f 410/2/282 406/2/280 411/2/282
f 412/2/283 410/2/282 411/2/282
f 410/2/282 412/2/283 413/2/283
f 414/2/284 413/2/283 412/2/283
f 413/2/283 414/2/284 415/2/284
f 416/2/285 415/2/284 414/2/284
f 415/2/284 416/2/285 417/2/285
f 418/2/286 419/2/286 420/2/286
f 420/2/286 419/2/286 421/2/286
f 422/2/287 423/2/288 424/2/289
f 425/2/290 423/2/288 422/2/287
f 423/2/288 425/2/290 426/2/287
f 425/2/290 427/2/291 426/2/287
f 427/2/291 425/2/290 428/2/292
f 427/2/291 428/2/292 429/2/293
f 430/2/294 429/2/293 428/2/292
f 429/2/293 430/2/294 431/2/294
f 432/2/294 431/2/294 430/2/294
f 431/2/294 432/2/294 433/2/294
f 432/2/294 434/2/294 433/2/294
f 435/2/294 433/2/294 434/2/294
f 436/2/295 437/2/296 438/2/297
f 437/2/296 436/2/295 439/2/298
f 438/2/297 437/2/296 440/2/295
f 438/2/297 440/2/295 441/2/299
f 439/2/298 442/2/300 437/2/296
f 442/2/300 439/2/298 443/2/301
f 443/2/301 444/2/302 442/2/300
f 444/2/302 443/2/301 445/2/302
f 445/2/302 446/2/302 444/2/302
f 446/2/302 445/2/302 447/2/302
f 447/2/302 448/2/302 446/2/302
f 448/2/302 447/2/302 449/2/302
f 450/2/303 451/2/304 452/2/304
f 453/2/305 452/2/304 451/2/304
f 452/2/304 453/2/305 454/2/305
f 450/2/303 452/2/304 455/2/303
f 455/2/303 456/2/306 450/2/303
f 456/2/306 455/2/303 457/2/306
f 456/2/306 457/2/306 458/2/307
f 459/2/307 456/2/306 458/2/307
f 459/2/307 458/2/307 460/2/308
f 461/2/308 459/2/307 460/2/308
f 461/2/308 460/2/308 462/2/309
f 463/2/309 461/2/308 462/2/309
