# Blender 5.2.0 LTS
# www.blender.org
mtllib secondbody.mtl
o RenderMesh_12613284768
v 0.827530 -0.735026 -0.069936
v 0.827530 -0.735026 0.069936
v 0.796538 -0.722676 -0.069936
v 0.796538 -0.722676 0.069936
v 0.997345 -0.211927 -0.069936
v 0.997345 -0.211927 0.069936
v 1.028338 -0.224277 -0.069936
v 1.028338 -0.224277 0.069936
v 0.941457 -0.780421 -0.069936
v 0.941457 -0.780421 0.069936
v 0.910463 -0.768071 -0.069936
v 0.910463 -0.768071 0.069936
v 1.111271 -0.257323 -0.069936
v 1.111271 -0.257323 0.069936
v 1.142263 -0.269672 -0.069936
v 1.142263 -0.269672 0.069936
v 0.713605 -0.689630 -0.069936
v 0.713605 -0.689630 0.069936
v 0.682613 -0.677280 -0.069936
v 0.682613 -0.677280 0.069936
v 0.883419 -0.166532 -0.069936
v 0.883419 -0.166532 0.069936
v 0.914411 -0.178881 -0.069936
v 0.914411 -0.178881 0.069936
v 1.142263 -0.269672 -0.069936
v 1.142263 -0.269672 0.069936
v 1.135606 -0.376126 -0.069936
v 1.135606 -0.376126 0.069936
v 1.114177 -0.491771 -0.069936
v 1.114177 -0.491771 0.069936
v 1.071965 -0.599135 -0.069936
v 1.071965 -0.599135 0.069936
v 1.008972 -0.698218 -0.069936
v 1.008972 -0.698218 0.069936
v 0.941457 -0.780421 -0.069936
v 0.941457 -0.780421 0.069936
v 0.876763 -0.272986 -0.069936
v 0.876763 -0.272986 0.069936
v 0.883419 -0.166532 -0.069936
v 0.883419 -0.166532 0.069936
v 0.855332 -0.388630 0.069936
v 0.855332 -0.388630 -0.069936
v 0.813122 -0.495994 0.069936
v 0.813122 -0.495994 -0.069936
v 0.750128 -0.595077 0.069936
v 0.750128 -0.595077 -0.069936
v 0.682613 -0.677280 0.069936
v 0.682613 -0.677280 -0.069936
v 0.990688 -0.318381 0.069936
v 1.028338 -0.224277 0.069936
v 0.997345 -0.211927 0.069936
v 1.021681 -0.330731 0.069936
v 0.969259 -0.434026 0.069936
v 1.000251 -0.446375 0.069936
v 0.958040 -0.553739 0.069936
v 0.927047 -0.541390 0.069936
v 0.895047 -0.652822 0.069936
v 0.864054 -0.640473 0.069936
v 0.827530 -0.735026 0.069936
v 0.796538 -0.722676 0.069936
v 1.028338 -0.224277 -0.069936
v 0.990688 -0.318381 -0.069936
v 0.997345 -0.211927 -0.069936
v 1.021681 -0.330731 -0.069936
v 0.969259 -0.434026 -0.069936
v 1.000251 -0.446375 -0.069936
v 0.958040 -0.553739 -0.069936
v 0.927047 -0.541390 -0.069936
v 0.895047 -0.652822 -0.069936
v 0.864054 -0.640473 -0.069936
v 0.827530 -0.735026 -0.069936
v 0.796538 -0.722676 -0.069936
v 1.104614 -0.363777 0.069936
v 1.142263 -0.269672 0.069936
v 1.111271 -0.257323 0.069936
v 1.135606 -0.376126 0.069936
v 1.083184 -0.479422 0.069936
v 1.114177 -0.491771 0.069936
v 1.071965 -0.599135 0.069936
v 1.040972 -0.586785 0.069936
v 1.008972 -0.698218 0.069936
v 0.977980 -0.685869 0.069936
v 0.941457 -0.780421 0.069936
v 0.910463 -0.768071 0.069936
v 1.142263 -0.269672 -0.069936
v 1.104614 -0.363777 -0.069936
v 1.111271 -0.257323 -0.069936
v 1.135606 -0.376126 -0.069936
v 1.083184 -0.479422 -0.069936
v 1.114177 -0.491771 -0.069936
v 1.071965 -0.599135 -0.069936
v 1.040972 -0.586785 -0.069936
v 1.008972 -0.698218 -0.069936
v 0.977980 -0.685869 -0.069936
v 0.941457 -0.780421 -0.069936
v 0.910463 -0.768071 -0.069936
v 0.876763 -0.272986 0.069936
v 0.914411 -0.178881 0.069936
v 0.883419 -0.166532 0.069936
v 0.907755 -0.285335 0.069936
v 0.855332 -0.388630 0.069936
v 0.886326 -0.400980 0.069936
v 0.844114 -0.508344 0.069936
v 0.813122 -0.495994 0.069936
v 0.781121 -0.607427 0.069936
v 0.750128 -0.595077 0.069936
v 0.713605 -0.689630 0.069936
v 0.682613 -0.677280 0.069936
v 0.914411 -0.178881 -0.069936
v 0.876763 -0.272986 -0.069936
v 0.883419 -0.166532 -0.069936
v 0.907755 -0.285335 -0.069936
v 0.855332 -0.388630 -0.069936
v 0.886326 -0.400980 -0.069936
v 0.844114 -0.508344 -0.069936
v 0.813122 -0.495994 -0.069936
v 0.781121 -0.607427 -0.069936
v 0.750128 -0.595077 -0.069936
v 0.713605 -0.689630 -0.069936
v 0.682613 -0.677280 -0.069936
v 1.028338 -0.224277 -0.069936
v 1.028338 -0.224277 0.069936
v 1.021681 -0.330731 -0.069936
v 1.021681 -0.330731 0.069936
v 1.000251 -0.446375 -0.069936
v 1.000251 -0.446375 0.069936
v 0.958040 -0.553739 -0.069936
v 0.958040 -0.553739 0.069936
v 0.895047 -0.652822 -0.069936
v 0.895047 -0.652822 0.069936
v 0.827530 -0.735026 -0.069936
v 0.827530 -0.735026 0.069936
v 0.990688 -0.318381 -0.069936
v 0.990688 -0.318381 0.069936
v 0.997345 -0.211927 -0.069936
v 0.997345 -0.211927 0.069936
v 0.969259 -0.434026 0.069936
v 0.969259 -0.434026 -0.069936
v 0.927047 -0.541390 0.069936
v 0.927047 -0.541390 -0.069936
v 0.864054 -0.640473 0.069936
v 0.864054 -0.640473 -0.069936
v 0.796538 -0.722676 0.069936
v 0.796538 -0.722676 -0.069936
v 0.914411 -0.178881 0.069936
v 0.907755 -0.285335 -0.069936
v 0.914411 -0.178881 -0.069936
v 0.907755 -0.285335 0.069936
v 0.886326 -0.400980 -0.069936
v 0.886326 -0.400980 0.069936
v 0.844114 -0.508344 -0.069936
v 0.844114 -0.508344 0.069936
v 0.781121 -0.607427 -0.069936
v 0.781121 -0.607427 0.069936
v 0.713605 -0.689630 -0.069936
v 0.713605 -0.689630 0.069936
v 1.104614 -0.363777 -0.069936
v 1.104614 -0.363777 0.069936
v 1.111271 -0.257323 -0.069936
v 1.111271 -0.257323 0.069936
v 1.083184 -0.479422 0.069936
v 1.083184 -0.479422 -0.069936
v 1.040972 -0.586785 0.069936
v 1.040972 -0.586785 -0.069936
v 0.977980 -0.685869 0.069936
v 0.977980 -0.685869 -0.069936
v 0.910463 -0.768071 0.069936
v 0.910463 -0.768071 -0.069936
vn -0.3702 -0.9290 -0.0000
vn 0.3702 0.9290 -0.0000
vn 0.9981 -0.0624 -0.0000
vn 0.9925 -0.1225 -0.0000
vn 0.9614 -0.2753 -0.0000
vn 0.8914 -0.4533 -0.0000
vn 0.8098 -0.5867 -0.0000
vn 0.7728 -0.6347 -0.0000
vn -0.9925 0.1225 -0.0000
vn -0.9981 0.0624 -0.0000
vn -0.9614 0.2753 -0.0000
vn -0.8914 0.4533 -0.0000
vn -0.8098 0.5867 -0.0000
vn -0.7728 0.6347 -0.0000
vn -0.0000 -0.0000 1.0000
vn -0.0000 -0.0000 -1.0000
vt 0.000000 0.000000
s 1
f 1/1/1 2/1/1 3/1/1
f 3/1/1 2/1/1 4/1/1
f 5/1/2 6/1/2 7/1/2
f 7/1/2 6/1/2 8/1/2
f 9/1/1 10/1/1 11/1/1
f 11/1/1 10/1/1 12/1/1
f 13/1/2 14/1/2 15/1/2
f 15/1/2 14/1/2 16/1/2
f 17/1/1 18/1/1 19/1/1
f 19/1/1 18/1/1 20/1/1
f 21/1/2 22/1/2 23/1/2
f 23/1/2 22/1/2 24/1/2
f 25/1/3 26/1/3 27/1/4
f 27/1/4 26/1/3 28/1/4
f 27/1/4 28/1/4 29/1/5
f 29/1/5 28/1/4 30/1/5
f 29/1/5 30/1/5 31/1/6
f 31/1/6 30/1/5 32/1/6
f 31/1/6 32/1/6 33/1/7
f 33/1/7 32/1/6 34/1/7
f 33/1/7 34/1/7 35/1/8
f 35/1/8 34/1/7 36/1/8
f 37/1/9 38/1/9 39/1/10
f 39/1/10 38/1/9 40/1/10
f 37/1/9 41/1/11 38/1/9
f 42/1/11 41/1/11 37/1/9
f 42/1/11 43/1/12 41/1/11
f 44/1/12 43/1/12 42/1/11
f 44/1/12 45/1/13 43/1/12
f 46/1/13 45/1/13 44/1/12
f 46/1/13 47/1/14 45/1/13
f 48/1/14 47/1/14 46/1/13
f 49/1/15 50/1/15 51/1/15
f 50/1/15 49/1/15 52/1/15
f 53/1/15 52/1/15 49/1/15
f 52/1/15 53/1/15 54/1/15
f 55/1/15 54/1/15 53/1/15
f 53/1/15 56/1/15 55/1/15
f 57/1/15 55/1/15 56/1/15
f 56/1/15 58/1/15 57/1/15
f 59/1/15 57/1/15 58/1/15
f 58/1/15 60/1/15 59/1/15
f 61/1/16 62/1/16 63/1/16
f 62/1/16 61/1/16 64/1/16
f 64/1/16 65/1/16 62/1/16
f 65/1/16 64/1/16 66/1/16
f 67/1/16 65/1/16 66/1/16
f 65/1/16 67/1/16 68/1/16
f 69/1/16 68/1/16 67/1/16
f 68/1/16 69/1/16 70/1/16
f 71/1/16 70/1/16 69/1/16
f 70/1/16 71/1/16 72/1/16
f 73/1/15 74/1/15 75/1/15
f 74/1/15 73/1/15 76/1/15
f 77/1/15 76/1/15 73/1/15
f 76/1/15 77/1/15 78/1/15
f 79/1/15 78/1/15 77/1/15
f 77/1/15 80/1/15 79/1/15
f 81/1/15 79/1/15 80/1/15
f 80/1/15 82/1/15 81/1/15
f 83/1/15 81/1/15 82/1/15
f 82/1/15 84/1/15 83/1/15
f 85/1/16 86/1/16 87/1/16
f 86/1/16 85/1/16 88/1/16
f 88/1/16 89/1/16 86/1/16
f 89/1/16 88/1/16 90/1/16
f 91/1/16 89/1/16 90/1/16
f 89/1/16 91/1/16 92/1/16
f 93/1/16 92/1/16 91/1/16
f 92/1/16 93/1/16 94/1/16
f 95/1/16 94/1/16 93/1/16
f 94/1/16 95/1/16 96/1/16
f 97/1/15 98/1/15 99/1/15
f 98/1/15 97/1/15 100/1/15
f 101/1/15 100/1/15 97/1/15
f 100/1/15 101/1/15 102/1/15
f 103/1/15 102/1/15 101/1/15
f 101/1/15 104/1/15 103/1/15
f 105/1/15 103/1/15 104/1/15
f 104/1/15 106/1/15 105/1/15
f 107/1/15 105/1/15 106/1/15
f 106/1/15 108/1/15 107/1/15
f 109/1/16 110/1/16 111/1/16
f 110/1/16 109/1/16 112/1/16
f 112/1/16 113/1/16 110/1/16
f 113/1/16 112/1/16 114/1/16
f 115/1/16 113/1/16 114/1/16
f 113/1/16 115/1/16 116/1/16
f 117/1/16 116/1/16 115/1/16
f 116/1/16 117/1/16 118/1/16
f 119/1/16 118/1/16 117/1/16
f 118/1/16 119/1/16 120/1/16
f 121/1/3 122/1/3 123/1/4
f 123/1/4 122/1/3 124/1/4
f 124/1/4 125/1/5 123/1/4
f 125/1/5 124/1/4 126/1/5
f 125/1/5 126/1/5 127/1/6
f 127/1/6 126/1/5 128/1/6
f 127/1/6 128/1/6 129/1/7
f 129/1/7 128/1/6 130/1/7
f 130/1/7 131/1/8 129/1/7
f 131/1/8 130/1/7 132/1/8
f 133/1/9 134/1/9 135/1/10
f 135/1/10 134/1/9 136/1/10
f 133/1/9 137/1/11 134/1/9
f 138/1/11 137/1/11 133/1/9
f 138/1/11 139/1/12 137/1/11
f 140/1/12 139/1/12 138/1/11
f 140/1/12 141/1/13 139/1/12
f 142/1/13 141/1/13 140/1/12
f 142/1/13 143/1/14 141/1/13
f 144/1/14 143/1/14 142/1/13
f 145/1/3 146/1/4 147/1/3
f 146/1/4 145/1/3 148/1/4
f 146/1/4 148/1/4 149/1/5
f 149/1/5 148/1/4 150/1/5
f 149/1/5 150/1/5 151/1/6
f 151/1/6 150/1/5 152/1/6
f 151/1/6 152/1/6 153/1/7
f 153/1/7 152/1/6 154/1/7
f 153/1/7 154/1/7 155/1/8
f 155/1/8 154/1/7 156/1/8
f 157/1/9 158/1/9 159/1/10
f 159/1/10 158/1/9 160/1/10
f 157/1/9 161/1/11 158/1/9
f 162/1/11 161/1/11 157/1/9
f 162/1/11 163/1/12 161/1/11
f 164/1/12 163/1/12 162/1/11
f 164/1/12 165/1/13 163/1/12
f 166/1/13 165/1/13 164/1/12
f 166/1/13 167/1/14 165/1/13
f 168/1/14 167/1/14 166/1/13
o RenderMesh_95391976125402
v 1.486947 -0.443689 0.000000
v 1.473023 -0.408648 -0.122911
v 1.532662 -0.356306 -0.077195
v 1.532664 0.007034 -0.175587
v 1.565814 -0.374270 0.000000
v 1.584871 0.007034 -0.123418
v 1.532662 -0.356306 0.077195
v 1.473023 -0.408648 0.122911
v 1.622310 0.011507 -0.000000
v 1.532664 0.007034 0.175587
v 1.523800 0.159713 -0.076236
v 1.452630 0.207034 -0.113824
v 1.463533 0.243129 -0.000000
v 1.584871 0.007034 0.123418
v 1.553066 0.183488 -0.000000
v 1.523800 0.159713 0.076236
v 1.452630 0.207034 0.113824
v -1.461178 -0.074935 0.034291
v -1.464044 -0.072712 -0.000000
v -1.461178 -0.089139 -0.000000
v -1.461178 -0.074935 -0.034291
v -1.464044 -0.063319 0.022676
v -1.464044 -0.063319 -0.022676
v -1.443046 -0.099759 -0.000000
v -1.443046 -0.082445 0.041801
v -1.443046 -0.082445 -0.041801
v -1.443046 -0.040644 0.059115
v -1.443046 -0.040644 -0.059115
v -1.461178 -0.040644 -0.048495
v -1.464044 -0.040644 -0.032068
v -1.464044 -0.017969 -0.022676
v -1.461178 -0.006354 -0.034291
v -1.443046 0.001157 -0.041801
v -1.464044 -0.008576 -0.000000
v -1.443046 0.018471 -0.000000
v -1.461178 0.007851 -0.000000
v -1.461178 -0.006354 0.034291
v -1.443046 0.001157 0.041801
v -1.464044 -0.017969 0.022676
v -1.461178 -0.040644 0.048495
v -1.464044 -0.040644 0.032068
v -1.464044 -0.008576 -0.000000
v -1.464044 -0.017969 -0.022676
v -1.381542 -0.040644 -0.000000
v -1.464044 -0.040644 -0.032068
v -1.464044 -0.017969 0.022676
v -1.464044 -0.063319 -0.022676
v -1.464044 -0.040644 0.032068
v -1.464044 -0.072712 -0.000000
v -1.464044 -0.063319 0.022676
v -0.763253 0.320738 -0.000000
v -0.763253 0.279633 0.035202
v -0.763253 0.328423 0.018554
v -0.763253 0.346976 0.035202
v -0.763253 0.346976 0.026240
v -0.763253 0.279633 -0.035202
v -0.763253 0.328423 -0.018554
v -0.763253 0.346976 -0.035202
v -0.763253 0.346976 -0.026240
v -0.757427 0.346558 -0.000579
v -0.757427 0.310111 -0.011454
v -0.757427 0.310111 0.011454
v -0.757427 0.346558 0.000579
v 0.233038 -0.719126 -0.089790
v 0.192535 -0.728381 0.054999
v 0.192535 -0.728381 -0.054439
v 0.233038 -0.719126 0.090350
v 0.468972 -0.660890 -0.089790
v 0.468972 -0.660890 0.090350
v 0.531475 -0.646272 0.037500
v 0.531475 -0.646272 -0.036940
v 0.555162 0.387051 -0.022308
v 0.555162 0.387051 0.022308
v 0.555162 0.378647 -0.000000
v 0.555162 0.370962 0.018554
v 0.555162 0.370962 -0.018554
v 0.555162 0.374396 0.034965
v 0.555162 0.374396 -0.034965
v 0.555162 0.352408 0.026240
v 0.555162 0.352408 -0.026240
v 0.555162 0.308926 0.034965
v 0.555162 0.308926 -0.034965
v 0.555162 0.333852 0.018554
v 0.555162 0.333852 -0.018554
v 0.555162 0.326167 -0.000000
v 0.150692 -0.635625 -0.060518
v 0.156111 -0.612477 0.058375
v 0.156111 -0.612477 -0.057815
v 0.195694 -0.625340 -0.099797
v 0.198870 -0.602721 -0.095058
v 0.150692 -0.635625 0.061079
v 0.167229 -0.703643 -0.060518
v 0.195694 -0.625340 0.100358
v 0.198870 -0.602721 0.095618
v 0.457844 -0.560634 -0.099797
v 0.447431 -0.541370 -0.095058
v 0.513375 -0.525965 -0.038932
v 0.527291 -0.544393 -0.041075
v 0.513375 -0.525965 0.039492
v 0.474381 -0.628654 -0.099797
v 0.212232 -0.693359 -0.099797
v 0.192535 -0.728381 -0.054439
v 0.233038 -0.719126 -0.089790
v 0.192535 -0.728381 0.054999
v 0.468972 -0.660890 -0.089790
v 0.531475 -0.646272 -0.036940
v 0.543828 -0.612411 -0.041075
v 0.531475 -0.646272 0.037500
v 0.167229 -0.703643 0.061079
v 0.212232 -0.693359 0.100358
v 0.233038 -0.719126 0.090350
v 0.474381 -0.628654 0.100358
v 0.468972 -0.660890 0.090350
v 0.457844 -0.560634 0.100358
v 0.447431 -0.541370 0.095618
v 0.527291 -0.544393 0.041636
v 0.543828 -0.612411 0.041636
v 0.535514 0.387051 -0.022308
v 0.535514 0.387051 0.022308
v 0.555162 0.387051 -0.022308
v 0.555162 0.387051 0.022308
v 0.555162 0.374396 -0.034965
v 0.535514 0.374396 0.034965
v 0.535514 0.374396 -0.034965
v 0.535514 0.308926 -0.034965
v 0.555162 0.308926 -0.034965
v 0.555162 0.374396 0.034965
v 0.555162 0.308926 0.034965
v 0.535514 0.308926 0.034965
v -0.763253 0.346976 -0.035202
v -0.743606 0.346976 -0.026240
v -0.743606 0.346976 -0.035202
v -0.763253 0.346976 -0.026240
v -0.763253 0.346976 0.035202
v -0.743606 0.346976 0.035202
v -0.763253 0.346976 0.026240
v -0.743606 0.346976 0.026240
v -0.750620 0.346558 -0.000579
v -0.757427 0.346558 -0.000579
v -0.757427 0.346558 0.000579
v -0.750620 0.346558 0.000579
v -0.743606 0.346976 0.026240
v -0.763253 0.328423 0.018554
v -0.763253 0.346976 0.026240
v -0.743606 0.328423 0.018554
v -0.763253 0.320738 -0.000000
v -0.743606 0.320738 -0.000000
v -0.763253 0.328423 -0.018554
v -0.743606 0.328423 -0.018554
v -0.743606 0.346976 -0.026240
v -0.763253 0.346976 -0.026240
v -0.857111 -0.294139 -0.112000
v -0.915129 -0.305173 -0.063173
v -0.915129 -0.258011 -0.112000
v -0.915129 -0.258011 0.112000
v -0.200257 -0.258011 -0.112000
v -0.915129 -0.305173 0.063173
v -0.877335 -0.342966 -0.063173
v -0.857111 -0.294139 0.112000
v -0.877335 -0.342966 0.063173
v -0.200257 -0.258011 0.112000
v -0.250078 -0.342966 0.063173
v -0.250078 -0.342966 -0.063173
v -0.219681 -0.294139 -0.112000
v -0.181112 -0.282542 -0.079865
v -0.165129 -0.258011 -0.079774
v -0.198049 -0.315638 -0.048248
v -0.165129 -0.258011 0.079774
v -0.198049 -0.315638 0.048248
v -0.181112 -0.282542 0.079865
v -0.219681 -0.294139 0.112000
v 0.334218 0.070327 0.050282
v -0.308405 0.056550 0.047651
v -0.315161 0.070248 0.050282
v -0.315161 0.070248 -0.050282
v 0.327465 0.056624 0.047651
v 0.334218 0.070327 -0.050282
v -0.308405 0.056550 -0.047651
v 0.327465 0.056624 -0.047651
v -0.757427 0.346558 0.000579
v -0.757427 0.310111 0.011454
v -0.750620 0.310111 0.011454
v -0.750620 0.346558 0.000579
v -0.750620 0.346558 -0.000579
v -0.757427 0.310111 -0.011454
v -0.757427 0.346558 -0.000579
v -0.750620 0.310111 -0.011454
v -0.405330 -0.098808 -0.114683
v -0.273323 -0.098808 -0.113457
v -0.405330 -0.202116 -0.101960
v -0.419290 -0.093345 -0.141830
v -0.419290 -0.218499 -0.122468
v -0.393588 -0.065463 -0.120523
v -0.405063 -0.052948 -0.150718
v -0.374197 -0.020204 -0.157697
v -0.273323 -0.202116 -0.101960
v -0.259365 -0.218499 -0.122468
v -0.259365 -0.093345 -0.139965
v -0.285065 -0.065463 -0.119515
v -0.273590 -0.052948 -0.149185
v -0.304455 -0.020204 -0.156883
v -0.310543 -0.038434 -0.124574
v -0.339327 -0.005847 -0.154033
v -0.368110 -0.038434 -0.125108
v -0.339327 -0.026584 -0.122701
v -0.735062 -0.052948 -0.155420
v -0.723588 -0.065463 -0.124066
v -0.749289 -0.093345 -0.146533
v -0.704197 -0.020204 -0.162399
v -0.735330 -0.098808 -0.118226
v -0.735330 -0.202116 -0.102413
v -0.749289 -0.218499 -0.122468
v -0.603323 -0.098808 -0.117000
v -0.603323 -0.202116 -0.102413
v -0.589364 -0.218499 -0.122468
v -0.589364 -0.093345 -0.144667
v -0.615065 -0.065463 -0.123058
v -0.603589 -0.052948 -0.153887
v -0.634454 -0.020204 -0.161586
v -0.640543 -0.038434 -0.128117
v -0.669326 -0.005847 -0.155174
v -0.669326 -0.026584 -0.123904
v -0.698110 -0.038434 -0.128651
v -0.368110 -0.038434 0.105539
v -0.405063 -0.052948 0.133117
v -0.393588 -0.065463 0.104181
v -0.374197 -0.020204 0.135184
v -0.339325 -0.005849 0.136097
v -0.419290 -0.093345 0.130575
v -0.339325 -0.026584 0.106139
v -0.310543 -0.038434 0.105554
v -0.304455 -0.020204 0.135206
v -0.273590 -0.052948 0.133160
v -0.285065 -0.065463 0.104209
v -0.259365 -0.093345 0.130627
v -0.405330 -0.098808 0.102511
v -0.273323 -0.098808 0.102545
v -0.273323 -0.202116 0.097184
v -0.259365 -0.218499 0.122468
v -0.405330 -0.202116 0.097184
v -0.419290 -0.218499 0.122468
v -0.615065 -0.065463 0.104110
v -0.603323 -0.098808 0.102445
v -0.589364 -0.093345 0.130497
v -0.603589 -0.052948 0.133029
v -0.603323 -0.202116 0.097170
v -0.589364 -0.218499 0.122468
v -0.735330 -0.202116 0.097170
v -0.749289 -0.218499 0.122468
v -0.749289 -0.093345 0.130445
v -0.735330 -0.098808 0.102411
v -0.723588 -0.065463 0.104082
v -0.735062 -0.052948 0.132987
v -0.640543 -0.038434 0.105455
v -0.634456 -0.020204 0.135076
v -0.669326 -0.005849 0.135967
v -0.698110 -0.038434 0.105440
v -0.704197 -0.020204 0.135054
v -0.669326 -0.026584 0.106040
v 0.249243 -0.400852 0.084979
v 0.286921 -0.405997 0.077710
v 0.278591 -0.375648 0.086225
v 0.316609 -0.382801 0.087319
v 0.274546 -0.419566 0.076588
v 0.229317 -0.445740 0.083771
v 0.304197 -0.411721 0.078696
v 0.356310 -0.411712 0.088318
v 0.334764 -0.593318 0.063420
v 0.260009 -0.452701 0.075499
v 0.333269 -0.433151 0.079595
v 0.353605 -0.468252 0.080007
v 0.384005 -0.460106 0.088775
v 0.413294 -0.569416 0.088757
v 0.382895 -0.577562 0.079991
v 0.259036 -0.491315 0.074934
v 0.288399 -0.599602 0.075189
v 0.228809 -0.498807 0.083141
v 0.258000 -0.607747 0.083426
v 0.353605 -0.468252 -0.079450
v 0.413294 -0.569416 -0.088196
v 0.382895 -0.577562 -0.079433
v 0.384005 -0.460106 -0.088214
v 0.356310 -0.411712 -0.087849
v 0.334764 -0.593318 -0.062907
v 0.333268 -0.433149 -0.079120
v 0.304199 -0.411722 -0.078218
v 0.316609 -0.382801 -0.086848
v 0.286920 -0.405998 -0.077181
v 0.278591 -0.375648 -0.085696
v 0.249243 -0.400852 -0.084519
v 0.274544 -0.419568 -0.076120
v 0.229317 -0.445740 -0.083325
v 0.260010 -0.452699 -0.075045
v 0.259035 -0.491309 -0.074391
v 0.288399 -0.599602 -0.074631
v 0.228809 -0.498806 -0.082580
v 0.258000 -0.607747 -0.082866
v -0.743606 0.279633 0.035202
v -0.763253 0.346976 0.035202
v -0.763253 0.279633 0.035202
v -0.743606 0.346976 0.035202
v -0.763253 0.279633 -0.035202
v -0.763253 0.346976 -0.035202
v -0.743606 0.346976 -0.035202
v -0.743606 0.279633 -0.035202
v 0.555162 0.352408 0.026240
v 0.535514 0.333852 0.018554
v 0.535514 0.352408 0.026240
v 0.555162 0.333852 0.018554
v 0.555162 0.370962 0.018554
v 0.535514 0.326167 -0.000000
v 0.535514 0.370962 0.018554
v 0.555162 0.326167 -0.000000
v 0.535514 0.378647 -0.000000
v 0.535514 0.333852 -0.018554
v 0.555162 0.378647 -0.000000
v 0.555162 0.333852 -0.018554
v 0.535514 0.370962 -0.018554
v 0.555162 0.352408 -0.026240
v 0.555162 0.370962 -0.018554
v 0.535514 0.352408 -0.026240
v -1.443046 0.001157 0.041801
v -0.845722 0.001157 0.041801
v -1.443046 0.018471 -0.000000
v -0.845722 0.018471 -0.000000
v -0.845722 -0.040644 0.059115
v -1.443046 0.001157 -0.041801
v -1.443046 -0.040644 0.059115
v -0.845722 0.001157 -0.041801
v -0.845722 -0.082445 0.041801
v -1.443046 -0.040644 -0.059115
v -1.443046 -0.082445 0.041801
v -0.845722 -0.040644 -0.059115
v -0.845722 -0.099759 -0.000000
v -1.443046 -0.082445 -0.041801
v -1.443046 -0.099759 -0.000000
v -0.845722 -0.082445 -0.041801
v -0.750620 0.310111 -0.011454
v -0.750620 0.310111 0.011454
v -0.757427 0.310111 -0.011454
v -0.757427 0.310111 0.011454
v 0.447431 -0.541370 -0.095058
v 0.447431 -0.541370 0.095618
v 0.513375 -0.525965 -0.038932
v 0.513375 -0.525965 0.039492
v 0.198870 -0.602721 -0.095058
v 0.198870 -0.602721 0.095618
v 0.156111 -0.612477 -0.057815
v 0.156111 -0.612477 0.058375
v 0.535514 0.326167 -0.000000
v 0.535514 0.308926 0.034965
v 0.535514 0.333852 0.018554
v 0.535514 0.352408 0.026240
v 0.535514 0.308926 -0.034965
v 0.535514 0.374396 0.034965
v 0.535514 0.333852 -0.018554
v 0.535514 0.370962 0.018554
v 0.535514 0.352408 -0.026240
v 0.535514 0.387051 0.022308
v 0.535514 0.374396 -0.034965
v 0.535514 0.378647 -0.000000
v 0.535514 0.370962 -0.018554
v 0.535514 0.387051 -0.022308
v -0.743606 0.346976 0.035202
v -0.743606 0.328423 0.018554
v -0.743606 0.346976 0.026240
v -0.743606 0.279633 0.035202
v -0.743606 0.320738 -0.000000
v -0.743606 0.279633 -0.035202
v -0.743606 0.328423 -0.018554
v -0.743606 0.346976 -0.035202
v -0.743606 0.346976 -0.026240
v -0.750620 0.346558 0.000579
v -0.750620 0.310111 -0.011454
v -0.750620 0.346558 -0.000579
v -0.750620 0.310111 0.011454
v 1.395114 -0.411463 -0.122911
v 1.417433 0.002545 -0.000000
v 1.454871 0.007034 -0.175587
v 1.374871 0.207034 -0.113824
v 1.367081 -0.436680 0.000000
v 1.343646 0.228173 -0.000000
v 1.395114 -0.411463 0.122911
v 1.374871 0.207034 0.113824
v 1.454871 0.007034 0.175587
v 1.395114 -0.411463 -0.122911
v 1.473023 -0.408648 -0.122911
v 1.486947 -0.443689 0.000000
v 1.367081 -0.436680 0.000000
v 1.454871 0.007034 -0.175587
v 1.395114 -0.411463 0.122911
v 1.532664 0.007034 -0.175587
v 1.473023 -0.408648 0.122911
v 1.452630 0.207034 -0.113824
v 1.454871 0.007034 0.175587
v 1.374871 0.207034 -0.113824
v 1.532664 0.007034 0.175587
v 1.463533 0.243129 -0.000000
v 1.452630 0.207034 0.113824
v 1.343646 0.228173 -0.000000
v 1.374871 0.207034 0.113824
vn 0.7235 -0.6903 0.0005
vn 0.7195 -0.4645 -0.5163
vn 0.7978 -0.3581 -0.4851
vn 0.6998 0.1421 -0.7001
vn 0.8941 -0.4478 0.0005
vn 0.8313 0.1236 -0.5420
vn 0.7978 -0.3581 0.4851
vn 0.7195 -0.4645 0.5163
vn 0.9914 0.1312 -0.0000
vn 0.6998 0.1421 0.7001
vn 0.7022 0.5419 -0.4618
vn 0.6110 0.6295 -0.4801
vn 0.6142 0.7891 0.0005
vn 0.8313 0.1236 0.5420
vn 0.7840 0.6208 0.0005
vn 0.7022 0.5419 0.4618
vn 0.6110 0.6295 0.4801
vn -0.7739 -0.4478 0.4478
vn -0.9850 -0.1723 0.0004
vn -0.7743 -0.6328 -0.0000
vn -0.7743 -0.4474 -0.4474
vn -0.9851 -0.1215 0.1215
vn -0.9851 -0.1215 -0.1215
vn -0.5054 -0.8629 -0.0000
vn -0.5059 -0.6100 0.6100
vn -0.5054 -0.6101 -0.6101
vn -0.5054 -0.0000 0.8629
vn -0.5054 -0.0000 -0.8629
vn -0.7744 0.0003 -0.6327
vn -0.9850 0.0005 -0.1724
vn -0.9851 0.1215 -0.1215
vn -0.7744 0.4474 -0.4474
vn -0.5059 0.6099 -0.6100
vn -0.9850 0.1724 0.0005
vn -0.5054 0.8629 -0.0000
vn -0.7743 0.6328 -0.0000
vn -0.7744 0.4474 0.4474
vn -0.5055 0.6101 0.6101
vn -0.9851 0.1215 0.1215
vn -0.7744 0.0003 0.6327
vn -0.9850 0.0005 0.1724
vn -0.3623 -0.9321 -0.0000
vn -0.3623 -0.6591 0.6591
vn -1.0000 0.0002 0.0002
vn -0.3623 -0.0000 0.9321
vn -0.3623 -0.6591 -0.6591
vn -0.3623 0.6591 0.6591
vn -0.3623 -0.0000 -0.9321
vn -0.3622 0.9321 0.0005
vn -0.3623 0.6591 -0.6591
vn -1.0000 0.0005 0.0005
vn 0.2358 -0.9718 0.0005
vn 0.2360 -0.9718 0.0005
vn 0.2360 -0.9717 0.0005
vn 0.2361 -0.9717 0.0005
vn 1.0000 0.0005 0.0005
vn -0.9156 0.0071 -0.4020
vn -0.8819 0.2537 0.3972
vn -0.8820 0.2535 -0.3972
vn -0.3914 0.0747 -0.9172
vn -0.3337 0.2371 -0.9124
vn -0.9156 0.0073 0.4019
vn -0.7904 -0.4655 -0.3982
vn -0.3914 0.0747 0.9172
vn -0.3336 0.2372 0.9124
vn 0.3047 0.2231 -0.9260
vn 0.2145 0.3444 -0.9140
vn 0.7047 0.5758 -0.4146
vn 0.8211 0.3972 -0.4099
vn 0.7047 0.5758 0.4146
vn 0.3894 -0.1199 -0.9132
vn -0.2984 -0.2974 -0.9069
vn -0.6037 -0.7077 -0.3669
vn -0.1477 -0.4594 -0.8759
vn -0.6037 -0.7078 0.3669
vn 0.3415 -0.3307 -0.8798
vn 0.8474 -0.3571 -0.3929
vn 0.9144 -0.0562 -0.4009
vn 0.8474 -0.3571 0.3929
vn -0.7906 -0.4653 0.3979
vn -0.2985 -0.2974 0.9069
vn -0.1479 -0.4595 0.8758
vn 0.3895 -0.1199 0.9132
vn 0.3416 -0.3308 0.8797
vn 0.3047 0.2231 0.9260
vn 0.2145 0.3444 0.9140
vn 0.8211 0.3972 0.4099
vn 0.9144 -0.0562 0.4009
vn 0.0005 0.9239 -0.3826
vn 0.0006 0.9239 0.3826
vn -0.0000 0.9239 -0.3827
vn -0.0000 0.9239 0.3827
vn 0.0005 0.3826 -0.9239
vn 0.0005 0.3826 0.9239
vn 0.0005 0.0005 -1.0000
vn 0.0006 0.3825 0.9239
vn 0.0005 0.0005 1.0000
vn 0.0005 1.0000 0.0005
vn 0.0006 0.3826 -0.9239
vn 0.0005 0.7071 -0.7071
vn -0.0000 0.7071 -0.7071
vn 0.0005 0.7071 0.7071
vn 0.0004 0.7071 0.7071
vn 0.0006 0.3826 0.9239
vn -0.1373 -0.4128 -0.9004
vn -0.8522 -0.4488 -0.2691
vn -0.6505 -0.3485 -0.6749
vn -0.6505 -0.3485 0.6749
vn 0.4479 -0.2603 -0.8553
vn -0.8522 -0.4488 0.2691
vn -0.3395 -0.8710 -0.3552
vn -0.1373 -0.4129 0.9004
vn -0.3395 -0.8710 0.3551
vn 0.4479 -0.2603 0.8553
vn 0.2204 -0.9125 0.3446
vn 0.2204 -0.9125 -0.3446
vn 0.2956 -0.4657 -0.8341
vn 0.7507 -0.5475 -0.3697
vn 0.8244 -0.4784 -0.3025
vn 0.6708 -0.7265 -0.1490
vn 0.8244 -0.4784 0.3025
vn 0.6708 -0.7265 0.1490
vn 0.7507 -0.5475 0.3697
vn 0.2956 -0.4657 0.8341
vn -0.6737 0.4452 -0.5899
vn 0.4205 0.7331 -0.5346
vn 0.6735 0.4455 -0.5898
vn 0.6737 0.4452 0.5898
vn -0.4207 0.7329 -0.5346
vn -0.6740 0.4450 0.5896
vn 0.4205 0.7331 0.5346
vn -0.4207 0.7329 0.5346
vn 0.0005 0.2859 0.9583
vn 0.0003 0.2859 0.9583
vn -0.0000 0.2859 0.9583
vn 0.0005 0.2859 -0.9583
vn -0.0000 0.2859 -0.9583
vn 0.0003 0.2859 -0.9583
vn 0.5242 -0.1949 -0.8290
vn -0.5146 -0.1940 -0.8352
vn 0.4041 0.2849 -0.8692
vn 0.8371 -0.2507 -0.4862
vn 0.5565 0.4412 -0.7041
vn 0.4527 -0.3765 -0.8083
vn 0.6821 -0.5473 -0.4849
vn 0.4695 -0.7265 -0.5017
vn -0.3991 0.2867 -0.8709
vn -0.5495 0.4470 -0.7059
vn -0.8329 -0.2496 -0.4939
vn -0.4420 -0.3785 -0.8132
vn -0.6736 -0.5515 -0.4919
vn -0.4588 -0.7305 -0.5058
vn -0.3043 -0.5163 -0.8005
vn 0.0074 -0.8361 -0.5485
vn 0.3151 -0.5154 -0.7969
vn 0.0054 -0.5903 -0.8072
vn 0.6903 -0.5496 -0.4705
vn 0.4579 -0.3875 -0.8001
vn 0.8420 -0.2585 -0.4735
vn 0.4967 -0.7184 -0.4869
vn 0.5299 -0.2086 -0.8220
vn 0.4049 0.2721 -0.8729
vn 0.5682 0.4226 -0.7060
vn -0.5204 -0.2077 -0.8283
vn -0.3999 0.2740 -0.8746
vn -0.5623 0.4275 -0.7079
vn -0.8381 -0.2585 -0.4804
vn -0.4480 -0.3894 -0.8047
vn -0.6825 -0.5535 -0.4773
vn -0.4870 -0.7224 -0.4909
vn -0.3210 -0.5282 -0.7861
vn 0.0073 -0.8387 -0.5445
vn 0.0044 -0.5908 -0.8068
vn 0.3317 -0.5261 -0.7831
vn 0.3013 -0.4586 0.8360
vn 0.7177 -0.4891 0.4958
vn 0.4667 -0.3121 0.8275
vn 0.4497 -0.7163 0.5336
vn -0.0002 -0.8215 0.5702
vn 0.8624 -0.1891 0.4696
vn -0.0002 -0.5635 0.8261
vn -0.3017 -0.4586 0.8359
vn -0.4499 -0.7166 0.5330
vn -0.7177 -0.4890 0.4958
vn -0.4675 -0.3121 0.8271
vn -0.8627 -0.1889 0.4692
vn 0.5434 -0.1284 0.8296
vn -0.5440 -0.1285 0.8292
vn -0.4205 0.3580 0.8337
vn -0.5606 0.5245 0.6408
vn 0.4195 0.3590 0.8338
vn 0.5603 0.5252 0.6405
vn -0.4667 -0.3123 0.8274
vn -0.5435 -0.1284 0.8296
vn -0.8626 -0.1882 0.4696
vn -0.7176 -0.4890 0.4959
vn -0.4207 0.3591 0.8331
vn -0.5604 0.5252 0.6405
vn 0.4195 0.3590 0.8337
vn 0.5604 0.5252 0.6405
vn 0.8626 -0.1881 0.4696
vn 0.4665 -0.3117 0.8278
vn 0.7176 -0.4890 0.4959
vn -0.3015 -0.4584 0.8360
vn -0.4499 -0.7158 0.5340
vn -0.0005 -0.8210 0.5709
vn 0.3012 -0.4585 0.8361
vn 0.4496 -0.7163 0.5336
vn -0.0002 -0.5633 0.8263
vn 0.1920 -0.1773 0.9652
vn 0.0044 -0.1987 0.9801
vn 0.0279 -0.2497 0.9679
vn -0.1384 -0.2390 0.9611
vn 0.1119 -0.1293 0.9853
vn 0.2448 -0.0737 0.9668
vn -0.1196 -0.1753 0.9772
vn -0.2106 -0.1686 0.9629
vn -0.0367 -0.0270 0.9990
vn 0.1676 -0.0631 0.9838
vn -0.1724 -0.1391 0.9752
vn -0.2320 -0.1001 0.9675
vn -0.2517 -0.0971 0.9629
vn -0.2594 -0.0698 0.9632
vn -0.2801 -0.0755 0.9570
vn 0.2027 0.0093 0.9792
vn 0.2406 0.0670 0.9683
vn 0.2527 0.0288 0.9671
vn 0.2448 0.0688 0.9671
vn -0.2300 -0.1005 -0.9680
vn -0.2593 -0.0697 -0.9633
vn -0.2799 -0.0752 -0.9571
vn -0.2515 -0.0981 -0.9629
vn -0.2096 -0.1696 -0.9630
vn -0.0368 -0.0270 -0.9990
vn -0.1714 -0.1392 -0.9753
vn -0.1207 -0.1764 -0.9769
vn -0.1392 -0.2389 -0.9610
vn 0.0044 -0.1978 -0.9802
vn 0.0278 -0.2497 -0.9679
vn 0.1930 -0.1774 -0.9650
vn 0.1138 -0.1294 -0.9850
vn 0.2447 -0.0748 -0.9667
vn 0.1676 -0.0630 -0.9838
vn 0.2021 0.0082 -0.9793
vn 0.2398 0.0668 -0.9685
vn 0.2527 0.0279 -0.9671
vn 0.2444 0.0680 -0.9673
vn 0.0005 -0.7071 -0.7071
vn 0.0005 -1.0000 0.0005
vn -0.0000 -0.7071 0.7071
vn -0.0000 0.7071 0.7071
vn -0.0000 -0.7071 -0.7071
vn -0.2359 0.9718 0.0004
vn -0.2360 0.9718 0.0005
vn -0.2359 0.9718 0.0005
vn -0.9729 0.1129 -0.2018
vn -0.9949 -0.1012 0.0007
vn -0.9744 -0.0865 -0.2076
vn -0.9300 -0.3064 -0.2028
vn -0.9934 0.1148 0.0005
vn -0.9498 -0.3130 0.0005
vn -0.9729 0.1129 0.2018
vn -0.9301 -0.3064 0.2028
vn -0.9744 -0.0865 0.2076
vn -0.0132 -0.7273 -0.6862
vn -0.0112 -0.6534 -0.7570
vn -0.0210 -0.9998 0.0005
vn 0.0015 0.1001 -0.9950
vn -0.0132 -0.7273 0.6862
vn 0.0015 0.0689 -0.9976
vn -0.0112 -0.6534 0.7570
vn -0.0386 0.6923 -0.7206
vn 0.0014 0.1001 0.9950
vn -0.0503 0.7967 -0.6023
vn 0.0015 0.0689 0.9976
vn -0.0757 0.9971 0.0005
vn -0.0386 0.6923 0.7206
vn -0.0503 0.7967 0.6023
vt 0.000000 0.000000
s 1
f 169/2/17 170/2/18 171/2/19
f 172/2/20 171/2/19 170/2/18
f 169/2/17 171/2/19 173/2/21
f 171/2/19 172/2/20 174/2/22
f 175/2/23 169/2/17 173/2/21
f 169/2/17 175/2/23 176/2/24
f 171/2/19 177/2/25 173/2/21
f 171/2/19 174/2/22 177/2/25
f 177/2/25 175/2/23 173/2/21
f 178/2/26 176/2/24 175/2/23
f 172/2/20 179/2/27 174/2/22
f 179/2/27 177/2/25 174/2/22
f 179/2/27 172/2/20 180/2/28
f 181/2/29 179/2/27 180/2/28
f 175/2/23 182/2/30 178/2/26
f 175/2/23 177/2/25 182/2/30
f 179/2/27 181/2/29 183/2/31
f 177/2/25 179/2/27 183/2/31
f 183/2/31 181/2/29 184/2/32
f 184/2/32 177/2/25 183/2/31
f 177/2/25 184/2/32 182/2/30
f 184/2/32 178/2/26 182/2/30
f 181/2/29 185/2/33 184/2/32
f 178/2/26 184/2/32 185/2/33
f 186/2/34 187/2/35 188/2/36
f 189/2/37 188/2/36 187/2/35
f 187/2/35 186/2/34 190/2/38
f 189/2/37 187/2/35 191/2/39
f 186/2/34 188/2/36 192/2/40
f 189/2/37 192/2/40 188/2/36
f 192/2/40 193/2/41 186/2/34
f 192/2/40 189/2/37 194/2/42
f 195/2/43 186/2/34 193/2/41
f 189/2/37 196/2/44 194/2/42
f 191/2/39 197/2/45 189/2/37
f 196/2/44 189/2/37 197/2/45
f 197/2/45 191/2/39 198/2/46
f 199/2/47 197/2/45 198/2/46
f 200/2/48 196/2/44 197/2/45
f 197/2/45 199/2/47 200/2/48
f 201/2/49 196/2/44 200/2/48
f 202/2/50 200/2/48 199/2/47
f 200/2/48 203/2/51 201/2/49
f 200/2/48 202/2/50 204/2/52
f 203/2/51 200/2/48 204/2/52
f 202/2/50 205/2/53 204/2/52
f 205/2/53 203/2/51 204/2/52
f 203/2/51 205/2/53 206/2/54
f 195/2/43 206/2/54 205/2/53
f 205/2/53 202/2/50 207/2/55
f 205/2/53 208/2/56 195/2/43
f 208/2/56 205/2/53 207/2/55
f 186/2/34 195/2/43 208/2/56
f 207/2/55 209/2/57 208/2/56
f 208/2/56 190/2/38 186/2/34
f 190/2/38 208/2/56 209/2/57
f 210/2/58 211/2/59 212/2/60
f 211/2/59 213/2/61 212/2/60
f 214/2/62 210/2/58 212/2/60
f 213/2/61 215/2/63 212/2/60
f 216/2/64 214/2/62 212/2/60
f 215/2/63 217/2/65 212/2/60
f 218/2/66 216/2/64 212/2/60
f 217/2/65 218/2/66 212/2/60
f 219/2/67 220/2/67 221/2/67
f 222/2/67 221/2/67 220/2/67
f 221/2/67 222/2/67 223/2/67
f 220/2/67 219/2/67 224/2/67
f 224/2/67 219/2/67 225/2/67
f 226/2/67 224/2/67 225/2/67
f 226/2/67 225/2/67 227/2/67
f 228/2/67 229/2/67 230/2/67
f 228/2/67 230/2/67 231/2/67
f 232/2/68 233/2/69 234/2/69
f 233/2/69 232/2/68 235/2/68
f 236/2/70 235/2/68 232/2/68
f 236/2/70 237/2/71 235/2/68
f 237/2/71 236/2/70 238/2/69
f 238/2/69 236/2/70 239/2/69
f 240/2/72 241/2/72 242/2/72
f 243/2/72 242/2/72 241/2/72
f 244/2/72 240/2/72 242/2/72
f 245/2/72 243/2/72 241/2/72
f 244/2/72 246/2/72 240/2/72
f 247/2/72 243/2/72 245/2/72
f 246/2/72 244/2/72 248/2/72
f 245/2/72 249/2/72 247/2/72
f 250/2/72 246/2/72 248/2/72
f 249/2/72 251/2/72 247/2/72
f 250/2/72 248/2/72 252/2/72
f 249/2/72 253/2/72 251/2/72
f 250/2/72 252/2/72 253/2/72
f 253/2/72 249/2/72 250/2/72
f 254/2/73 255/2/74 256/2/75
f 256/2/75 257/2/76 254/2/73
f 257/2/76 256/2/75 258/2/77
f 255/2/74 254/2/73 259/2/78
f 260/2/79 259/2/78 254/2/73
f 257/2/76 260/2/79 254/2/73
f 261/2/80 255/2/74 259/2/78
f 255/2/74 261/2/80 262/2/81
f 258/2/77 263/2/82 257/2/76
f 263/2/82 258/2/77 264/2/83
f 264/2/83 265/2/84 263/2/82
f 265/2/84 266/2/85 263/2/82
f 265/2/84 267/2/86 266/2/85
f 257/2/76 263/2/82 268/2/87
f 266/2/85 268/2/87 263/2/82
f 257/2/76 268/2/87 269/2/88
f 260/2/79 257/2/76 269/2/88
f 269/2/88 270/2/89 260/2/79
f 270/2/89 269/2/88 271/2/90
f 268/2/87 271/2/90 269/2/88
f 272/2/91 260/2/79 270/2/89
f 271/2/90 268/2/87 273/2/92
f 268/2/87 274/2/93 273/2/92
f 268/2/87 275/2/94 274/2/93
f 268/2/87 266/2/85 275/2/94
f 276/2/95 274/2/93 275/2/94
f 260/2/79 272/2/91 277/2/96
f 259/2/78 260/2/79 277/2/96
f 261/2/80 259/2/78 277/2/96
f 278/2/97 277/2/96 272/2/91
f 278/2/97 261/2/80 277/2/96
f 279/2/98 278/2/97 272/2/91
f 280/2/99 278/2/97 279/2/98
f 280/2/99 261/2/80 278/2/97
f 279/2/98 281/2/100 280/2/99
f 276/2/95 280/2/99 281/2/100
f 261/2/80 280/2/99 282/2/101
f 282/2/101 262/2/81 261/2/80
f 283/2/102 262/2/81 282/2/101
f 282/2/101 267/2/86 283/2/102
f 267/2/86 282/2/101 284/2/103
f 284/2/103 282/2/101 280/2/99
f 266/2/85 267/2/86 284/2/103
f 280/2/99 276/2/95 285/2/104
f 280/2/99 285/2/104 284/2/103
f 266/2/85 284/2/103 285/2/104
f 275/2/94 285/2/104 276/2/95
f 275/2/94 266/2/85 285/2/104
f 286/2/105 287/2/106 288/2/107
f 288/2/107 287/2/106 289/2/108
f 290/2/109 286/2/105 288/2/107
f 287/2/106 291/2/110 289/2/108
f 290/2/109 292/2/109 286/2/105
f 290/2/109 293/2/111 292/2/109
f 293/2/111 290/2/109 294/2/111
f 289/2/108 291/2/110 295/2/112
f 296/2/113 295/2/112 291/2/110
f 291/2/110 297/2/113 296/2/113
f 298/2/114 299/2/114 300/2/114
f 299/2/114 298/2/114 301/2/114
f 302/2/114 303/2/114 304/2/114
f 305/2/114 304/2/114 303/2/114
f 306/2/114 307/2/114 308/2/114
f 306/2/114 308/2/114 309/2/114
f 310/2/115 311/2/116 312/2/109
f 311/2/116 310/2/115 313/2/117
f 314/2/114 311/2/116 313/2/117
f 315/2/114 314/2/114 313/2/117
f 316/2/118 314/2/114 315/2/114
f 317/2/119 316/2/118 315/2/114
f 316/2/118 317/2/119 318/2/120
f 316/2/118 318/2/120 319/2/110
f 320/2/121 321/2/122 322/2/123
f 321/2/122 323/2/124 322/2/123
f 322/2/123 324/2/125 320/2/121
f 323/2/124 321/2/122 325/2/126
f 321/2/122 320/2/121 326/2/127
f 325/2/126 321/2/122 326/2/127
f 325/2/126 327/2/128 323/2/124
f 326/2/127 328/2/129 325/2/126
f 327/2/128 325/2/126 328/2/129
f 327/2/128 329/2/130 323/2/124
f 326/2/127 330/2/131 328/2/129
f 330/2/131 327/2/128 328/2/129
f 320/2/121 331/2/132 326/2/127
f 326/2/127 331/2/132 330/2/131
f 320/2/121 332/2/133 331/2/132
f 320/2/121 324/2/125 332/2/133
f 324/2/125 333/2/134 332/2/133
f 333/2/134 324/2/125 334/2/135
f 332/2/133 335/2/136 331/2/132
f 335/2/136 332/2/133 333/2/134
f 330/2/131 331/2/132 335/2/136
f 334/2/135 335/2/136 333/2/134
f 336/2/137 335/2/136 334/2/135
f 335/2/136 337/2/138 330/2/131
f 335/2/136 336/2/137 337/2/138
f 337/2/138 336/2/137 338/2/139
f 329/2/130 338/2/139 336/2/137
f 339/2/140 330/2/131 337/2/138
f 339/2/140 337/2/138 338/2/139
f 339/2/140 338/2/139 329/2/130
f 327/2/128 330/2/131 339/2/140
f 329/2/130 327/2/128 339/2/140
f 340/2/141 341/2/142 342/2/143
f 343/2/144 342/2/143 341/2/142
f 341/2/142 340/2/141 344/2/145
f 345/2/146 344/2/145 340/2/141
f 341/2/142 346/2/147 343/2/144
f 345/2/146 343/2/144 346/2/147
f 341/2/142 344/2/145 346/2/147
f 344/2/145 345/2/146 347/2/148
f 345/2/146 346/2/147 347/2/148
f 347/2/148 346/2/147 344/2/145
f 348/2/149 349/2/150 350/2/151
f 350/2/151 351/2/149 348/2/149
f 352/2/152 353/2/153 354/2/152
f 353/2/153 352/2/152 355/2/154
f 356/2/155 357/2/156 358/2/157
f 358/2/157 359/2/158 356/2/155
f 359/2/158 358/2/157 360/2/159
f 359/2/158 361/2/160 356/2/155
f 361/2/160 357/2/156 356/2/155
f 362/2/161 361/2/160 359/2/158
f 363/2/162 361/2/160 362/2/161
f 364/2/163 360/2/159 358/2/157
f 358/2/157 357/2/156 364/2/163
f 360/2/159 364/2/163 365/2/164
f 364/2/163 366/2/165 365/2/164
f 366/2/165 364/2/163 357/2/156
f 367/2/166 366/2/165 357/2/156
f 357/2/156 361/2/160 367/2/166
f 366/2/165 367/2/166 368/2/167
f 367/2/166 369/2/168 368/2/167
f 369/2/168 367/2/166 370/2/169
f 367/2/166 361/2/160 370/2/169
f 369/2/168 370/2/169 371/2/170
f 361/2/160 363/2/162 372/2/171
f 370/2/169 361/2/160 372/2/171
f 371/2/170 372/2/171 363/2/162
f 370/2/169 372/2/171 373/2/172
f 372/2/171 371/2/170 373/2/172
f 371/2/170 370/2/169 373/2/172
f 374/2/173 375/2/174 376/2/175
f 377/2/176 375/2/174 374/2/173
f 376/2/175 375/2/174 378/2/177
f 379/2/178 376/2/175 378/2/177
f 376/2/175 379/2/178 380/2/179
f 378/2/177 381/2/180 379/2/178
f 381/2/180 378/2/177 375/2/174
f 382/2/181 380/2/179 379/2/178
f 379/2/178 381/2/180 382/2/181
f 380/2/179 382/2/181 383/2/182
f 382/2/181 384/2/183 383/2/182
f 384/2/183 382/2/181 381/2/180
f 385/2/184 384/2/183 381/2/180
f 375/2/174 385/2/184 381/2/180
f 384/2/183 385/2/184 386/2/185
f 385/2/184 387/2/186 386/2/185
f 387/2/186 385/2/184 388/2/187
f 385/2/184 375/2/174 388/2/187
f 387/2/186 388/2/187 389/2/188
f 389/2/188 388/2/187 390/2/189
f 388/2/187 375/2/174 391/2/190
f 388/2/187 391/2/190 390/2/189
f 391/2/190 389/2/188 390/2/189
f 375/2/174 377/2/176 391/2/190
f 389/2/188 391/2/190 377/2/176
f 392/2/191 393/2/192 394/2/193
f 393/2/192 392/2/191 395/2/194
f 396/2/195 395/2/194 392/2/191
f 397/2/196 394/2/193 393/2/192
f 392/2/191 398/2/197 396/2/195
f 399/2/198 396/2/195 398/2/197
f 392/2/191 399/2/198 398/2/197
f 394/2/193 399/2/198 392/2/191
f 396/2/195 399/2/198 400/2/199
f 401/2/200 400/2/199 399/2/198
f 402/2/201 401/2/200 399/2/198
f 399/2/198 394/2/193 402/2/201
f 403/2/202 401/2/200 402/2/201
f 394/2/193 397/2/196 404/2/203
f 404/2/203 402/2/201 394/2/193
f 402/2/201 405/2/204 403/2/202
f 402/2/201 404/2/203 405/2/204
f 406/2/205 403/2/202 405/2/204
f 403/2/202 406/2/205 407/2/206
f 405/2/204 404/2/203 408/2/207
f 408/2/207 404/2/203 397/2/196
f 405/2/204 408/2/207 406/2/205
f 408/2/207 407/2/206 406/2/205
f 397/2/196 409/2/208 408/2/207
f 407/2/206 408/2/207 409/2/208
f 410/2/209 411/2/210 412/2/211
f 412/2/211 413/2/212 410/2/209
f 414/2/213 412/2/211 411/2/210
f 412/2/211 414/2/213 415/2/214
f 416/2/215 415/2/214 414/2/213
f 411/2/210 416/2/215 414/2/213
f 415/2/214 416/2/215 417/2/216
f 418/2/217 417/2/216 416/2/215
f 411/2/210 419/2/203 416/2/215
f 416/2/215 419/2/203 418/2/217
f 419/2/203 411/2/210 420/2/218
f 420/2/218 418/2/217 419/2/203
f 410/2/209 420/2/218 411/2/210
f 418/2/217 420/2/218 421/2/219
f 410/2/209 413/2/212 422/2/220
f 422/2/220 420/2/218 410/2/209
f 413/2/212 423/2/221 422/2/220
f 424/2/222 422/2/220 423/2/221
f 425/2/223 421/2/219 420/2/218
f 420/2/218 422/2/220 425/2/223
f 421/2/219 425/2/223 426/2/224
f 424/2/222 426/2/224 425/2/223
f 425/2/223 422/2/220 427/2/225
f 422/2/220 424/2/222 427/2/225
f 425/2/223 427/2/225 424/2/222
f 428/2/226 429/2/227 430/2/228
f 431/2/229 430/2/228 429/2/227
f 429/2/227 428/2/226 432/2/230
f 433/2/231 432/2/230 428/2/226
f 431/2/229 429/2/227 434/2/232
f 434/2/232 435/2/233 431/2/229
f 429/2/227 432/2/230 436/2/234
f 434/2/232 429/2/227 436/2/234
f 432/2/230 433/2/231 437/2/235
f 432/2/230 437/2/235 436/2/234
f 435/2/233 434/2/232 438/2/236
f 438/2/236 434/2/232 436/2/234
f 439/2/237 435/2/233 438/2/236
f 439/2/237 438/2/236 436/2/234
f 435/2/233 439/2/237 440/2/238
f 441/2/239 440/2/238 439/2/237
f 441/2/239 439/2/237 442/2/240
f 442/2/240 439/2/237 436/2/234
f 437/2/235 443/2/241 436/2/234
f 433/2/231 443/2/241 437/2/235
f 443/2/241 444/2/242 436/2/234
f 443/2/241 433/2/231 445/2/243
f 443/2/241 446/2/244 444/2/242
f 446/2/244 443/2/241 445/2/243
f 447/2/245 448/2/246 449/2/247
f 448/2/246 447/2/245 450/2/248
f 451/2/249 450/2/248 447/2/245
f 447/2/245 449/2/247 452/2/250
f 451/2/249 447/2/245 453/2/251
f 453/2/251 447/2/245 452/2/250
f 454/2/252 451/2/249 453/2/251
f 454/2/252 453/2/251 452/2/250
f 451/2/249 454/2/252 455/2/253
f 456/2/254 455/2/253 454/2/252
f 456/2/254 454/2/252 452/2/250
f 455/2/253 456/2/254 457/2/255
f 458/2/256 457/2/255 456/2/254
f 459/2/257 458/2/256 456/2/254
f 459/2/257 456/2/254 452/2/250
f 459/2/257 460/2/258 458/2/256
f 461/2/259 459/2/257 452/2/250
f 460/2/258 459/2/257 461/2/259
f 462/2/260 461/2/259 452/2/250
f 462/2/260 460/2/258 461/2/259
f 463/2/261 462/2/260 452/2/250
f 460/2/258 462/2/260 464/2/262
f 465/2/263 462/2/260 463/2/261
f 462/2/260 465/2/263 464/2/262
f 466/2/113 467/2/113 468/2/113
f 467/2/113 466/2/113 469/2/113
f 470/2/111 471/2/111 472/2/111
f 472/2/111 473/2/111 470/2/111
f 474/2/111 475/2/117 476/2/111
f 475/2/117 474/2/111 477/2/117
f 476/2/111 478/2/264 474/2/111
f 479/2/114 475/2/117 477/2/117
f 478/2/264 476/2/111 480/2/264
f 481/2/114 479/2/114 477/2/117
f 482/2/265 478/2/264 480/2/264
f 483/2/118 479/2/114 481/2/114
f 482/2/265 484/2/265 478/2/264
f 485/2/118 483/2/118 481/2/114
f 486/2/266 484/2/265 482/2/265
f 483/2/118 485/2/118 487/2/113
f 486/2/266 488/2/266 484/2/265
f 483/2/118 487/2/113 489/2/113
f 489/2/113 488/2/266 486/2/266
f 489/2/113 487/2/113 488/2/266
f 490/2/267 491/2/267 492/2/114
f 493/2/114 492/2/114 491/2/267
f 490/2/267 494/2/113 491/2/267
f 492/2/114 493/2/114 495/2/117
f 494/2/113 490/2/267 496/2/113
f 497/2/117 495/2/117 493/2/114
f 496/2/113 498/2/266 494/2/113
f 497/2/117 499/2/111 495/2/117
f 498/2/266 496/2/113 500/2/266
f 499/2/111 497/2/117 501/2/111
f 500/2/266 502/2/265 498/2/266
f 501/2/111 503/2/268 499/2/111
f 502/2/265 500/2/266 504/2/265
f 503/2/268 501/2/111 505/2/268
f 504/2/265 505/2/268 502/2/265
f 505/2/268 504/2/265 503/2/268
f 506/2/265 507/2/265 508/2/265
f 508/2/265 507/2/265 509/2/265
f 510/2/269 511/2/270 512/2/270
f 512/2/270 511/2/270 513/2/270
f 511/2/270 510/2/269 514/2/271
f 514/2/271 515/2/271 511/2/270
f 516/2/270 515/2/271 514/2/271
f 515/2/271 516/2/270 517/2/270
f 518/2/67 519/2/67 520/2/67
f 519/2/67 521/2/67 520/2/67
f 519/2/67 518/2/67 522/2/67
f 519/2/67 523/2/67 521/2/67
f 522/2/67 518/2/67 524/2/67
f 523/2/67 525/2/67 521/2/67
f 526/2/67 522/2/67 524/2/67
f 527/2/67 525/2/67 523/2/67
f 528/2/67 522/2/67 526/2/67
f 525/2/67 527/2/67 529/2/67
f 530/2/67 528/2/67 526/2/67
f 527/2/67 531/2/67 529/2/67
f 528/2/67 530/2/67 531/2/67
f 530/2/67 529/2/67 531/2/67
f 532/2/72 533/2/72 534/2/72
f 533/2/72 532/2/72 535/2/72
f 535/2/72 536/2/72 533/2/72
f 537/2/72 536/2/72 535/2/72
f 536/2/72 537/2/72 538/2/72
f 537/2/72 539/2/72 538/2/72
f 540/2/72 538/2/72 539/2/72
f 541/2/72 542/2/72 543/2/72
f 542/2/72 541/2/72 544/2/72
f 545/2/272 546/2/273 547/2/274
f 546/2/273 548/2/275 547/2/274
f 546/2/273 545/2/272 549/2/276
f 548/2/275 546/2/273 550/2/277
f 546/2/273 549/2/276 551/2/278
f 550/2/277 546/2/273 552/2/279
f 546/2/273 551/2/278 553/2/280
f 553/2/280 552/2/279 546/2/273
f 554/2/281 555/2/282 556/2/283
f 556/2/283 557/2/283 554/2/281
f 558/2/284 555/2/282 554/2/281
f 556/2/283 559/2/285 557/2/283
f 555/2/282 558/2/284 560/2/286
f 559/2/285 556/2/283 561/2/287
f 558/2/284 562/2/288 560/2/286
f 563/2/289 559/2/285 561/2/287
f 562/2/288 558/2/284 564/2/290
f 561/2/287 565/2/291 563/2/289
f 564/2/290 566/2/292 562/2/288
f 565/2/291 567/2/293 563/2/289
f 566/2/292 564/2/290 568/2/292
f 563/2/289 567/2/293 569/2/294
f 566/2/292 569/2/294 567/2/293
f 566/2/292 568/2/292 569/2/294
